<svg id="img-banner-counsellor" xmlns="http://www.w3.org/2000/svg" width="200" height="86.761" viewBox="0 0 200 86.761">
  <path id="Path_2808" data-name="Path 2808" d="M529.163,412.839H411.822a1.879,1.879,0,0,0,0,3.757h3.324v44.942a1.879,1.879,0,0,0,3.757,0l.029-44.942H513.11l8.684,44.942a1.879,1.879,0,0,0,3.757,0L526.1,416.6h3.066a1.879,1.879,0,0,0,0-3.757Z" transform="translate(-348.757 -377.048)" fill="#e7e7e7"/>
  <path id="Path_2809" data-name="Path 2809" d="M425.024,371.841V379.8H405.093a3.98,3.98,0,1,1-.277-7.955h.277Z" transform="translate(-341.62 -344.42)" fill="#f5a040"/>
  <path id="Path_2810" data-name="Path 2810" d="M423.844,379.029a.306.306,0,0,1-.306.306h-20.47a4.192,4.192,0,1,1,0-8.384h20.47a.306.306,0,1,1,0,.612h-20.47a3.58,3.58,0,0,0,0,7.16h20.47A.306.306,0,0,1,423.844,379.029Z" transform="translate(-339.95 -343.714)" fill="#fff"/>
  <path id="Path_2811" data-name="Path 2811" d="M435.037,380.363H413.618a.061.061,0,0,1,0-.122h21.42a.061.061,0,0,1,0,.122Z" transform="translate(-351.632 -351.107)" fill="#fff"/>
  <path id="Path_2812" data-name="Path 2812" d="M435.037,387.555H413.618a.061.061,0,0,1,0-.122h21.42a.061.061,0,0,1,0,.122Z" transform="translate(-351.632 -356.83)" fill="#fff"/>
  <path id="Path_2813" data-name="Path 2813" d="M435.037,394.746H413.618a.061.061,0,0,1,0-.122h21.42a.061.061,0,0,1,0,.122Z" transform="translate(-351.632 -362.553)" fill="#fff"/>
  <path id="Path_2814" data-name="Path 2814" d="M435.037,401.938H413.618a.061.061,0,1,1,0-.122h21.42a.061.061,0,0,1,0,.122Z" transform="translate(-351.632 -368.275)" fill="#fff"/>
  <path id="Path_2815" data-name="Path 2815" d="M406.626,330.8v7.955H386.7a3.98,3.98,0,1,1-.277-7.955h20.208Z" transform="translate(-326.979 -311.761)" fill="#f2f2f2"/>
  <path id="Path_2816" data-name="Path 2816" d="M405.447,337.988a.306.306,0,0,1-.306.306h-20.47a4.192,4.192,0,0,1,0-8.384h20.47a.306.306,0,1,1,0,.612h-20.47a3.58,3.58,0,1,0,0,7.16h20.47A.306.306,0,0,1,405.447,337.988Z" transform="translate(-325.31 -311.055)" fill="#050038"/>
  <path id="Path_2817" data-name="Path 2817" d="M416.639,339.322H395.221a.061.061,0,1,1,0-.122h21.42a.061.061,0,1,1,0,.122Z" transform="translate(-336.992 -318.447)" fill="#ccc"/>
  <path id="Path_2818" data-name="Path 2818" d="M416.639,346.514H395.221a.061.061,0,1,1,0-.122h21.42a.061.061,0,1,1,0,.122Z" transform="translate(-336.992 -324.17)" fill="#ccc"/>
  <path id="Path_2819" data-name="Path 2819" d="M416.639,353.7H395.221a.061.061,0,1,1,0-.122h21.42a.061.061,0,1,1,0,.122Z" transform="translate(-336.992 -329.893)" fill="#ccc"/>
  <path id="Path_2820" data-name="Path 2820" d="M416.639,360.9H395.221a.061.061,0,1,1,0-.122h21.42a.061.061,0,1,1,0,.122Z" transform="translate(-336.992 -335.616)" fill="#ccc"/>
  <path id="Path_2821" data-name="Path 2821" d="M502.38,519.15v-6.936a1.156,1.156,0,0,0-1.156-1.156h-26.3a1.156,1.156,0,0,0-1.156,1.156v6.936Z" transform="translate(-399.547 -455.208)" fill="#c7c7c7"/>
  <rect id="Rectangle_447" data-name="Rectangle 447" width="28.613" height="8.96" transform="translate(74.221 66.543)" fill="#c7c7c7"/>
  <path id="Path_2822" data-name="Path 2822" d="M473.768,620.029v6.936a1.156,1.156,0,0,0,1.156,1.156h26.3a1.156,1.156,0,0,0,1.156-1.156v-6.936Z" transform="translate(-399.547 -541.925)" fill="#c7c7c7"/>
  <circle id="Ellipse_479" data-name="Ellipse 479" cx="0.867" cy="0.867" r="0.867" transform="translate(87.515 59.318)" fill="#fff"/>
  <circle id="Ellipse_480" data-name="Ellipse 480" cx="0.867" cy="0.867" r="0.867" transform="translate(87.515 70.879)" fill="#fff"/>
  <circle id="Ellipse_481" data-name="Ellipse 481" cx="0.867" cy="0.867" r="0.867" transform="translate(87.562 82.195)" fill="#fff"/>
  <path id="Path_2824" data-name="Path 2824" d="M503.086,479.509a.306.306,0,0,1-.306.306H482.31a4.192,4.192,0,0,1-.005-8.384H502.78a.306.306,0,1,1,0,.612H482.31a3.58,3.58,0,0,0,0,7.16h20.47A.306.306,0,0,1,503.086,479.509Z" transform="translate(-403.007 -423.674)" fill="#fff"/>
  <path id="Path_2825" data-name="Path 2825" d="M514.289,480.843H492.87a.061.061,0,0,1,0-.122h21.42a.061.061,0,0,1,0,.122Z" transform="translate(-414.699 -431.066)" fill="#fff"/>
  <path id="Path_2826" data-name="Path 2826" d="M514.289,488.035H492.87a.061.061,0,1,1,0-.122h21.42a.061.061,0,0,1,0,.122Z" transform="translate(-414.699 -436.789)" fill="#fff"/>
  <path id="Path_2827" data-name="Path 2827" d="M514.289,495.226H492.87a.061.061,0,1,1,0-.122h21.42a.061.061,0,0,1,0,.122Z" transform="translate(-414.699 -442.512)" fill="#fff"/>
  <path id="Path_2828" data-name="Path 2828" d="M514.289,502.418H492.87a.061.061,0,1,1,0-.122h21.42a.061.061,0,0,1,0,.122Z" transform="translate(-414.699 -448.235)" fill="#fff"/>
  <path id="Path_2829" data-name="Path 2829" d="M437.092,317.811h-9.081a.561.561,0,0,0-.249.058l-2.292,1.147a.418.418,0,0,0,0,.769l2.292,1.147a.561.561,0,0,0,.249.058h9.081a.477.477,0,0,0,.5-.442v-2.3a.477.477,0,0,0-.5-.442Z" transform="translate(-360.911 -301.426)" fill="#3f3d56"/>
  <path id="Path_2830" data-name="Path 2830" d="M476.821,318.253v2.3a.477.477,0,0,1-.5.442h-1.809v-3.179h1.809a.477.477,0,0,1,.5.442Z" transform="translate(-400.137 -301.426)" fill="#f5a040"/>
  <path id="Path_2831" data-name="Path 2831" d="M213.814,463.873a7.217,7.217,0,0,0,6.969-1.228c2.441-2.049,3.206-5.424,3.829-8.55l1.842-9.244-3.856,2.655c-2.773,1.909-5.609,3.88-7.529,6.646s-2.758,6.541-1.215,9.534" transform="translate(-192.076 -402.523)" fill="#050038"/>
  <path id="Path_2832" data-name="Path 2832" d="M216.026,520.83a37.314,37.314,0,0,1-.518-8.6,13.519,13.519,0,0,1,2.607-7.088,11.79,11.79,0,0,1,3.025-2.741c.3-.191.581.288.28.479a11.209,11.209,0,0,0-4.434,5.35,17.967,17.967,0,0,0-.954,7.74c.1,1.577.314,3.144.529,4.709a.287.287,0,0,1-.194.341.279.279,0,0,1-.341-.19Z" transform="translate(-193.958 -448.287)" fill="#f2f2f2"/>
  <path id="Path_2833" data-name="Path 2833" d="M236.8,545.751a5.313,5.313,0,0,0,4.629,2.389c2.343-.111,4.3-1.747,6.055-3.3l5.2-4.593-3.443-.165a20.678,20.678,0,0,0-7.373.534c-2.358.763-4.533,2.6-4.964,5.041" transform="translate(-210.975 -478.239)" fill="#050038"/>
  <path id="Path_2834" data-name="Path 2834" d="M212.852,567.373c1.879-3.324,4.057-7.018,7.951-8.2a8.874,8.874,0,0,1,3.344-.345c.355.031.266.578-.088.547a8.243,8.243,0,0,0-5.337,1.412,13.87,13.87,0,0,0-3.668,3.958c-.607.925-1.152,1.889-1.7,2.852C213.184,567.907,212.676,567.685,212.852,567.373Z" transform="translate(-191.887 -493.196)" fill="#fff"/>
  <path id="Path_2835" data-name="Path 2835" d="M195.3,597.315a4.023,4.023,0,0,1,2.465-3.369v-1.922h3.223v1.982a4.021,4.021,0,0,1,2.331,3.309l.758,8.81h-9.535Z" transform="translate(-177.347 -519.639)" fill="#050038"/>
  <path id="Path_2836" data-name="Path 2836" d="M687.984,391.653l-.959-.4-.658-4.806h-8.759l-.713,4.787-.858.429a.2.2,0,0,0,.091.386H687.9a.2.2,0,0,0,.079-.391Z" transform="translate(-560.42 -356.042)" fill="#e7e7e7"/>
  <path id="Path_2837" data-name="Path 2837" d="M640.219,362.611H597.193a.852.852,0,0,1-.85-.852v-6.067H641.07v6.067A.852.852,0,0,1,640.219,362.611Z" transform="translate(-497.089 -331.57)" fill="#c7c7c7"/>
  <path id="Path_2838" data-name="Path 2838" d="M640.961,264.57H596.15V238.61a1.029,1.029,0,0,1,1.028-1.028h42.756a1.029,1.029,0,0,1,1.028,1.028Z" transform="translate(-496.936 -237.582)" fill="#050038"/>
  <path id="Path_2839" data-name="Path 2839" d="M645.627,270.027H606.168a.793.793,0,0,1-.792-.792V247.6a.793.793,0,0,1,.792-.792h39.459a.793.793,0,0,1,.792.792v21.635a.793.793,0,0,1-.792.792Z" transform="translate(-504.278 -244.924)" fill="#fff"/>
  <path id="Path_2840" data-name="Path 2840" d="M748.547,395.433a2.372,2.372,0,0,1,3.608.464l5.337-.949,1.368,3.1-7.556,1.234a2.385,2.385,0,0,1-2.757-3.852Z" transform="translate(-617.591 -362.695)" fill="#fee6c2"/>
  <path id="Path_2841" data-name="Path 2841" d="M775.776,355.9l5.564-.069.7-.01,11.321-.143s3.074-2.933,5.751-5.952l-.375-2.714a11.087,11.087,0,0,0-3.718-6.865c-3.834,2.562-6.057,7.633-6.057,7.633l-7.019,1.679-.7.168-4.361,1.042Z" transform="translate(-639.879 -319.205)" fill="#3f53d9"/>
  <path id="Path_2842" data-name="Path 2842" d="M824.242,498.962H813.856c0,.445-11.354.806-11.354.806a4.145,4.145,0,0,0-.68.645,4,4,0,0,0-.935,2.58v.645a4.033,4.033,0,0,0,4.031,4.031h19.325a4.035,4.035,0,0,0,4.031-4.031v-.645a4.037,4.037,0,0,0-4.032-4.031Z" transform="translate(-659.861 -445.582)" fill="#3f3d56"/>
  <rect id="Rectangle_448" data-name="Rectangle 448" width="4.192" height="24.198" transform="translate(152.636 61.926)" fill="#3f3d56"/>
  <path id="Path_2843" data-name="Path 2843" d="M799.312,642.819c0,.453,6.353.175,14.189.175s14.189.278,14.189-.175-6.353-4.045-14.189-4.045S799.312,642.366,799.312,642.819Z" transform="translate(-658.608 -556.842)" fill="#3f3d56"/>
  <path id="Path_2844" data-name="Path 2844" d="M657.244,360.566h-3.12l-1.484-12.035h4.6Z" transform="translate(-519.357 -277.353)" fill="#fee6c2"/>
  <path id="Path_2845" data-name="Path 2845" d="M750.217,644.1h-10.06v-.127a3.916,3.916,0,0,1,3.916-3.916h6.145Z" transform="translate(-611.533 -557.859)" fill="#050038"/>
  <path id="Path_2846" data-name="Path 2846" d="M612.089,360.566h-3.12l-1.484-12.035h4.6Z" transform="translate(-483.423 -277.353)" fill="#fee6c2"/>
  <path id="Path_2847" data-name="Path 2847" d="M705.062,644.1H695v-.127a3.916,3.916,0,0,1,3.915-3.916h6.145Z" transform="translate(-575.6 -557.86)" fill="#050038"/>
  <circle id="Ellipse_482" data-name="Ellipse 482" cx="5.425" cy="5.425" r="5.425" transform="translate(151.19 3.078)" fill="#fee6c2"/>
  <path id="Path_2848" data-name="Path 2848" d="M793.382,454.518s1.82,9.625-5.1,10.851-16.923,2.087-16.923,2.087l-4.49,20.946-6.032-.538s.8-25.215,2.775-27.187,14.441-7.879,14.441-7.879Z" transform="translate(-627.987 -408.845)" fill="#050038"/>
  <path id="Path_2849" data-name="Path 2849" d="M742.843,441.471l-3.029,3.039s-21.871,3.523-22.715,8.574c-1.274,7.626-2.778,24.211-2.778,24.211l6.576-.493,2.579-18.852L734,455.557l11.97-6.523Z" transform="translate(-590.974 -399.833)" fill="#050038"/>
  <path id="Path_2850" data-name="Path 2850" d="M859.408,248.132c-.535-1.01-1.216-3.024-2.3-3.4a8.6,8.6,0,0,0-1.85-.394l-1.837.707,1-.778q-.292-.017-.584-.028l-1.24.477.634-.493a5.064,5.064,0,0,0-3.244.812c-.763.6-1.52,2.872-1.642,3.835a7.333,7.333,0,0,0,.135,2.763l.314.3a3.843,3.843,0,0,0,.246-.784,3.713,3.713,0,0,1,1.777-2.411l.017-.01a3.331,3.331,0,0,1,1.769-.261l2.868.1a2.441,2.441,0,0,1,2.759,1.643,24.115,24.115,0,0,1,.79,2.574s.3-.384.437-.1a9.875,9.875,0,0,0,.411-2.294,4.493,4.493,0,0,0-.463-2.263Z" transform="translate(-697.573 -242.867)" fill="#050038"/>
  <path id="Path_2851" data-name="Path 2851" d="M970.329,290.859a2.372,2.372,0,0,0-2.147,2.936l-4.363,3.218,1.309,3.128,6.1-4.631a2.385,2.385,0,0,0-.9-4.651Z" transform="translate(-789.52 -279.974)" fill="#fee6c2"/>
  <path id="Path_2852" data-name="Path 2852" d="M904.292,310.221l-10.936,12.146s-5.23-1.674-9.275-3.489l-1.817-5.581a11.1,11.1,0,0,1-.531-4.016c5.607-1.492,12.129,4.06,12.129,4.06l8.186-6.412Z" transform="translate(-724.185 -292.766)" fill="#3f53d9"/>
  <path id="Path_2853" data-name="Path 2853" d="M842.992,345.706a29.607,29.607,0,0,0-6.145-1.633l-.094-.011.026-.09c2.253-7.91,1.691-12.969.587-20.57a7.677,7.677,0,0,1,4.4-8.067l.013-.006,6.215-.395h.014l4.52,1.329a3.1,3.1,0,0,1,2.219,3.029c-.049,2.5.055,5.29.165,8.245.247,6.628.5,13.482-.946,17.929l-.008.023-.019.015a7.371,7.371,0,0,1-4.714,1.656A19.791,19.791,0,0,1,842.992,345.706Z" transform="translate(-688.404 -299.136)" fill="#3f53d9"/>
  <path id="Path_2854" data-name="Path 2854" d="M310.048,660.166H110.626a.289.289,0,0,1,0-.578H310.048a.289.289,0,0,1,0,.578Z" transform="translate(-110.337 -573.405)" fill="#ccc"/>
</svg>
