<svg xmlns="http://www.w3.org/2000/svg" width="15" height="15" viewBox="0 0 14.995 15.001" fill="#F5A041">
              <path id="Shape_1" data-name="Shape 1" d="M226.109,1056.493a7.728,7.728,0,0,1-2.789-.823,14.908,14.908,0,0,1-4.967-3.884,13.651,13.651,0,0,1-2.425-4.04,5.544,5.544,0,0,1-.4-2.349,2.314,2.314,0,0,1,.688-1.473l1.077-1.086.006-.005a1.553,1.553,0,0,1,1.078-.465,1.5,1.5,0,0,1,1.061.465c.206.19.406.393.6.589.1.1.2.2.3.3l.865.864a1.451,1.451,0,0,1,0,2.191c-.088.088-.177.18-.266.269-.235.238-.476.484-.735.722a6.388,6.388,0,0,0,.855,1.349,10.921,10.921,0,0,0,2.609,2.376c.092.056.2.11.313.167.079.042.162.083.245.127l1-1a1.528,1.528,0,0,1,1.084-.488,1.474,1.474,0,0,1,1.071.491l1.741,1.744a1.523,1.523,0,0,1,.488,1.086,1.578,1.578,0,0,1-.479,1.1c-.136.142-.275.279-.412.409a7.168,7.168,0,0,0-.554.573c0,.005-.01.009-.013.015a2.388,2.388,0,0,1-1.829.785C226.245,1056.5,226.175,1056.5,226.109,1056.493Zm-8.213-13.048-1.081,1.08a1.455,1.455,0,0,0-.437.94,4.523,4.523,0,0,0,.355,1.982,12.864,12.864,0,0,0,2.282,3.8,14.071,14.071,0,0,0,4.678,3.659,6.888,6.888,0,0,0,2.471.742c.048,0,.1,0,.146,0a1.53,1.53,0,0,0,1.192-.5,8.541,8.541,0,0,1,.611-.634c.137-.132.264-.252.387-.385a.626.626,0,0,0,0-.992l-1.746-1.743-.006-.007a.644.644,0,0,0-.456-.23.717.717,0,0,0-.479.238l-1.084,1.083a.678.678,0,0,1-.482.219.693.693,0,0,1-.313-.079.423.423,0,0,0-.039-.023c-.092-.058-.2-.112-.313-.168a4.3,4.3,0,0,1-.39-.212,11.643,11.643,0,0,1-2.815-2.559l0,0a6.921,6.921,0,0,1-1.024-1.669l-.009-.029a.643.643,0,0,1,.165-.718c0-.007.009-.01.015-.015.276-.248.53-.5.8-.774.093-.088.181-.18.273-.272a.6.6,0,0,0,0-.981l-.865-.864c-.1-.105-.2-.206-.3-.308-.193-.2-.377-.386-.571-.566l-.009-.01a.679.679,0,0,0-.463-.222A.726.726,0,0,0,217.9,1043.445Zm10.606,10.68,0,0S228.5,1054.125,228.5,1054.125Zm-1.566-5.741a4.076,4.076,0,0,0-3.322-3.318.422.422,0,0,1-.345-.494.429.429,0,0,1,.494-.348,4.932,4.932,0,0,1,4.019,4.015.428.428,0,0,1-.352.494.5.5,0,0,1-.073.006A.426.426,0,0,1,226.936,1048.384Zm2.72-.13a7.253,7.253,0,0,0-5.915-5.908.43.43,0,0,1-.352-.494.424.424,0,0,1,.491-.347,8.114,8.114,0,0,1,6.619,6.61.42.42,0,0,1-.349.488.507.507,0,0,1-.073.006A.425.425,0,0,1,229.656,1048.254Z" transform="translate(-215.51 -1041.498)" />
            </svg>