<svg id="Ic-feedback" xmlns="http://www.w3.org/2000/svg" width="15.82" height="18.002" viewBox="0 0 15.82 18.002">
  <g id="Group_909" data-name="Group 909" transform="translate(0 3.199)">
    <path id="Path_2524" data-name="Path 2524" d="M46.416,98.945a1.581,1.581,0,0,0-1.178-2.637h-3.07a10.225,10.225,0,0,0,.434-2.672v-.527A2.112,2.112,0,0,0,40.492,91h-.527a.527.527,0,0,0-.512.4l-.287,1.149c-.4,1.609-1.68,3.385-3,3.708a1.584,1.584,0,0,0-1.472-1H31.527a.528.528,0,0,0-.527.527v9.492a.528.528,0,0,0,.527.527h3.164a1.584,1.584,0,0,0,1.428-.9l1.812.6a5.788,5.788,0,0,0,1.834.3h4.418a1.582,1.582,0,0,0,1.471-2.165,1.581,1.581,0,0,0,.762-2.581,1.579,1.579,0,0,0,0-2.109Zm-11.2,5.273a.528.528,0,0,1-.527.527H32.055V96.309h2.637a.528.528,0,0,1,.527.527Zm8.965-4.746h1.055a.528.528,0,0,1,0,1.055H44.184a.528.528,0,1,0,0,1.055h1.055a.528.528,0,0,1,0,1.055H44.184a.528.528,0,1,0,0,1.055.528.528,0,0,1,0,1.055H39.766a4.735,4.735,0,0,1-1.5-.244l-1.992-.664V97.313a4.249,4.249,0,0,0,2.368-1.538,7.694,7.694,0,0,0,1.548-2.97l.187-.75h.116a1.056,1.056,0,0,1,1.055,1.055v.527a8.345,8.345,0,0,1-.5,2.672H39.965a.528.528,0,0,0,0,1.055h5.273a.528.528,0,0,1,0,1.055H44.184a.528.528,0,1,0,0,1.055Z" transform="translate(-31 -91)" fill="#050038"/>
  </g>
  <g id="Group_910" data-name="Group 910" transform="translate(2.109 14.836)">
    <circle id="Ellipse_465" data-name="Ellipse 465" cx="0.527" cy="0.527" r="0.527" transform="translate(0 0)" fill="#050038"/>
  </g>
  <g id="Group_911" data-name="Group 911" transform="translate(9.492)">
    <path id="Path_2525" data-name="Path 2525" d="M301.527,0A.527.527,0,0,0,301,.527v1.09a.527.527,0,0,0,1.055,0V.527A.527.527,0,0,0,301.527,0Z" transform="translate(-301)" fill="#050038"/>
  </g>
  <g id="Group_912" data-name="Group 912" transform="translate(6.136 1.425)">
    <path id="Path_2526" data-name="Path 2526" d="M207.186,41.442l-.746-.746a.528.528,0,1,0-.746.746l.746.746a.528.528,0,1,0,.746-.746Z" transform="translate(-205.54 -40.542)" fill="#050038"/>
  </g>
  <g id="Group_913" data-name="Group 913" transform="translate(12.102 1.425)">
    <path id="Path_2527" data-name="Path 2527" d="M376.892,40.7a.527.527,0,0,0-.746,0l-.746.746a.527.527,0,1,0,.746.746l.746-.746a.527.527,0,0,0,0-.746Z" transform="translate(-375.246 -40.542)" fill="#050038"/>
  </g>
</svg>
