<svg xmlns="http://www.w3.org/2000/svg" width="18" height="18" viewBox="0 0 18 18">
  <path id="ic-legal" d="M15.585,4.671a4.2,4.2,0,0,0,1.536-.89L16.409,3a3.159,3.159,0,0,1-3.635.435,7.9,7.9,0,0,0-2.233-.809,1.765,1.765,0,1,0-3.081,0,7.9,7.9,0,0,0-2.233.809A3.158,3.158,0,0,1,1.591,3l-.712.783a4.205,4.205,0,0,0,1.668.93L0,8.85v.679a3.357,3.357,0,0,0,3.353,3.353h.706a3.376,3.376,0,0,0,3.353-3V8.858L5,4.676a4.212,4.212,0,0,0,.734-.314,6.825,6.825,0,0,1,2.738-.815V14.731H7.65A2.742,2.742,0,0,0,4.911,17.47V18h8.148v-.529a2.742,2.742,0,0,0-2.739-2.739H9.53V3.547a6.825,6.825,0,0,1,2.738.815,4.209,4.209,0,0,0,.865.354L10.588,8.85v.679a3.357,3.357,0,0,0,3.353,3.353h.706a3.376,3.376,0,0,0,3.353-3V8.858ZM4.059,11.824H3.353a2.3,2.3,0,0,1-2.232-1.765h5.17a2.3,2.3,0,0,1-2.232,1.765ZM1.151,9l2.5-4.059H3.93L6.271,9Zm10.764,7.941H6.055a1.683,1.683,0,0,1,1.6-1.151h2.67A1.683,1.683,0,0,1,11.915,16.941ZM8.294,1.765A.706.706,0,1,1,9,2.471a.706.706,0,0,1-.706-.706Zm6.353,10.059h-.706a2.3,2.3,0,0,1-2.232-1.765H16.88a2.3,2.3,0,0,1-2.233,1.765ZM11.739,9l2.5-4.059h.281L16.859,9Z" transform="translate(0 0)" fill="#050038"/>
</svg>
