<svg xmlns="http://www.w3.org/2000/svg" width="18.136" height="18.001" viewBox="0 0 18.136 18.001">
  <g id="Ic-manage-profile" transform="translate(-1.25 -1.737)">
    <path id="Path_2530" data-name="Path 2530" d="M21.159,15.489a1.5,1.5,0,0,0-.725-1.993L18.6,12.641a1.5,1.5,0,0,0-1.992.726l-1.87,4.01a1.5,1.5,0,0,0-.078,1.062l.712,2.384a.642.642,0,0,0,.87.4l2.284-.986a1.5,1.5,0,0,0,.764-.743ZM20,14.946l-1.87,4.01a.214.214,0,0,1-.11.106l-1.62.7-.505-1.691a.22.22,0,0,1,.011-.152l1.87-4.011a.216.216,0,0,1,.121-.111.211.211,0,0,1,.164.008l1.835.855a.215.215,0,0,1,.1.285Z" transform="translate(-1.914 -1.543)" fill="#050038" fill-rule="evenodd"/>
    <path id="Path_2531" data-name="Path 2531" d="M11.744,19.725H2.706a.173.173,0,0,1-.171-.171V18.311A2.431,2.431,0,0,1,3.826,16.44a11.442,11.442,0,0,1,6.2-1.555,15.144,15.144,0,0,1,2.055.137.643.643,0,1,0,.173-1.274A16.532,16.532,0,0,0,10.03,13.6,12.748,12.748,0,0,0,3.1,15.378a3.667,3.667,0,0,0-1.85,2.933v1.242A1.457,1.457,0,0,0,2.706,21.01h9.037a.642.642,0,1,0,0-1.285Z" transform="translate(0 -1.701)" fill="#050038" fill-rule="evenodd"/>
    <path id="Path_2532" data-name="Path 2532" d="M10.711,1.737a4.711,4.711,0,1,0,4.711,4.711,4.711,4.711,0,0,0-4.711-4.711Zm0,1.285A3.427,3.427,0,1,1,7.285,6.448a3.427,3.427,0,0,1,3.426-3.426Z" transform="translate(-0.681)" fill="#050038" fill-rule="evenodd"/>
  </g>
</svg>
