<svg xmlns="http://www.w3.org/2000/svg" width="100.006" height="100.002" viewBox="0 0 100.006 100.002">
  <g id="Group_1150" data-name="Group 1150" transform="translate(-200.581 -200.434)">
    <g id="img-refre-earn">
      <g id="Group_1132" data-name="Group 1132">
        <path id="Path_3258" data-name="Path 3258" d="M265.587,230.436a35,35,0,1,1-35,35A35,35,0,0,1,265.587,230.436Z" fill="#e7e8ff" opacity="0.5" style="mix-blend-mode: normal;isolation: isolate"/>
        <path id="Path_3259" data-name="Path 3259" d="M285.587,270.436a15,15,0,1,1-15,15A15,15,0,0,1,285.587,270.436Z" fill="#f5a041" opacity="0.5" style="mix-blend-mode: normal;isolation: isolate"/>
      </g>
      <path id="Path_3260" data-name="Path 3260" d="M203.987,215.727l1.138.586a6.706,6.706,0,0,1,2.887,3.439,3.14,3.14,0,0,0,5.58,0,6.736,6.736,0,0,1,2.9-3.439l1.138-.586a3.14,3.14,0,0,0,0-5.58,6.736,6.736,0,0,1-3.443-2.887l-.586-1.138a3.14,3.14,0,0,0-5.58,0,6.725,6.725,0,0,1-2.888,3.439l-1.146.586a3.14,3.14,0,0,0,0,5.58Zm1.073-3.5,1.138-.586a8.815,8.815,0,0,0,3.9-4.45.794.794,0,0,1,1.413,0l.586,1.138a8.809,8.809,0,0,0,4.449,3.9.794.794,0,0,1,0,1.413l-1.138.586a8.809,8.809,0,0,0-3.9,4.449.794.794,0,0,1-1.413,0,8.822,8.822,0,0,0-3.9-4.449l-1.138-.586a.794.794,0,0,1,0-1.413Zm71.239,25.21h-2.68a4.26,4.26,0,0,0,.47-1.945v-4.357a4.257,4.257,0,0,0-.622-2.216,4.3,4.3,0,0,0,2.788-4.017v-4.373a4.267,4.267,0,0,0-.7-2.348,1.172,1.172,0,0,0-1.995,1.23c.011.019.023.036.035.054a1.933,1.933,0,0,1,.316,1.064V224.9a1.947,1.947,0,0,1-1.945,1.945H242.979a26.3,26.3,0,0,0-11.1-4.941v-1.372a1.947,1.947,0,0,1,1.945-1.945h22.563l.267.519a3.62,3.62,0,0,0,6.436,0l.267-.519h6.115a1.172,1.172,0,1,0,0-2.344h-4.656a10.5,10.5,0,0,1,3.407-2.273,3.621,3.621,0,0,0,0-6.436l-1.417-.73a6.9,6.9,0,0,1-2.988-2.988l-.73-1.417a3.621,3.621,0,0,0-6.436,0l-.73,1.417a6.9,6.9,0,0,1-2.988,2.988l-1.417.73a3.621,3.621,0,0,0,0,6.436,10.456,10.456,0,0,1,3.408,2.268h-21.1a4.294,4.294,0,0,0-4.289,4.289v1.041a26.416,26.416,0,0,0-21.049,45.14,1.172,1.172,0,0,0,1.643-1.67,24.02,24.02,0,1,1,4.226,3.317,1.172,1.172,0,1,0-1.271,1.969l.038.024a26.418,26.418,0,0,0,36.355-8.605c.152-.247.3-.5.445-.749h22.043a4.293,4.293,0,0,0,4.289-4.289v-4.367a4.272,4.272,0,0,0-.469-1.945h.513a4.293,4.293,0,0,0,4.288-4.29v-4.365a4.293,4.293,0,0,0-4.287-4.292Zm-23.712-25.553a1.275,1.275,0,0,1,0-2.269c.751-.5,3.659-1.32,5.415-4.728l.73-1.417a1.275,1.275,0,0,1,2.269,0l.73,1.417c1.755,3.407,4.668,4.233,5.415,4.728a1.275,1.275,0,0,1,0,2.269c-.753.5-3.659,1.32-5.415,4.728h0l-.73,1.417a1.275,1.275,0,0,1-2.269,0l-.73-1.417C256.251,213.207,253.331,212.375,252.587,211.884Zm-6.926,17.3H269.8a1.947,1.947,0,0,1,1.945,1.949v4.37a1.947,1.947,0,0,1-1.945,1.945H251.275a26.509,26.509,0,0,0-5.61-8.263Zm28.25,27.517a1.947,1.947,0,0,1-1.945,1.945h-20.85a26.215,26.215,0,0,0,2.181-8.258h18.669a1.947,1.947,0,0,1,1.945,1.947V256.7Zm4.333-10.6a1.947,1.947,0,0,1-1.945,1.945H253.417v-.181a26.3,26.3,0,0,0-1.265-8.077H276.3a1.947,1.947,0,0,1,1.945,1.947Z" fill="#060e29"/>
      <path id="Path_3261" data-name="Path 3261" d="M220.81,260.3a1.241,1.241,0,0,1-1.208-1.517l1.5-6.612-5.09-4.465a1.241,1.241,0,0,1,.7-2.17l6.736-.612,2.663-6.232a1.24,1.24,0,0,1,2.281,0l2.665,6.233,6.73.612a1.241,1.241,0,0,1,.7,2.17l-5.091,4.464,1.5,6.612a1.24,1.24,0,0,1-1.845,1.34l-5.8-3.476-5.805,3.477A1.239,1.239,0,0,1,220.81,260.3Zm6.444-5.144a1.239,1.239,0,0,1,.636.176l5.482,3.278-1.417-6.241a1.24,1.24,0,0,1,.393-1.208l4.806-4.214-6.36-.578a1.239,1.239,0,0,1-1.031-.752l-2.51-5.881-2.513,5.881a1.237,1.237,0,0,1-1.028.749l-6.36.581,4.807,4.216a1.237,1.237,0,0,1,.393,1.209l-1.416,6.237,5.482-3.277A1.239,1.239,0,0,1,227.254,255.153Z" fill="#060e29" stroke="#060e29" stroke-linejoin="round" stroke-width="0.5"/>
    </g>
    <circle id="Ellipse_538" data-name="Ellipse 538" cx="19.69" cy="19.69" r="19.69" transform="translate(207.56 228.356)" fill="none" stroke="#080f29" stroke-width="2.5"/>
  </g>
</svg>
