<svg xmlns="http://www.w3.org/2000/svg" width="100" height="100.152" viewBox="0 0 100 100.152">
  <g id="img-insurance" transform="translate(0 0.152)">
    <g id="Group_1126" data-name="Group 1126" transform="translate(30 30)">
      <path id="Path_3243" data-name="Path 3243" d="M35,0A35,35,0,1,1,0,35,35,35,0,0,1,35,0Z" fill="#e7e8ff" opacity="0.5"/>
      <path id="Path_3244" data-name="Path 3244" d="M15,0A15,15,0,1,1,0,15,15,15,0,0,1,15,0Z" transform="translate(40 40)" fill="#f5a041" opacity="0.5"/>
    </g>
    <path id="Path_3245" data-name="Path 3245" d="M151.1,16.848a1.172,1.172,0,0,0-2.3-.444,11.691,11.691,0,0,1-3.23,6.074l-6.555,6.555a7.9,7.9,0,0,0-5.87-5.229,8.3,8.3,0,1,0-11.208,0,7.9,7.9,0,0,0-5.869,5.229l-6.554-6.555a11.76,11.76,0,1,1,16.63-16.632,1.985,1.985,0,0,0,2.795,0A11.761,11.761,0,0,1,148.7,11.428a1.172,1.172,0,1,0,2.28-.542,14.1,14.1,0,0,0-23.431-6.95,14.1,14.1,0,0,0-19.685,20.2l16.992,16.992a3.813,3.813,0,0,0,5.385,0L147.23,24.136A14.03,14.03,0,0,0,151.1,16.848Zm-29.521.831a5.969,5.969,0,0,1,5.962-5.962c7.9.3,7.9,11.626,0,11.925a5.969,5.969,0,0,1-5.962-5.962Zm7,21.791a1.466,1.466,0,0,1-2.071,0L118.039,31a5.53,5.53,0,0,1,5.491-5.015h8.028A5.53,5.53,0,0,1,137.05,31Z" transform="translate(-87.545 -0.085)" fill="#050038"/>
    <path id="Path_3246" data-name="Path 3246" d="M31.322,203.036h-.85v-7.174a10.574,10.574,0,0,0-1.948-6.131L21.7,180.076a4.657,4.657,0,0,0-8.073.818l-1.054-1.426a1.332,1.332,0,0,1-.261-.8L12.47,162.8v-.037a5.063,5.063,0,0,0-10.088-.612L.028,181.507A3.649,3.649,0,0,0,.769,184.2l5.337,6.889a1.172,1.172,0,1,0,1.853-1.435l-5.338-6.889a1.336,1.336,0,0,1-.267-.973L4.71,162.429a2.719,2.719,0,0,1,5.418.329L9.97,178.642a3.711,3.711,0,0,0,.719,2.218l6.461,8.8a1.172,1.172,0,1,0,1.894-1.381l-3.022-4.145a2.318,2.318,0,1,1,3.766-2.7l6.822,9.654a8.242,8.242,0,0,1,1.518,4.779v7.174H17.388a4.532,4.532,0,0,0-.931-2.42l-5.136-6.626a1.172,1.172,0,1,0-1.852,1.436l5.136,6.627a2.177,2.177,0,0,1,.426.985h-.823A2.112,2.112,0,0,0,12.1,205.15v5.788a2.112,2.112,0,0,0,2.109,2.109H31.322a2.112,2.112,0,0,0,2.109-2.109V205.15a2.112,2.112,0,0,0-2.11-2.109Zm-.234,7.663H14.442V205.38H31.087Z" transform="translate(0 -133.069)" fill="#050038"/>
    <path id="Path_3247" data-name="Path 3247" d="M330.7,184.2a3.648,3.648,0,0,0,.742-2.692l-2.356-19.36A5.063,5.063,0,0,0,319,162.76l.158,15.9a1.329,1.329,0,0,1-.26.8l-1.056,1.428a4.657,4.657,0,0,0-8.073-.823l-6.822,9.655A10.573,10.573,0,0,0,301,195.863v7.174h-.85a2.112,2.112,0,0,0-2.109,2.109v5.788a2.112,2.112,0,0,0,2.109,2.109h17.114a2.112,2.112,0,0,0,2.109-2.109v-5.788a2.112,2.112,0,0,0-2.109-2.109h-.823a2.178,2.178,0,0,1,.427-.985Zm-13.672,26.5H300.387v-5.319h16.646Zm-13.686-7.663v-7.174a8.241,8.241,0,0,1,1.518-4.778l6.822-9.655a2.318,2.318,0,1,1,3.767,2.7l-3.022,4.145a1.172,1.172,0,0,0,1.894,1.381l6.462-8.8a3.711,3.711,0,0,0,.717-2.217l-.158-15.844v-.037a2.719,2.719,0,0,1,5.418-.329l2.356,19.361a1.335,1.335,0,0,1-.267.973l-13.834,17.851a4.529,4.529,0,0,0-.932,2.421H303.346Z" transform="translate(-251.474 -133.07)" fill="#050038"/>
  </g>
</svg>
