<svg xmlns="http://www.w3.org/2000/svg" width="100" height="100" viewBox="0 0 100 100">
  <g id="img-talk-to-expert" transform="translate(-46 -40.934)">
    <g id="Group_1144" data-name="Group 1144" transform="translate(76 70.934)">
      <path id="Path_3272" data-name="Path 3272" d="M35,0A35,35,0,1,1,0,35,35,35,0,0,1,35,0Z" fill="#e7e8ff" opacity="0.5"/>
      <path id="Path_3273" data-name="Path 3273" d="M15,0A15,15,0,1,1,0,15,15,15,0,0,1,15,0Z" transform="translate(40 40)" fill="#f5a041" opacity="0.5"/>
    </g>
    <g id="Group_1145" data-name="Group 1145" transform="translate(46 40.934)">
      <path id="Path_3274" data-name="Path 3274" d="M75.878,264.647l-3.364-1.168a8.123,8.123,0,0,0,3.094-6.379v-2.466a8.136,8.136,0,1,0-16.272,0V257.1a8.123,8.123,0,0,0,3.094,6.378l-3.364,1.169a11.081,11.081,0,0,0-5.271,3.877H44.708v-3.586a11.1,11.1,0,0,0-7.456-10.481l-3.365-1.168a8.124,8.124,0,0,0,3.1-6.379v-2.466a8.136,8.136,0,1,0-16.272,0v2.466a8.124,8.124,0,0,0,3.093,6.378l-3.363,1.169a11.1,11.1,0,0,0-7.456,10.481v3.586H1.233A1.233,1.233,0,0,0,0,269.757v10.19a1.233,1.233,0,0,0,1.233,1.233H52.515a1.125,1.125,0,0,1,.329,0H82.1a1.233,1.233,0,0,0,1.233-1.233v-4.819A11.1,11.1,0,0,0,75.878,264.647ZM61.8,254.635a5.671,5.671,0,1,1,11.342,0V257.1a5.671,5.671,0,1,1-11.341,0Zm-38.626-10.19a5.671,5.671,0,1,1,11.341,0v2.466a5.671,5.671,0,1,1-11.341,0Zm8.257,10.6,1.2.416-3.784,6.566-3.784-6.566,1.2-.416ZM15.45,264.938a8.636,8.636,0,0,1,5.8-8.152l1.442-.5,5.087,8.827a1.233,1.233,0,0,0,2.136,0L35,256.286l1.442.5a8.635,8.635,0,0,1,5.8,8.152v3.586H15.45ZM2.466,270.99H52.414a11.055,11.055,0,0,0-.8,4.138v3.586H2.466Zm78.4,7.725H54.077v-3.586a8.636,8.636,0,0,1,5.8-8.152l5.011-1.74h5.173l5.011,1.74a8.636,8.636,0,0,1,5.8,8.152Zm0,0" transform="translate(0 -197.847)" fill="#050038"/>
      <path id="Path_3275" data-name="Path 3275" d="M75.526,8.876H63a1.233,1.233,0,1,0,0,2.466H75.526a5.348,5.348,0,0,1,5.342,5.342V33.777a5.348,5.348,0,0,1-5.342,5.342H58.6a1.233,1.233,0,0,0-1.233,1.233V45.6L51.25,39.48a1.232,1.232,0,0,0-.872-.361H40.352a5.348,5.348,0,0,1-5.342-5.342V16.683a5.348,5.348,0,0,1,5.342-5.342H57.24a1.233,1.233,0,1,0,0-2.466H50.789V7.807A7.816,7.816,0,0,0,42.981,0H7.807A7.816,7.816,0,0,0,0,7.807v2.726a1.233,1.233,0,0,0,2.466,0V7.807A5.348,5.348,0,0,1,7.807,2.466H42.981a5.348,5.348,0,0,1,5.342,5.342V8.876H40.352a7.816,7.816,0,0,0-7.807,7.807v13.56h-12.9a1.233,1.233,0,0,0-1.233,1.233v5.243L12.3,30.6a1.232,1.232,0,0,0-.872-.361H7.807A5.348,5.348,0,0,1,2.466,24.9V16.265a1.233,1.233,0,0,0-2.466,0V24.9a7.816,7.816,0,0,0,7.807,7.807h3.1l7.858,7.858a1.233,1.233,0,0,0,2.1-.872V32.708H32.54v1.069a7.816,7.816,0,0,0,7.807,7.807h9.516l7.857,7.858a1.233,1.233,0,0,0,2.1-.872V41.584h15.7a7.816,7.816,0,0,0,7.807-7.807V16.683A7.816,7.816,0,0,0,75.526,8.876Zm0,0" fill="#050038"/>
    </g>
  </g>
</svg>
