<svg width="32" height="32" viewBox="0 0 32 32" fill="none" xmlns="http://www.w3.org/2000/svg">
<path d="M7.33936 8.59181C7.33936 7.90047 7.91814 7.33931 8.63161 7.33931H23.5321C24.2459 7.33931 24.8244 7.90047 24.8244 8.59181V23.572C24.8244 24.2636 24.2459 24.8243 23.5321 24.8243H8.63161C7.91821 24.8243 7.33936 24.2636 7.33936 23.5722V8.59161V8.59181Z" fill="#006699"/>
<path d="M12.6528 21.972V14.1002H10.0363V21.972H12.653H12.6528ZM11.3451 13.0256C12.2573 13.0256 12.8252 12.4212 12.8252 11.6658C12.8082 10.8931 12.2573 10.3055 11.3624 10.3055C10.4669 10.3055 9.88208 10.8931 9.88208 11.6657C9.88208 12.4211 10.4498 13.0256 11.3279 13.0256H11.3449L11.3451 13.0256ZM14.101 21.972H16.7173V17.5765C16.7173 17.3416 16.7344 17.106 16.8035 16.9382C16.9925 16.4679 17.423 15.9811 18.146 15.9811C19.0925 15.9811 19.4714 16.7029 19.4714 17.7613V21.972H22.0876V17.4586C22.0876 15.0408 20.797 13.9157 19.0756 13.9157C17.6643 13.9157 17.0444 14.7045 16.7001 15.2417H16.7175V14.1005H14.1012C14.1353 14.8389 14.101 21.9723 14.101 21.9723L14.101 21.972Z" fill="white"/>
</svg>
