<svg width="32" height="32" viewBox="0 0 32 32" fill="none" xmlns="http://www.w3.org/2000/svg">
<mask id="mask0_541_22074" style="mask-type:alpha" maskUnits="userSpaceOnUse" x="0" y="0" width="32" height="32">
<rect width="32" height="32" fill="#D9D9D9"/>
</mask>
<g mask="url(#mask0_541_22074)">
<path d="M7.79984 22.8C8.93317 21.9333 10.1998 21.2498 11.5998 20.7493C12.9998 20.2498 14.4665 20 15.9998 20C17.5332 20 18.9998 20.2498 20.3998 20.7493C21.7998 21.2498 23.0665 21.9333 24.1998 22.8C24.9776 21.8889 25.5834 20.8556 26.0172 19.7C26.4501 18.5444 26.6665 17.3111 26.6665 16C26.6665 13.0444 25.6278 10.5276 23.5505 8.44934C21.4723 6.372 18.9554 5.33334 15.9998 5.33334C13.0443 5.33334 10.5278 6.372 8.4505 8.44934C6.37228 10.5276 5.33317 13.0444 5.33317 16C5.33317 17.3111 5.55006 18.5444 5.98384 19.7C6.41673 20.8556 7.02206 21.8889 7.79984 22.8ZM15.9998 17.3333C14.6887 17.3333 13.5829 16.8836 12.6825 15.984C11.7829 15.0836 11.3332 13.9778 11.3332 12.6667C11.3332 11.3556 11.7829 10.2498 12.6825 9.34934C13.5829 8.44978 14.6887 8.00001 15.9998 8.00001C17.3109 8.00001 18.4167 8.44978 19.3172 9.34934C20.2167 10.2498 20.6665 11.3556 20.6665 12.6667C20.6665 13.9778 20.2167 15.0836 19.3172 15.984C18.4167 16.8836 17.3109 17.3333 15.9998 17.3333ZM15.9998 29.3333C14.1554 29.3333 12.4221 28.9831 10.7998 28.2827C9.17762 27.5831 7.7665 26.6333 6.5665 25.4333C5.3665 24.2333 4.41673 22.8222 3.71717 21.2C3.01673 19.5778 2.6665 17.8444 2.6665 16C2.6665 14.1556 3.01673 12.4222 3.71717 10.8C4.41673 9.17778 5.3665 7.76667 6.5665 6.56667C7.7665 5.36667 9.17762 4.41645 10.7998 3.71601C12.4221 3.01645 14.1554 2.66667 15.9998 2.66667C17.8443 2.66667 19.5776 3.01645 21.1998 3.71601C22.8221 4.41645 24.2332 5.36667 25.4332 6.56667C26.6332 7.76667 27.5829 9.17778 28.2825 10.8C28.9829 12.4222 29.3332 14.1556 29.3332 16C29.3332 17.8444 28.9829 19.5778 28.2825 21.2C27.5829 22.8222 26.6332 24.2333 25.4332 25.4333C24.2332 26.6333 22.8221 27.5831 21.1998 28.2827C19.5776 28.9831 17.8443 29.3333 15.9998 29.3333ZM15.9998 26.6667C17.1776 26.6667 18.2887 26.4947 19.3332 26.1507C20.3776 25.8058 21.3332 25.3111 22.1998 24.6667C21.3332 24.0222 20.3776 23.5276 19.3332 23.1827C18.2887 22.8387 17.1776 22.6667 15.9998 22.6667C14.8221 22.6667 13.7109 22.8387 12.6665 23.1827C11.6221 23.5276 10.6665 24.0222 9.79984 24.6667C10.6665 25.3111 11.6221 25.8058 12.6665 26.1507C13.7109 26.4947 14.8221 26.6667 15.9998 26.6667ZM15.9998 14.6667C16.5776 14.6667 17.0554 14.4778 17.4332 14.1C17.8109 13.7222 17.9998 13.2444 17.9998 12.6667C17.9998 12.0889 17.8109 11.6111 17.4332 11.2333C17.0554 10.8556 16.5776 10.6667 15.9998 10.6667C15.4221 10.6667 14.9443 10.8556 14.5665 11.2333C14.1887 11.6111 13.9998 12.0889 13.9998 12.6667C13.9998 13.2444 14.1887 13.7222 14.5665 14.1C14.9443 14.4778 15.4221 14.6667 15.9998 14.6667Z" fill="#E7E8FF"/>
</g>
</svg>
