<svg width="48" height="48" viewBox="0 0 48 48" fill="none" xmlns="http://www.w3.org/2000/svg">
<path fill-rule="evenodd" clip-rule="evenodd" d="M20.4105 1.31595C21.2069 0.520513 22.2726 0.0524673 23.3972 0.0041507C24.5218 -0.0441659 25.6237 0.330756 26.4855 1.05495L26.7735 1.3182L31.0485 5.59095H37.092C38.2269 5.59116 39.3198 6.02018 40.1518 6.79208C40.9838 7.56398 41.4934 8.62173 41.5785 9.75345L41.592 10.0909V16.1344L45.867 20.4094C46.663 21.206 47.1315 22.2722 47.1798 23.3973C47.2281 24.5224 46.8528 25.6248 46.128 26.4867L45.8647 26.7724L41.5897 31.0474V37.0909C41.5901 38.2262 41.1613 39.3197 40.3894 40.1522C39.6174 40.9846 38.5593 41.4946 37.4272 41.5797L37.092 41.5909H31.0507L26.7757 45.8659C25.9791 46.662 24.913 47.1305 23.7879 47.1788C22.6627 47.2271 21.5604 46.8518 20.6985 46.1269L20.4127 45.8659L16.1377 41.5909H10.092C8.95668 41.5913 7.8632 41.1625 7.03074 40.3906C6.19828 39.6186 5.68837 38.5605 5.60322 37.4284L5.59197 37.0909V31.0474L1.31697 26.7724C0.520911 25.9759 0.052469 24.9097 0.00414764 23.7846C-0.0441737 22.6595 0.331139 21.5571 1.05597 20.6952L1.31697 20.4094L5.59197 16.1344V10.0909C5.59218 8.95604 6.02121 7.86312 6.79311 7.03114C7.565 6.19916 8.62276 5.68956 9.75447 5.60445L10.092 5.59095H16.1355L20.4105 1.31595ZM30.5197 16.8027L20.9707 26.3517L16.9927 22.3737C16.5705 21.9518 15.998 21.7149 15.4012 21.7151C14.8043 21.7153 14.232 21.9526 13.8101 22.3748C13.3882 22.797 13.1513 23.3695 13.1515 23.9664C13.1517 24.5632 13.389 25.1356 13.8112 25.5574L19.2202 30.9664C19.4501 31.1964 19.723 31.3788 20.0233 31.5033C20.3237 31.6277 20.6456 31.6918 20.9707 31.6918C21.2958 31.6918 21.6178 31.6277 21.9181 31.5033C22.2185 31.3788 22.4914 31.1964 22.7212 30.9664L33.7012 19.9842C34.1111 19.5598 34.3379 18.9915 34.3327 18.4015C34.3276 17.8116 34.091 17.2473 33.6738 16.8301C33.2566 16.4129 32.6923 16.1763 32.1024 16.1712C31.5124 16.1661 30.9441 16.3928 30.5197 16.8027Z" fill="#404040"/>
</svg>
