<svg width="62" height="62" viewBox="0 0 62 62" fill="none" xmlns="http://www.w3.org/2000/svg">
<path d="M25.4666 28.2401H25.4946M36.6444 14.2178H36.6724M47.8222 14.2178H47.8502M15.6861 34.1295H15.714M46.1456 25.1552C43.91 27.3987 40.5567 27.3987 38.3211 25.1552M25.7461 17.3027C22.6722 17.5831 19.0394 18.9854 14.2889 21.5094C4.50829 27.1183 1.15495 32.4468 3.9494 37.2143C16.5244 59.0891 30.4967 60.7718 35.2472 57.9674C37.7622 56.5651 40.5567 52.078 40.5567 44.7864M22.9517 43.6646C23.7901 40.5797 26.8639 38.897 29.6584 39.7384M59 11.4134C59 36.6535 47.8222 45.0669 42.2333 45.0669C36.6444 45.0669 25.4666 36.6535 25.4666 11.4134C25.4666 5.80446 31.0555 3 42.2333 3C53.4111 3 59 5.80446 59 11.4134Z" stroke="black" stroke-width="5" stroke-linecap="round" stroke-linejoin="round"/>
</svg>
