<svg width="60" height="59" viewBox="0 0 60 59" fill="none" xmlns="http://www.w3.org/2000/svg">
<path d="M22.7586 0C21.6828 0 20.5655 0.366207 19.7793 1.13931C18.9931 1.91241 18.6207 3.01103 18.6207 4.06897V6.10345H0V46.7931H23.1724C22.9034 45.491 22.7586 44.1279 22.7586 42.7241H4.13793V29.3779C5.35862 30.0697 6.76552 30.5172 8.27586 30.5172H26.9172C28.0759 28.971 29.4828 27.5876 31.0552 26.4483H8.27586C5.81379 26.4483 4.13793 24.8003 4.13793 22.3793V10.1724H49.6552V22.3793C49.6552 22.7048 49.6345 23.01 49.5724 23.2948C51.0621 23.7424 52.469 24.3528 53.7931 25.1055V6.10345H35.1724V4.06897C35.1724 3.01103 34.8 1.91241 34.0138 1.13931C33.2276 0.366207 32.1103 0 31.0345 0H22.7586ZM22.7586 4.06897H31.0345V6.10345H22.7586V4.06897ZM12.4138 18.3103V24.4138H16.5517V18.3103H12.4138ZM37.2414 18.3103V23.3152C38.5887 22.9011 39.975 22.6217 41.3793 22.481V18.3103H37.2414ZM43.4483 26.4483C34.3241 26.4483 26.8966 33.7521 26.8966 42.7241C26.8966 51.6962 34.3241 59 43.4483 59C52.5724 59 60 51.6962 60 42.7241C60 33.7521 52.5724 26.4483 43.4483 26.4483ZM43.4483 30.5172C50.3172 30.5172 55.8621 35.9697 55.8621 42.7241C55.8621 49.4786 50.3172 54.931 43.4483 54.931C36.5793 54.931 31.0345 49.4786 31.0345 42.7241C31.0345 35.9697 36.5793 30.5172 43.4483 30.5172ZM41.3793 32.5517V44.7586H51.7241V40.6897H45.5172V32.5517H41.3793Z" fill="black"/>
</svg>
