<svg width="42" height="46" viewBox="0 0 42 46" fill="none" xmlns="http://www.w3.org/2000/svg">
<path d="M9.54545 0L5.72727 3.81818L9.54545 7.63636L13.3636 3.81818L9.54545 0ZM13.3636 3.81818L17.1818 7.63636L21 3.81818L17.1818 0L13.3636 3.81818ZM21 3.81818L24.8182 7.63636L28.6364 3.81818L24.8182 0L21 3.81818ZM28.6364 3.81818L32.4545 7.63636L36.2727 3.81818L32.4545 0L28.6364 3.81818ZM32.4545 7.63636H0V45.8182H42V7.63636H32.4545ZM3.81818 11.4545H38.1818V42H26.7273V32.4545H15.2727V42H3.81818V11.4545ZM7.63636 15.2727V19.0909H11.4545V15.2727H7.63636ZM15.2727 15.2727V19.0909H19.0909V15.2727H15.2727ZM22.9091 15.2727V19.0909H26.7273V15.2727H22.9091ZM30.5455 15.2727V19.0909H34.3636V15.2727H30.5455ZM7.63636 21V24.8182H11.4545V21H7.63636ZM15.2727 21V24.8182H19.0909V21H15.2727ZM22.9091 21V24.8182H26.7273V21H22.9091ZM30.5455 21V24.8182H34.3636V21H30.5455ZM7.63636 26.7273V30.5455H11.4545V26.7273H7.63636ZM15.2727 26.7273V30.5455H19.0909V26.7273H15.2727ZM22.9091 26.7273V30.5455H26.7273V26.7273H22.9091ZM30.5455 26.7273V30.5455H34.3636V26.7273H30.5455ZM7.63636 32.4545V36.2727H11.4545V32.4545H7.63636ZM30.5455 32.4545V36.2727H34.3636V32.4545H30.5455ZM19.0909 36.2727H22.9091V42H19.0909V36.2727Z" fill="black"/>
</svg>
