<svg width="55" height="54" viewBox="0 0 55 54" fill="none" xmlns="http://www.w3.org/2000/svg">
<path d="M18.7331 25.09C18.4749 25.3409 18.2699 25.6395 18.1301 25.9684C17.9902 26.2974 17.9182 26.6502 17.9182 27.0065C17.9182 27.3629 17.9902 27.7157 18.1301 28.0446C18.2699 28.3736 18.4749 28.6721 18.7331 28.9231C19.2492 29.4258 19.9474 29.708 20.6752 29.708C21.403 29.708 22.1012 29.4258 22.6174 28.9231C22.8756 28.6721 23.0805 28.3736 23.2204 28.0446C23.3602 27.7157 23.4323 27.3629 23.4323 27.0065C23.4323 26.6502 23.3602 26.2974 23.2204 25.9684C23.0805 25.6395 22.8756 25.3409 22.6174 25.09C22.1012 24.5872 21.403 24.305 20.6752 24.305C19.9474 24.305 19.2492 24.5872 18.7331 25.09ZM25.5375 31.7844C25.0244 32.2901 24.7364 32.9743 24.7364 33.6874C24.7364 34.4005 25.0244 35.0847 25.5375 35.5904C25.7936 35.8435 26.0983 36.0443 26.434 36.1813C26.7697 36.3184 27.1298 36.3889 27.4934 36.3889C27.8571 36.3889 28.2172 36.3184 28.5529 36.1813C28.8886 36.0443 29.1933 35.8435 29.4493 35.5904C29.9624 35.0847 30.2504 34.4005 30.2504 33.6874C30.2504 32.9743 29.9624 32.2901 29.4493 31.7844C29.1933 31.5314 28.8886 31.3305 28.5529 31.1935C28.2172 31.0565 27.8571 30.9859 27.4934 30.9859C27.1298 30.9859 26.7697 31.0565 26.434 31.1935C26.0983 31.3305 25.7936 31.5314 25.5375 31.7844ZM50.3309 4.79091C47.3343 1.83033 43.2877 0.116325 39.0337 0.00570613C34.7798 -0.104912 30.6461 1.39638 27.4934 4.19705C24.3553 1.42908 20.255 -0.0571738 16.0339 0.0432159C11.8129 0.143606 7.79106 1.82303 4.79364 4.73692C1.81572 7.67877 0.101749 11.6271 0.0043863 15.7696C-0.0929763 19.912 1.43367 23.9335 4.27022 27.0065C2.14948 29.3297 0.757919 32.2031 0.262527 35.282C-0.232865 38.3609 0.188956 41.5145 1.47737 44.3643C2.76579 47.2141 4.86606 49.6391 7.52616 51.3483C10.1863 53.0574 13.2932 53.9782 16.4741 54C20.5519 54.0042 24.4833 52.5115 27.4934 49.816C30.6331 52.5919 34.7392 54.083 38.9669 53.9826C43.1945 53.8822 47.222 52.1978 50.2207 49.2761C53.1949 46.3308 54.9038 42.3805 54.9961 38.2381C55.0883 34.0957 53.5568 30.0762 50.7166 27.0065C53.5568 23.9369 55.0883 19.9173 54.9961 15.7749C54.9038 11.6325 53.1949 7.68228 50.2207 4.73692L50.3309 4.79091ZM46.3089 8.56999C48.2247 10.5011 49.3348 13.064 49.4215 15.7558C49.5081 18.4476 48.565 21.0739 46.7772 23.1195L31.4604 8.1111C33.5662 6.399 36.2383 5.50058 38.9733 5.58511C41.7083 5.66963 44.3173 6.73126 46.3089 8.56999ZM8.67795 45.4431C6.76215 43.512 5.652 40.9491 5.56536 38.2573C5.47872 35.5655 6.42183 32.9391 8.20962 30.8936L23.6367 46.0099C21.5075 47.7322 18.8058 48.6263 16.047 48.5217C13.2881 48.4172 10.665 47.3213 8.67795 45.4431ZM46.3089 45.4431C44.2173 47.4032 41.4345 48.4972 38.5403 48.4972C35.646 48.4972 32.8633 47.4032 30.7717 45.4431L8.73304 23.8483C6.68068 21.8253 5.52871 19.0886 5.52871 16.2361C5.52871 13.3836 6.68068 10.647 8.73304 8.62398C10.7976 6.61295 13.5905 5.48418 16.5017 5.48418C19.4128 5.48418 22.2057 6.61295 24.2703 8.62398L46.3089 30.2187C48.3613 32.2418 49.5132 34.9784 49.5132 37.8309C49.5132 40.6834 48.3613 43.42 46.3089 45.4431ZM32.3695 25.09C32.1113 25.3409 31.9063 25.6395 31.7665 25.9684C31.6266 26.2974 31.5546 26.6502 31.5546 27.0065C31.5546 27.3629 31.6266 27.7157 31.7665 28.0446C31.9063 28.3736 32.1113 28.6721 32.3695 28.9231C32.8856 29.4258 33.5838 29.708 34.3116 29.708C35.0394 29.708 35.7376 29.4258 36.2538 28.9231C36.512 28.6721 36.7169 28.3736 36.8568 28.0446C36.9966 27.7157 37.0686 27.3629 37.0686 27.0065C37.0686 26.6502 36.9966 26.2974 36.8568 25.9684C36.7169 25.6395 36.512 25.3409 36.2538 25.09C35.7376 24.5872 35.0394 24.305 34.3116 24.305C33.5838 24.305 32.8856 24.5872 32.3695 25.09ZM25.5375 18.4226C25.0244 18.9284 24.7364 19.6125 24.7364 20.3256C24.7364 21.0388 25.0244 21.7229 25.5375 22.2287C25.7936 22.4817 26.0983 22.6825 26.434 22.8195C26.7697 22.9566 27.1298 23.0271 27.4934 23.0271C27.8571 23.0271 28.2172 22.9566 28.5529 22.8195C28.8886 22.6825 29.1933 22.4817 29.4493 22.2287C29.9624 21.7229 30.2504 21.0388 30.2504 20.3256C30.2504 19.6125 29.9624 18.9284 29.4493 18.4226C29.1933 18.1696 28.8886 17.9688 28.5529 17.8317C28.2172 17.6947 27.8571 17.6241 27.4934 17.6241C27.1298 17.6241 26.7697 17.6947 26.434 17.8317C26.0983 17.9688 25.7936 18.1696 25.5375 18.4226Z" fill="black"/>
</svg>
