<svg width="61" height="54" viewBox="0 0 61 54" fill="none" xmlns="http://www.w3.org/2000/svg">
<path d="M58 29.0423L55.7092 35.8955M55.7092 35.8955L52.5 45.49H40.125L37.375 35.8955H55.7092ZM42.875 51L42.9025 50.9698M51.125 51L51.1525 50.9698M3 44.1194C3.00005 40.5176 4.01703 36.9886 5.93462 33.9359C7.85221 30.8831 10.593 28.43 13.8435 26.8571C17.094 25.2842 20.7229 24.655 24.3153 25.0414C27.9077 25.4279 31.3185 26.8144 34.1575 29.0423M22.25 24.9303C25.1674 24.9303 27.9653 23.7751 30.0282 21.7187C32.0911 19.6623 33.25 16.8733 33.25 13.9652C33.25 11.057 32.0911 8.26799 30.0282 6.21162C27.9653 4.15525 25.1674 3 22.25 3C19.3326 3 16.5347 4.15525 14.4718 6.21162C12.4089 8.26799 11.25 11.057 11.25 13.9652C11.25 16.8733 12.4089 19.6623 14.4718 21.7187C16.5347 23.7751 19.3326 24.9303 22.25 24.9303Z" stroke="black" stroke-width="5" stroke-linecap="round" stroke-linejoin="round"/>
</svg>
