<svg width="60" height="55" viewBox="0 0 60 55" fill="none" xmlns="http://www.w3.org/2000/svg">
<path d="M46.3563 40.3542L50.9271 43.4C51.3702 43.6956 51.9097 43.8102 52.4348 43.7203C52.9598 43.6304 53.4305 43.3429 53.75 42.9167L60 34.5833L56.6667 32.0833L51.5979 38.8417L46.9896 35.7667C46.5396 35.4661 45.9904 35.3524 45.4581 35.4496C44.9258 35.5468 44.4522 35.8473 44.1375 36.2875L37.5 45.5813V29.1667H33.3333V50C33.3344 51.1047 33.7738 52.1639 34.5549 52.9451C35.3361 53.7262 36.3953 54.1656 37.5 54.1667H58.3333V50H39.4646L46.3563 40.3542ZM0 39.5833H29.1667V43.75H0V39.5833ZM0 50H29.1667V54.1667H0V50ZM18.75 29.1667V18.75H20.8333C23.0426 18.7472 25.1606 17.8684 26.7228 16.3062C28.2851 14.744 29.1639 12.626 29.1667 10.4167V4.16667H22.9167C20.7833 4.17016 18.7334 4.99622 17.1938 6.47292C16.1149 4.5141 14.5306 2.88038 12.6058 1.74194C10.6811 0.603487 8.48625 0.00195621 6.25 0H0V6.25C0.00385961 9.56402 1.32206 12.7412 3.66543 15.0846C6.0088 17.4279 9.18598 18.7461 12.5 18.75H14.5833V29.1667H0V33.3333H29.1667V29.1667H18.75ZM22.9167 8.33333H25V10.4167C24.9989 11.5214 24.5596 12.5806 23.7784 13.3617C22.9972 14.1429 21.9381 14.5822 20.8333 14.5833H18.75V12.5C18.7511 11.3953 19.1904 10.3361 19.9716 9.55494C20.7528 8.77378 21.8119 8.33444 22.9167 8.33333ZM12.5 14.5833C10.2907 14.5806 8.17269 13.7017 6.61049 12.1395C5.04828 10.5773 4.16942 8.45929 4.16667 6.25V4.16667H6.25C8.45929 4.16942 10.5773 5.04828 12.1395 6.61049C13.7017 8.1727 14.5806 10.2907 14.5833 12.5V14.5833H12.5Z" fill="black"/>
</svg>
