<svg id="img-banner-refer-earn" xmlns="http://www.w3.org/2000/svg" width="200" height="161.204" viewBox="0 0 200 161.204">
  <circle id="Ellipse_519" data-name="Ellipse 519" cx="22.691" cy="22.691" r="22.691" transform="translate(33.608 61.814)" fill="#050038"/>
  <path id="Path_2879" data-name="Path 2879" d="M380.84,491.44l5.582,3.459v-23.38l-6.256-3.877a2.427,2.427,0,0,1-1.059-1.41h0a2.427,2.427,0,0,1,1.734.321l5.582,3.459v-9.066a21.451,21.451,0,0,1,.64-5.2,21.452,21.452,0,0,1,.64,5.2v14.8l8.234-5.1a4.035,4.035,0,0,1,2.192-.6,4.035,4.035,0,0,1-1.517,1.693L387.7,477.26v55.291h-1.281V496.406l-6.256-3.877a2.427,2.427,0,0,1-1.059-1.41h0A2.427,2.427,0,0,1,380.84,491.44Z" transform="translate(-330.672 -373.801)" fill="#7a77a7"/>
  <circle id="Ellipse_520" data-name="Ellipse 520" cx="22.691" cy="22.691" r="22.691" transform="translate(0 63.74)" fill="#050038"/>
  <path id="Path_2880" data-name="Path 2880" d="M238.318,499.693l-5.582,3.459v-23.38l6.256-3.877a2.427,2.427,0,0,0,1.059-1.41h0a2.427,2.427,0,0,0-1.734.321l-5.582,3.459V469.2a21.449,21.449,0,0,0-.64-5.2,21.449,21.449,0,0,0-.64,5.2V484l-8.234-5.1a4.035,4.035,0,0,0-2.192-.6,4.036,4.036,0,0,0,1.517,1.693l8.909,5.521V538.99h1.281V504.659l6.256-3.877a2.427,2.427,0,0,0,1.059-1.41h0a2.427,2.427,0,0,0-1.733.321Z" transform="translate(-209.497 -380.128)" fill="#7a77a7"/>
  <circle id="Ellipse_521" data-name="Ellipse 521" cx="39.067" cy="39.067" r="39.067" transform="translate(0.106 0)" fill="#050038"/>
  <path id="Path_2881" data-name="Path 2881" d="M286.906,314.643,277.3,320.6V280.345l10.772-6.675a4.178,4.178,0,0,0,1.823-2.427h0a4.179,4.179,0,0,0-2.985.552l-9.61,5.955V262.141a36.933,36.933,0,0,0-1.1-8.957,36.93,36.93,0,0,0-1.1,8.957v25.477l-14.178-8.785a6.948,6.948,0,0,0-3.774-1.041,6.948,6.948,0,0,0,2.612,2.916l15.339,9.505v87.262h2.2V323.193l10.772-6.675a4.178,4.178,0,0,0,1.823-2.427h0a4.178,4.178,0,0,0-2.985.552Z" transform="translate(-237.177 -218.527)" fill="#7a77a7"/>
  <rect id="Rectangle_125" data-name="Rectangle 125" width="184.419" height="0.467" transform="translate(15.581 158.74)" fill="#3f3d56"/>
  <rect id="Rectangle_126" data-name="Rectangle 126" width="10.569" height="10.569" transform="translate(143.353 75.769) rotate(-30)" fill="#fff"/>
  <path id="Path_2882" data-name="Path 2882" d="M807.3,427.172l-5.518-9.557,9.557-5.518,5.518,9.558Zm-4.88-9.386,5.051,8.749,8.749-5.051-5.051-8.749Z" transform="translate(-654.674 -340.343)" fill="#2f2d51"/>
  <circle id="Ellipse_522" data-name="Ellipse 522" cx="4.435" cy="4.435" r="4.435" transform="translate(139.623 103.641)" fill="#d9d9e5"/>
  <path id="Path_2883" data-name="Path 2883" d="M787.4,557.03a4.669,4.669,0,1,1,4.669-4.669,4.669,4.669,0,0,1-4.669,4.669Zm0-8.871a4.2,4.2,0,1,0,4.2,4.2A4.2,4.2,0,0,0,787.4,548.159Z" transform="translate(-640.077 -444.285)" fill="#2f2d51"/>
  <path id="Path_2884" data-name="Path 2884" d="M761.035,645.159H718.081a1.987,1.987,0,0,1-1.984-1.984V603.257a1.987,1.987,0,0,1,1.984-1.984h42.953a1.986,1.986,0,0,1,1.984,1.984v39.919a1.987,1.987,0,0,1-1.984,1.984Z" transform="translate(-588.995 -485.357)" fill="#3f53d9"/>
  <path id="Path_2885" data-name="Path 2885" d="M803.149,642.667H797.08a1.987,1.987,0,0,1-1.984-1.984V598.177a1.987,1.987,0,0,1,1.984-1.984h6.069a1.986,1.986,0,0,1,1.984,1.984v42.506a1.987,1.987,0,0,1-1.984,1.984Z" transform="translate(-649.552 -481.463)" fill="#050038"/>
  <path id="Path_2886" data-name="Path 2886" d="M922.258,558.788c-.251,4.118-5.813,7.13-5.813,7.13s-5.156-3.665-4.9-7.783,5.814-7.13,5.814-7.13S922.509,554.67,922.258,558.788Z" transform="translate(-738.807 -446.825)" fill="#f5a041"/>
  <path id="Path_2887" data-name="Path 2887" d="M935.091,604.155c-4.119-.238-7.148-5.791-7.148-5.791s3.649-5.167,7.768-4.929,7.148,5.791,7.148,5.791S939.21,604.393,935.091,604.155Z" transform="translate(-751.388 -479.343)" fill="#f5a041"/>
  <path id="Path_2888" data-name="Path 2888" d="M695.2,501.816v15.239l-15.16-20.006h11.546Z" transform="translate(-521.291 -381.017)" opacity="0.1"/>
  <path id="Path_2889" data-name="Path 2889" d="M861.5,572.473a1.982,1.982,0,0,1-1.584-.785l-31.579-41.679a1.984,1.984,0,0,1,.383-2.78l4.652-3.524a1.984,1.984,0,0,1,2.78.383l31.579,41.679a1.984,1.984,0,0,1-.383,2.78l-4.652,3.524a1.974,1.974,0,0,1-1.2.4Z" transform="translate(-674.725 -425.588)" fill="#3f53d9"/>
  <rect id="Rectangle_127" data-name="Rectangle 127" width="10.038" height="10.038" transform="translate(166.134 120.562) rotate(-37.15)" fill="#f5a041"/>
  <rect id="Rectangle_128" data-name="Rectangle 128" width="10.569" height="10.569" transform="translate(130.242 94.218) rotate(-74.991)" fill="#d9d9e5"/>
  <path id="Path_2890" data-name="Path 2890" d="M719.722,482.2l-10.66-2.856,2.856-10.66,10.66,2.856Zm-10.088-3.186,9.758,2.615,2.615-9.758-9.758-2.615Z" transform="translate(-583.603 -383.722)" fill="#2f2d51"/>
  <path id="Path_2891" data-name="Path 2891" d="M529.218,505.9a2.657,2.657,0,0,0-.272-4.065l-4.287-34.556-5.539,1.647,5.98,33.629a2.671,2.671,0,0,0,4.118,3.346Z" transform="translate(-438.001 -382.643)" fill="#fee6c2"/>
  <path id="Path_2892" data-name="Path 2892" d="M412.742,628.459h3.24l1.542-12.495h-4.781Z" transform="translate(-316.391 -472.173)" fill="#fee6c2"/>
  <path id="Path_2893" data-name="Path 2893" d="M0,0H10.181V3.934H3.574A3.574,3.574,0,0,1,0,.36Z" transform="translate(105.838 159.295) rotate(180)" fill="#050038"/>
  <path id="Path_2894" data-name="Path 2894" d="M316.779,609.418l3.036,1.129,5.8-11.174-4.481-1.667Z" transform="translate(-242.83 -458.177)" fill="#fee6c2"/>
  <path id="Path_2895" data-name="Path 2895" d="M0,0H10.181V3.934H3.574A3.574,3.574,0,0,1,0,.36Z" transform="matrix(-0.937, -0.349, 0.349, -0.937, 81.792, 157.368)" fill="#050038"/>
  <circle id="Ellipse_523" data-name="Ellipse 523" cx="6.125" cy="6.125" r="6.125" transform="translate(84.415 63.414)" fill="#fee6c2"/>
  <path id="Path_2896" data-name="Path 2896" d="M490.392,444.481a7.389,7.389,0,0,1,10.727-6.914c.636.337,7.2,5.912,7.446,9.375s.742,9.152.742,9.152l6.925,51.694-14.84-.742,1.792-15.08L493.538,507.3l-11.686-3.718,14.348-41.3S490.682,453.031,490.392,444.481Z" transform="translate(-409.432 -359.221)" fill="#050038"/>
  <path id="Path_2897" data-name="Path 2897" d="M518.93,476.546l.953,12.388a.515.515,0,0,0,.513.475h4.193a.515.515,0,0,0,.476-.713l-5.146-12.388a.515.515,0,0,0-.989.237Z" transform="translate(-437.854 -389.322)" fill="#050038"/>
  <path id="Path_2898" data-name="Path 2898" d="M564.036,499.328a2.657,2.657,0,0,0-.746-4.005l-8.3-33.817-5.308,2.284,9.874,32.7a2.671,2.671,0,0,0,4.481,2.841Z" transform="translate(-461.428 -378.218)" fill="#fee6c2"/>
  <path id="Path_2899" data-name="Path 2899" d="M550.314,445.926s-1.731,3.463,0,9.646,2.968,11.378,2.968,11.378,3.957-2.473,5.689-1.731-2.739-16.483-2.739-16.483S553.529,442.957,550.314,445.926Z" transform="translate(-461.323 -365.625)" fill="#050038"/>
  <path id="Path_2900" data-name="Path 2900" d="M522.59,369.639c.083-1.271,1.686-1.315,2.96-1.327s2.8.033,3.517-1.017a2.374,2.374,0,0,0-.008-2.4,6.825,6.825,0,0,0-1.677-1.867,23.249,23.249,0,0,0-5.311-3.741,8.518,8.518,0,0,0-6.333-.547c-2.514.9-5.913,5.515-6.206,8.169a9.623,9.623,0,0,0,2.554,7.341c1.787,1.983,5.878,1.183,8.453,1.888-1.565-2.215-.534-6.241,1.974-7.275Z" transform="translate(-430.612 -299.144)" fill="#050038"/>
</svg>
