<svg xmlns="http://www.w3.org/2000/svg" width="200" height="115.028" viewBox="0 0 200 115.028">
  <g id="img-banner-connect-us" transform="translate(-0.003)">
    <circle id="Ellipse_479" data-name="Ellipse 479" cx="1.642" cy="1.642" r="1.642" transform="translate(101.602 0)" fill="#e7e7e7"/>
    <circle id="Ellipse_480" data-name="Ellipse 480" cx="1.642" cy="1.642" r="1.642" transform="translate(101.602 6.543)" fill="#e7e7e7"/>
    <circle id="Ellipse_481" data-name="Ellipse 481" cx="1.642" cy="1.642" r="1.642" transform="translate(108.456 0)" fill="#e7e7e7"/>
    <circle id="Ellipse_482" data-name="Ellipse 482" cx="1.642" cy="1.642" r="1.642" transform="translate(108.456 6.543)" fill="#e7e7e7"/>
    <circle id="Ellipse_483" data-name="Ellipse 483" cx="1.642" cy="1.642" r="1.642" transform="translate(115.311 0)" fill="#e7e7e7"/>
    <circle id="Ellipse_484" data-name="Ellipse 484" cx="1.642" cy="1.642" r="1.642" transform="translate(115.311 6.543)" fill="#e7e7e7"/>
    <circle id="Ellipse_485" data-name="Ellipse 485" cx="1.642" cy="1.642" r="1.642" transform="translate(115.311 13.086)" fill="#e7e7e7"/>
    <circle id="Ellipse_486" data-name="Ellipse 486" cx="1.642" cy="1.642" r="1.642" transform="translate(115.311 19.629)" fill="#e7e7e7"/>
    <circle id="Ellipse_487" data-name="Ellipse 487" cx="1.642" cy="1.642" r="1.642" transform="translate(122.165 0)" fill="#e7e7e7"/>
    <circle id="Ellipse_488" data-name="Ellipse 488" cx="1.642" cy="1.642" r="1.642" transform="translate(122.165 6.543)" fill="#e7e7e7"/>
    <circle id="Ellipse_489" data-name="Ellipse 489" cx="1.642" cy="1.642" r="1.642" transform="translate(122.165 13.086)" fill="#e7e7e7"/>
    <circle id="Ellipse_490" data-name="Ellipse 490" cx="1.642" cy="1.642" r="1.642" transform="translate(122.165 19.629)" fill="#e7e7e7"/>
    <circle id="Ellipse_491" data-name="Ellipse 491" cx="1.642" cy="1.642" r="1.642" transform="translate(129.019 0)" fill="#e7e7e7"/>
    <circle id="Ellipse_492" data-name="Ellipse 492" cx="1.642" cy="1.642" r="1.642" transform="translate(129.019 6.543)" fill="#e7e7e7"/>
    <circle id="Ellipse_493" data-name="Ellipse 493" cx="1.642" cy="1.642" r="1.642" transform="translate(135.874 0)" fill="#e7e7e7"/>
    <circle id="Ellipse_494" data-name="Ellipse 494" cx="1.642" cy="1.642" r="1.642" transform="translate(135.874 6.543)" fill="#e7e7e7"/>
    <path id="Path_2636" data-name="Path 2636" d="M868.721,564.7H856.533c0,.35-12.561.635-12.561.635a3.254,3.254,0,0,0-.536.508,3.149,3.149,0,0,0-.736,2.031v.508a3.174,3.174,0,0,0,3.173,3.173h22.848a3.176,3.176,0,0,0,3.173-3.173v-.508a3.178,3.178,0,0,0-3.173-3.173Z" transform="translate(-681.088 -478.07)" fill="#3f3d56"/>
    <rect id="Rectangle_116" data-name="Rectangle 116" width="3.3" height="21.324" transform="translate(174.685 93.361)" fill="#3f3d56"/>
    <path id="Path_2637" data-name="Path 2637" d="M878.536,665.39c0,.357-5,.138-11.17.138s-11.17.219-11.17-.138,5-3.184,11.17-3.184S878.536,665.033,878.536,665.39Z" transform="translate(-691.157 -550.821)" fill="#3f3d56"/>
    <path id="Path_2638" data-name="Path 2638" d="M615.6,404.973h-3.112l-1.481-12H615.6Z" transform="translate(-455.895 -293.208)" fill="#fee6c2"/>
    <path id="Path_2639" data-name="Path 2639" d="M596.975,436.753h6v3.779H593.2a3.779,3.779,0,0,1,3.775-3.779Z" transform="translate(-442.605 -325.878)" fill="#050038"/>
    <path id="Path_2640" data-name="Path 2640" d="M601.234,395.707l-2.969-.932,2.181-11.9,4.383,1.375Z" transform="translate(-446.388 -285.68)" fill="#fee6c2"/>
    <path id="Path_2641" data-name="Path 2641" d="M3.779,0h6V3.779H0A3.779,3.779,0,0,1,3.779,0Z" transform="translate(146.416 106.45) rotate(17.423)" fill="#050038"/>
    <path id="Path_2642" data-name="Path 2642" d="M833.394,543.537a9.615,9.615,0,0,0-.386-1.782l-.581-.731-1.513-1.9h-.066c-.112.005-.576.031-1.295.086h-.008c-.444.036-.988.081-1.6.14-.162.018-.333.033-.508.051v2.65h3.173a.636.636,0,0,1,.63.553c0,.028,0,.053,0,.081a.635.635,0,0,1-.635.635H812.18a7.217,7.217,0,0,0-.675.508,3.778,3.778,0,0,0-1.333,2c-1.076,4.732-3.039,13.556-3.618,16.148a1.152,1.152,0,0,0,.343,1.087,1.126,1.126,0,0,0,.373.231l2.29.858a1.213,1.213,0,0,0,.292.069h.036a.69.69,0,0,0,.071,0,1.151,1.151,0,0,0,1.069-.736l1.807-4.742,2.785-7.311,1.1-2.891c1.277.3,11.99,2.671,15.577-1.15a4.078,4.078,0,0,0,.823-1.3,5.281,5.281,0,0,0,.277-2.559Z" transform="translate(-654.096 -458.986)" fill="#050038"/>
    <path id="Path_2643" data-name="Path 2643" d="M846.2,549.451c-.056-.226-.119-.459-.193-.7l-2.094-2.63h-.066c-.132.008-.759.041-1.721.119-1.092.091-2.617.239-4.331.47-.051.005-.1.013-.155.02-.168.023-.338.046-.508.071v.47H840.3a.636.636,0,0,1,.63.553c0,.028,0,.053,0,.081a.635.635,0,0,1-.635.635H829.093c-.49.16-.962.327-1.414.508-2.371.939-4.146,2.17-4.509,3.772-.122.538-.256,1.13-.4,1.759-.528,2.341-1.17,5.207-1.752,7.811h0c-.119.538-.239,1.061-.353,1.569-.485,2.183-.9,4.034-1.115,5.006-.005.028-.01.053-.015.081v.005a1.185,1.185,0,0,0,.071.581h0a1.124,1.124,0,0,0,.33.454,1.166,1.166,0,0,0,.327.19l2.29.858a1.163,1.163,0,0,0,.4.074,1.126,1.126,0,0,0,.546-.14,1.143,1.143,0,0,0,.523-.6l4.93-12.937.764-2.008c1.277.3,11.99,2.668,15.577-1.15a4.288,4.288,0,0,0,1.137-2.81A7.536,7.536,0,0,0,846.2,549.451Z" transform="translate(-663.798 -464.208)" fill="#050038"/>
    <path id="Path_2644" data-name="Path 2644" d="M886.2,464.913a1.748,1.748,0,0,0-.129-.142,6.212,6.212,0,0,0-5.323-1.876,20.138,20.138,0,0,0-2.516.5,6.342,6.342,0,0,0-2.838,1.592,6.2,6.2,0,0,0-1.881,4.62c.01.348.013.7.008,1.064,0,.168,0,.338-.005.508h2.5a1.346,1.346,0,0,1,.322.038,1.4,1.4,0,0,1,1.074,1.358v11.81c.17.048.34.1.508.147.053.018.1.033.155.048l.173.053q.773.24,1.51.508h.828a.636.636,0,0,1,.63.553c.173.069.34.137.505.206.586.244,1.142.487,1.653.724.688.315,1.3.614,1.813.876a1.165,1.165,0,0,0,.52.127,1.117,1.117,0,0,0,.66-.218,1.344,1.344,0,0,0,.114-.094,1.143,1.143,0,0,0,.348-1.01,32.507,32.507,0,0,1-.228-6.017c.071-1.688.223-3.419.421-5.092.107-.906.226-1.8.35-2.65.119-.817.246-1.6.371-2.343a6.247,6.247,0,0,0-1.543-5.283Z" transform="translate(-704.074 -402.066)" fill="#3f53d9"/>
    <path id="Path_2645" data-name="Path 2645" d="M865.458,471.118a3.011,3.011,0,0,0-.4-.14,2.919,2.919,0,0,0-3.437,1.658l-1.744,4.026-.218.508h6.024a1.35,1.35,0,0,1,.323.038l.2-.47.772-1.782a2.922,2.922,0,0,0-1.52-3.838Z" transform="translate(-693.74 -408.064)" fill="#3f53d9"/>
    <circle id="Ellipse_495" data-name="Ellipse 495" cx="6.235" cy="6.235" r="6.235" transform="translate(170.899 46.376)" fill="#fee6c2"/>
    <path id="Path_2646" data-name="Path 2646" d="M898.846,500.941l-3.559.1-.259,2.5-.058.579-5.575,2.5-.508.228v4.45l.508-.145,1.6-.457H891l7.068-2.013.081-.023a2.762,2.762,0,0,0,2-2.628l.018-2.952.015-2.176Z" transform="translate(-715.549 -430.468)" fill="#fee6c2"/>
    <path id="Path_2647" data-name="Path 2647" d="M915.529,473.509a2.92,2.92,0,1,0-5.829.358l.388,6.336a1.139,1.139,0,0,0,.465.848,1.126,1.126,0,0,0,.746.221l2.721-.167.825-.051a1.113,1.113,0,0,0,.787-.383.792.792,0,0,0,.061-.076,1.135,1.135,0,0,0,.223-.751Z" transform="translate(-731.075 -407.982)" fill="#3f53d9"/>
    <path id="Path_2648" data-name="Path 2648" d="M813.616,507.628h-.328V507.6c-.168.023-.338.046-.508.071v.47h2.346Q814.388,507.869,813.616,507.628Zm0,0h-.328V507.6c-.168.023-.338.046-.508.071v.47h2.346Q814.388,507.869,813.616,507.628Zm2.338,0h-2.666V495.569a1.907,1.907,0,0,0-1.379-1.828,1.791,1.791,0,0,0-.525-.076H788.791a1.906,1.906,0,0,0-1.9,1.9V508a1.9,1.9,0,0,0,1.9,1.9h27.163a1.143,1.143,0,0,0,1.135-1.018.99.99,0,0,0,.008-.124,1.144,1.144,0,0,0-1.143-1.134Zm.635,1.142a.635.635,0,0,1-.635.635H788.791a1.4,1.4,0,0,1-1.4-1.4V495.569a1.4,1.4,0,0,1,1.4-1.4h22.594a1.355,1.355,0,0,1,.322.038,1.4,1.4,0,0,1,1.074,1.358v12.566h3.173a.636.636,0,0,1,.63.553c0,.033,0,.058,0,.086Zm-2.973-1.142h-.328V507.6c-.168.023-.338.046-.508.071v.47h2.346Q814.388,507.869,813.616,507.628Z" transform="translate(-639.443 -425.066)" fill="#e7e7e7"/>
    <circle id="Ellipse_496" data-name="Ellipse 496" cx="1.523" cy="1.523" r="1.523" transform="translate(159.12 75.2)" fill="#050038"/>
    <path id="Path_2649" data-name="Path 2649" d="M879.068,396.471c-1.448,1.294-3.39,2.682-5.163,1.735a2.979,2.979,0,0,1-1.411-3.279c.489-2.323,2.5-3.579,4.442-4.594,2.528-1.319,5.318-2.47,8.149-2.127s5.6,2.682,5.463,5.531c-.108,2.291-1.978,4.428-1.386,6.643s3.3,3.093,5.608,3.207,4.843-.083,6.672,1.325c2.333,1.8,2.3,5.553.635,7.984s-4.465,3.8-7.219,4.839c-3.65,1.378-7.661,2.373-11.428,1.36s-7.065-4.627-6.512-8.489a12.912,12.912,0,0,1,1.92-4.52,11.8,11.8,0,0,0,1.835-4.548,4.444,4.444,0,0,0-1.3-3.752,1.127,1.127,0,0,1-.319-1.286Z" transform="translate(-703.264 -346.333)" fill="#050038"/>
    <path id="Path_2650" data-name="Path 2650" d="M206.389,674.779H402.7a.3.3,0,1,0,0-.6H206.389a.3.3,0,1,0,0,.6Z" transform="translate(-206.086 -559.751)" fill="#050038"/>
    <path id="Path_2651" data-name="Path 2651" d="M246.516,567.876v.508a3.176,3.176,0,0,0,3.173,3.173h22.848a3.175,3.175,0,0,0,3.173-3.173v-.508a3.15,3.15,0,0,0-.736-2.031,3.269,3.269,0,0,0-.536-.508s-12.561-.284-12.561-.635H249.69a3.178,3.178,0,0,0-3.174,3.174Z" transform="translate(-236.253 -478.07)" fill="#3f3d56"/>
    <rect id="Rectangle_117" data-name="Rectangle 117" width="3.3" height="21.324" transform="translate(26.385 114.685) rotate(180)" fill="#3f3d56"/>
    <path id="Path_2652" data-name="Path 2652" d="M260.021,665.39c0,.357,5,.138,11.17.138s11.17.219,11.17-.138-5-3.184-11.17-3.184S260.021,665.033,260.021,665.39Z" transform="translate(-246.329 -550.821)" fill="#3f3d56"/>
    <path id="Path_2653" data-name="Path 2653" d="M163.529,405.735h3.112l1.481-12h-4.593Z" transform="translate(-122.014 -293.777)" fill="#fee6c2"/>
    <path id="Path_2654" data-name="Path 2654" d="M0,0H9.782V3.779h-6A3.779,3.779,0,0,1,0,0Z" transform="translate(50.628 114.848) rotate(179.997)" fill="#050038"/>
    <path id="Path_2655" data-name="Path 2655" d="M172.1,396.469l2.969-.932-2.181-11.9-4.383,1.375Z" transform="translate(-125.731 -286.248)" fill="#fee6c2"/>
    <path id="Path_2656" data-name="Path 2656" d="M0,0H9.782V3.779h-6A3.779,3.779,0,0,1,0,0Z" transform="translate(55.934 110.25) rotate(162.577)" fill="#050038"/>
    <path id="Path_2657" data-name="Path 2657" d="M314.674,564.247,308.981,549.3c-1.277.3-11.989,2.67-15.577-1.15-1.229-1.309-1.469-3.206-.713-5.638l2.094-2.631h.065c.792.042,19.4,1.085,20.68,6.7,1.076,4.733,3.04,13.558,3.617,16.15a1.146,1.146,0,0,1-.714,1.316l-2.29.858a1.133,1.133,0,0,1-.4.073,1.146,1.146,0,0,1-1.07-.735Z" transform="translate(-270.384 -459.551)" fill="#050038"/>
    <path id="Path_2658" data-name="Path 2658" d="M301.674,571.247,295.981,556.3c-1.277.3-11.989,2.67-15.577-1.15-1.229-1.309-1.469-3.206-.713-5.638l2.094-2.631h.065c.792.042,19.4,1.085,20.68,6.7,1.076,4.733,3.04,13.558,3.617,16.15a1.146,1.146,0,0,1-.714,1.316l-2.29.859a1.129,1.129,0,0,1-.4.073,1.145,1.145,0,0,1-1.07-.735Z" transform="translate(-260.684 -464.774)" fill="#050038"/>
    <path id="Path_2659" data-name="Path 2659" d="M329.765,505.089a4.873,4.873,0,0,1-4.185-2.379l-1.808-3.063,4.3-2.349,1.825,2.5,12.382-1.3a2.69,2.69,0,0,1,.2-.313h0a2.8,2.8,0,0,1,2-1.1,2.765,2.765,0,0,1,2.156.765,2.793,2.793,0,0,1-3.618,4.243,2.613,2.613,0,0,1-.209-.178l-11.859,3.024a4.776,4.776,0,0,1-1.184.15Z" transform="translate(-293.896 -427.611)" fill="#fee6c2"/>
    <path id="Path_2660" data-name="Path 2660" d="M276.34,488.175a1.144,1.144,0,0,1-.462-1.1c.706-4.657-.106-11.327-.913-16.1a6.3,6.3,0,0,1,7-7.3,20.261,20.261,0,0,1,2.516.5h0a6.244,6.244,0,0,1,4.717,6.211A69.987,69.987,0,0,0,290.421,483a1.147,1.147,0,0,1-.212.891,1.115,1.115,0,0,1-.786.444c-4.521.461-9.4,2.666-11.9,3.939a1.142,1.142,0,0,1-.52.127A1.124,1.124,0,0,1,276.34,488.175Z" transform="translate(-257.413 -402.646)" fill="#3f53d9"/>
    <path id="Path_2661" data-name="Path 2661" d="M318.748,482.147a1.135,1.135,0,0,1-.628-.609l-2.521-5.824a2.919,2.919,0,1,1,5.358-2.319l2.521,5.824a1.144,1.144,0,0,1-.6,1.5l-3.262,1.412a1.134,1.134,0,0,1-.874.014Z" transform="translate(-287.618 -408.628)" fill="#3f53d9"/>
    <circle id="Ellipse_497" data-name="Ellipse 497" cx="6.235" cy="6.235" r="6.235" transform="translate(17.85 46.569)" fill="#fee6c2"/>
    <path id="Path_2662" data-name="Path 2662" d="M270.493,411.2a1.009,1.009,0,0,1-1.445.083,11.278,11.278,0,0,1-3.217-4.2,7.483,7.483,0,0,1-.007-6.1,8.42,8.42,0,0,1,3.577-3.3,5.837,5.837,0,0,1,1.738-.735,2.283,2.283,0,0,1,1.816.357,1.915,1.915,0,0,1,.731,1.835,5.675,5.675,0,0,1,2.488-1.868,2.885,2.885,0,0,1,1.918-.128,3.51,3.51,0,0,1,1.932,2.18,4.86,4.86,0,0,1,.319,2.352,2.825,2.825,0,0,1-1.084,1.947,3.051,3.051,0,0,1-2.527.23,19.8,19.8,0,0,0-2.544-.708,2.4,2.4,0,0,0-2.342.9,4.34,4.34,0,0,0-.523,1.944l-.386,3.554a4.707,4.707,0,0,1-.324,1.482.819.819,0,0,1-.12.183Z" transform="translate(-250.176 -352.857)" fill="#050038"/>
    <path id="Path_2663" data-name="Path 2663" d="M342.006,561.123H331.884a1.078,1.078,0,0,1-.852-.413,1.1,1.1,0,0,1-.2-.94,25.977,25.977,0,0,0,0-12.065,1.1,1.1,0,0,1,.2-.94,1.078,1.078,0,0,1,.852-.413h10.122a1.092,1.092,0,0,1,1.076.915,42.524,42.524,0,0,1,0,12.941,1.092,1.092,0,0,1-1.076.915Z" transform="translate(-299.137 -464.377)" fill="#abb2e7"/>
    <path id="Path_2664" data-name="Path 2664" d="M344.352,564.915v-.3a.762.762,0,0,1,.762-.762h5.312a.763.763,0,0,1,.762.762v.3a.762.762,0,0,1-.762.762h-5.312A.762.762,0,0,1,344.352,564.915Z" transform="translate(-309.251 -477.438)" fill="#fff"/>
    <path id="Path_2665" data-name="Path 2665" d="M344.352,577.26v-.3a.762.762,0,0,1,.762-.762h5.312a.762.762,0,0,1,.762.762v.3a.762.762,0,0,1-.762.762h-5.312A.762.762,0,0,1,344.352,577.26Z" transform="translate(-309.251 -486.649)" fill="#fff"/>
    <path id="Path_2666" data-name="Path 2666" d="M356.508,489.39a1.115,1.115,0,0,1-.208-.956,26.4,26.4,0,0,0,0-12.263,1.115,1.115,0,0,1,.208-.956,1.1,1.1,0,0,1,.866-.419h10.288a1.11,1.11,0,0,1,1.093.93,43.215,43.215,0,0,1,0,13.153,1.11,1.11,0,0,1-1.093.93H357.374a1.1,1.1,0,0,1-.866-.419Z" transform="translate(-318.142 -410.986)" fill="#f5a040"/>
    <path id="Path_2667" data-name="Path 2667" d="M375.163,491.189h-5.42a.762.762,0,0,1-.762-.762V490.1a.762.762,0,0,1,.762-.762h5.42a.762.762,0,0,1,.762.762v.323a.762.762,0,0,1-.762.766Z" transform="translate(-327.629 -421.841)" fill="#fff"/>
    <path id="Path_2668" data-name="Path 2668" d="M375.163,503.737h-5.42a.762.762,0,0,1-.762-.762v-.323a.762.762,0,0,1,.762-.762h5.42a.762.762,0,0,1,.762.762v.323a.762.762,0,0,1-.762.762Z" transform="translate(-327.629 -431.203)" fill="#fff"/>
    <path id="Path_2669" data-name="Path 2669" d="M288.476,515.026a2.8,2.8,0,0,1-1.659-1.563,2.6,2.6,0,0,1-.091-.259l-13.283-3.781a2.762,2.762,0,0,1-2-2.626l-.032-5.128,4.9.131.319,3.08,11.358,5.1a2.687,2.687,0,0,1,.333-.169h0a2.8,2.8,0,1,1,.155,5.215Z" transform="translate(-254.831 -431.038)" fill="#fee6c2"/>
    <path id="Path_2670" data-name="Path 2670" d="M270.873,481.435a1.135,1.135,0,0,1-.284-.827l.389-6.335a2.92,2.92,0,0,1,5.828.359l-.389,6.335a1.144,1.144,0,0,1-1.21,1.07l-3.547-.218a1.135,1.135,0,0,1-.786-.383Z" transform="translate(-254.212 -408.553)" fill="#3f53d9"/>
    <path id="Path_2671" data-name="Path 2671" d="M428.71,296.671H407.893a2.287,2.287,0,0,1-2.285-2.285V271.793a2.287,2.287,0,0,1,2.285-2.285H428.71a2.287,2.287,0,0,1,2.285,2.285v22.594a2.287,2.287,0,0,1-2.285,2.285Zm-20.817-26.656a1.779,1.779,0,0,0-1.777,1.777v22.594a1.779,1.779,0,0,0,1.777,1.777H428.71a1.779,1.779,0,0,0,1.777-1.777V271.793a1.779,1.779,0,0,0-1.777-1.777Z" transform="translate(-354.957 -257.814)" fill="#e7e7e7"/>
    <path id="Path_2672" data-name="Path 2672" d="M578.71,296.671H557.893a2.287,2.287,0,0,1-2.285-2.285V271.793a2.287,2.287,0,0,1,2.285-2.285H578.71a2.287,2.287,0,0,1,2.285,2.285v22.594a2.287,2.287,0,0,1-2.285,2.285Zm-20.817-26.656a1.779,1.779,0,0,0-1.777,1.777v22.594a1.779,1.779,0,0,0,1.777,1.777H578.71a1.779,1.779,0,0,0,1.777-1.777V271.793a1.779,1.779,0,0,0-1.777-1.777Z" transform="translate(-466.878 -257.814)" fill="#e7e7e7"/>
    <path id="Path_2673" data-name="Path 2673" d="M421.8,293.824h-2.031a1.144,1.144,0,0,1-1.142-1.142V290.65a1.144,1.144,0,0,1,1.142-1.142H421.8a1.144,1.144,0,0,1,1.142,1.142v2.031a1.144,1.144,0,0,1-1.142,1.143Z" transform="translate(-364.668 -272.737)" fill="#f5a040"/>
    <path id="Path_2674" data-name="Path 2674" d="M421.8,318.824h-2.031a1.144,1.144,0,0,1-1.142-1.142V315.65a1.144,1.144,0,0,1,1.142-1.142H421.8a1.144,1.144,0,0,1,1.142,1.142v2.031a1.144,1.144,0,0,1-1.142,1.143Z" transform="translate(-364.668 -291.39)" fill="#e7e7e7"/>
    <path id="Path_2675" data-name="Path 2675" d="M459.487,296.218h-9.482a.762.762,0,0,1-.762-.762v-.323a.762.762,0,0,1,.762-.762h9.482a.762.762,0,0,1,.762.762v.323a.762.762,0,0,1-.762.762Z" transform="translate(-387.515 -276.365)" fill="#f5a040"/>
    <path id="Path_2676" data-name="Path 2676" d="M572.486,292.255h-2.031a1.144,1.144,0,0,1-1.142-1.142v-2.031a1.144,1.144,0,0,1,1.142-1.142h2.031a1.144,1.144,0,0,1,1.142,1.142v2.031a1.144,1.144,0,0,1-1.142,1.142Z" transform="translate(-477.103 -271.566)" fill="#e7e7e7"/>
    <path id="Path_2677" data-name="Path 2677" d="M610.177,294.649H600.7a.762.762,0,0,1-.762-.762v-.323a.763.763,0,0,1,.762-.762h9.482a.762.762,0,0,1,.762.762v.323a.762.762,0,0,1-.767.762Z" transform="translate(-499.951 -275.195)" fill="#e7e7e7"/>
    <path id="Path_2678" data-name="Path 2678" d="M586.3,318.649H568.7a.763.763,0,0,1-.762-.762v-.323a.763.763,0,0,1,.762-.762h17.6a.762.762,0,0,1,.762.762v.323A.762.762,0,0,1,586.3,318.649Z" transform="translate(-476.074 -293.102)" fill="#f5a040"/>
    <path id="Path_2679" data-name="Path 2679" d="M586.3,335.649H568.7a.762.762,0,0,1-.762-.762v-.323a.763.763,0,0,1,.762-.762h17.6a.762.762,0,0,1,.762.762v.323a.762.762,0,0,1-.762.762Z" transform="translate(-476.074 -305.787)" fill="#e7e7e7"/>
    <path id="Path_2680" data-name="Path 2680" d="M586.3,352.649H568.7a.763.763,0,0,1-.762-.762v-.323a.763.763,0,0,1,.762-.762h17.6a.762.762,0,0,1,.762.762v.323A.762.762,0,0,1,586.3,352.649Z" transform="translate(-476.074 -318.471)" fill="#e7e7e7"/>
    <path id="Path_2681" data-name="Path 2681" d="M728.71,296.671H707.893a2.287,2.287,0,0,1-2.285-2.285V271.793a2.287,2.287,0,0,1,2.285-2.285H728.71A2.287,2.287,0,0,1,731,271.793v22.594a2.287,2.287,0,0,1-2.285,2.285Zm-20.817-26.656a1.779,1.779,0,0,0-1.777,1.777v22.594a1.779,1.779,0,0,0,1.777,1.777H728.71a1.779,1.779,0,0,0,1.777-1.777V271.793a1.779,1.779,0,0,0-1.777-1.777Z" transform="translate(-578.798 -257.814)" fill="#e7e7e7"/>
    <path id="Path_2682" data-name="Path 2682" d="M760.177,294.649H750.7a.762.762,0,0,1-.762-.762v-.323a.762.762,0,0,1,.762-.762h9.482a.762.762,0,0,1,.762.762v.323a.762.762,0,0,1-.762.762Z" transform="translate(-611.871 -275.195)" fill="#e7e7e7"/>
    <path id="Path_2683" data-name="Path 2683" d="M736.3,318.649H718.7a.762.762,0,0,1-.762-.762v-.323a.762.762,0,0,1,.762-.762h17.6a.762.762,0,0,1,.762.762v.323A.762.762,0,0,1,736.3,318.649Z" transform="translate(-587.995 -293.102)" fill="#e7e7e7"/>
    <path id="Path_2684" data-name="Path 2684" d="M736.3,335.649H718.7a.762.762,0,0,1-.762-.762v-.323a.762.762,0,0,1,.762-.762h17.6a.762.762,0,0,1,.762.762v.323a.762.762,0,0,1-.762.762Z" transform="translate(-587.995 -305.787)" fill="#e7e7e7"/>
    <path id="Path_2685" data-name="Path 2685" d="M736.3,352.649H718.7a.762.762,0,0,1-.762-.762v-.323a.762.762,0,0,1,.762-.762h17.6a.762.762,0,0,1,.762.762v.323A.763.763,0,0,1,736.3,352.649Z" transform="translate(-587.995 -318.471)" fill="#e7e7e7"/>
    <path id="Path_2686" data-name="Path 2686" d="M459.487,321.217h-9.482a.762.762,0,0,1-.762-.762v-.323a.762.762,0,0,1,.762-.762h9.482a.762.762,0,0,1,.762.762v.323a.762.762,0,0,1-.762.762Z" transform="translate(-387.515 -295.019)" fill="#e7e7e7"/>
    <path id="Path_2687" data-name="Path 2687" d="M421.8,343.824h-2.031a1.144,1.144,0,0,1-1.142-1.142V340.65a1.144,1.144,0,0,1,1.142-1.142H421.8a1.144,1.144,0,0,1,1.142,1.142v2.031a1.144,1.144,0,0,1-1.142,1.143Z" transform="translate(-364.668 -310.044)" fill="#e7e7e7"/>
    <path id="Path_2688" data-name="Path 2688" d="M459.487,346.217h-9.482a.762.762,0,0,1-.762-.762v-.323a.762.762,0,0,1,.762-.762h9.482a.762.762,0,0,1,.762.762v.323a.762.762,0,0,1-.762.762Z" transform="translate(-387.515 -313.672)" fill="#e7e7e7"/>
    <path id="Path_2689" data-name="Path 2689" d="M729.892,288.742v-.017a2.285,2.285,0,0,0-2.285-2.285v2.3Z" transform="translate(-595.213 -270.447)" fill="#f5a040"/>
    <path id="Path_2690" data-name="Path 2690" d="M719.891,289.742v-2.3a2.285,2.285,0,1,0,2.284,2.3Z" transform="translate(-587.75 -271.193)" fill="#e7e7e7"/>
  </g>
</svg>
