<svg width="14" height="14" viewBox="0 0 14 14" fill="none" xmlns="http://www.w3.org/2000/svg">
<path id="Vector" d="M6.9155 0.505056L7 0.5C7.1769 0.500023 7.34763 0.564968 7.47982 0.682517C7.61202 0.800065 7.69647 0.962041 7.71717 1.13772L7.72222 1.22222V6.27778H12.7778C12.9547 6.2778 13.1254 6.34275 13.2576 6.46029C13.3898 6.57784 13.4742 6.73982 13.4949 6.9155L13.5 7C13.5 7.1769 13.435 7.34763 13.3175 7.47982C13.1999 7.61202 13.038 7.69647 12.8623 7.71717L12.7778 7.72222H7.72222V12.7778C7.7222 12.9547 7.65725 13.1254 7.53971 13.2576C7.42216 13.3898 7.26018 13.4742 7.0845 13.4949L7 13.5C6.8231 13.5 6.65237 13.435 6.52018 13.3175C6.38798 13.1999 6.30353 13.038 6.28283 12.8623L6.27778 12.7778V7.72222H1.22222C1.04533 7.7222 0.87459 7.65725 0.742398 7.53971C0.610206 7.42216 0.525752 7.26018 0.505056 7.0845L0.5 7C0.500023 6.8231 0.564968 6.65237 0.682517 6.52018C0.800065 6.38798 0.962041 6.30353 1.13772 6.28283L1.22222 6.27778H6.27778V1.22222C6.2778 1.04533 6.34275 0.87459 6.46029 0.742398C6.57784 0.610206 6.73982 0.525752 6.9155 0.505056Z" fill="black"/>
</svg>
