<svg width="52" height="55" viewBox="0 0 52 55" fill="none" xmlns="http://www.w3.org/2000/svg">
<path d="M27.6572 20.0943L37.1492 5.21429C37.8283 4.15006 38.8999 3.3968 40.1312 3.11818C41.3625 2.83956 42.6541 3.05809 43.7252 3.72629C46.0012 5.14629 46.6692 8.15429 45.2052 10.4063L38.9052 20.0903M18.7852 36.0983H32.7812M25.7812 29.1063V43.0943M3.90917 32.5063L3.02517 24.6263C2.96213 24.067 3.01784 23.5007 3.18865 22.9644C3.35947 22.4281 3.64154 21.9338 4.01644 21.514C4.39134 21.0942 4.85062 20.7582 5.36425 20.528C5.87789 20.2979 6.43432 20.1787 6.99717 20.1783H44.5652C45.128 20.1787 45.6844 20.2979 46.1981 20.528C46.7117 20.7582 47.171 21.0942 47.5459 21.514C47.9208 21.9338 48.2029 22.4281 48.3737 22.9644C48.5445 23.5007 48.6002 24.067 48.5372 24.6263L47.6532 32.5063C47.3746 34.9892 46.5182 37.3723 45.1526 39.4646C43.7869 41.5568 41.95 43.3 39.7892 44.5543C40.4692 45.7743 40.9412 47.1343 41.1612 48.5863C41.2244 49.0118 41.1952 49.4459 41.0755 49.859C40.9558 50.2722 40.7484 50.6547 40.4674 50.9804C40.1865 51.3061 39.8386 51.5675 39.4475 51.7466C39.0564 51.9257 38.6313 52.0184 38.2012 52.0183H13.3612C12.931 52.0184 12.5059 51.9257 12.1148 51.7466C11.7237 51.5675 11.3759 51.3061 11.0949 50.9804C10.814 50.6547 10.6066 50.2722 10.4869 49.859C10.3671 49.4459 10.3379 49.0118 10.4012 48.5863C10.6212 47.1343 11.0932 45.7743 11.7692 44.5543C9.60907 43.2995 7.77297 41.5562 6.40802 39.464C5.04308 37.3717 4.18726 34.9889 3.90917 32.5063Z" stroke="black" stroke-width="5" stroke-linecap="round" stroke-linejoin="round"/>
</svg>
