<svg width="57" height="57" viewBox="0 0 57 57" fill="none" xmlns="http://www.w3.org/2000/svg">
<path d="M17.7632 33.7572L17.566 31.2649L10.2639 31.8426L16.3955 35.8499L17.7632 33.7572ZM32.9478 18.1622L35.0729 16.8454L31.029 10.3188L30.4548 17.9752L32.9478 18.1622ZM43.3518 34.9536L41.2266 36.2703L41.2272 36.2712L43.3518 34.9536ZM34.1127 44.4423L35.4813 42.3502L35.4804 42.3496L34.1127 44.4423ZM3.43267 30.8304C2.46946 31.8197 2.49056 33.4024 3.4798 34.3657C4.46904 35.3289 6.05182 35.3078 7.01502 34.3185L3.43267 30.8304ZM33.5874 7.02799C34.5506 6.03875 34.5295 4.45598 33.5402 3.49277C32.551 2.52956 30.9682 2.55067 30.005 3.53991L33.5874 7.02799ZM45.0543 41.2289C44.0911 40.2397 42.5084 40.2186 41.5191 41.1818C40.5299 42.145 40.5088 43.7278 41.472 44.717L45.0543 41.2289ZM54 54V56.5C55.0051 56.5 55.9125 55.8981 56.3033 54.9721C56.6941 54.0461 56.4923 52.9761 55.7912 52.256L54 54ZM41.9211 51.5C40.5403 51.5 39.4211 52.6193 39.4211 54C39.4211 55.3807 40.5403 56.5 41.9211 56.5V51.5ZM17.7632 33.7572C17.9603 36.2494 17.9611 36.2493 17.962 36.2492C17.9623 36.2492 17.9632 36.2491 17.9638 36.2491C17.965 36.249 17.9664 36.2489 17.9678 36.2488C17.9707 36.2485 17.974 36.2483 17.9776 36.2479C17.9849 36.2473 17.9937 36.2466 18.004 36.2456C18.0246 36.2438 18.0512 36.2413 18.0834 36.2381C18.1479 36.2316 18.2354 36.2221 18.3436 36.2087C18.5601 36.1819 18.8609 36.1394 19.2298 36.074C19.9657 35.9437 20.9837 35.7203 22.1493 35.344C24.4583 34.5985 27.4787 33.2097 29.9932 30.6272L26.4109 27.1392C24.6548 28.9427 22.4558 29.9909 20.613 30.5859C19.7027 30.8798 18.9117 31.0525 18.3576 31.1507C18.0815 31.1996 17.8671 31.2295 17.7295 31.2465C17.6607 31.2551 17.6115 31.2603 17.5835 31.2631C17.5696 31.2645 17.561 31.2653 17.558 31.2656C17.5564 31.2657 17.5564 31.2657 17.5577 31.2656C17.5584 31.2656 17.5594 31.2655 17.5608 31.2654C17.5615 31.2653 17.5622 31.2652 17.5631 31.2652C17.5636 31.2651 17.5643 31.2651 17.5645 31.2651C17.5652 31.265 17.566 31.2649 17.7632 33.7572ZM29.9932 30.6272C32.5036 28.049 33.8472 24.9608 34.5669 22.6097C34.9307 21.421 35.1465 20.3835 35.2723 19.6347C35.3353 19.2592 35.3762 18.9535 35.402 18.7343C35.4148 18.6246 35.4239 18.5363 35.4301 18.4715C35.4332 18.4391 35.4356 18.4125 35.4373 18.392C35.4382 18.3818 35.4389 18.3731 35.4394 18.3659C35.4397 18.3623 35.44 18.3591 35.4402 18.3563C35.4403 18.3549 35.4404 18.3536 35.4405 18.3524C35.4405 18.3518 35.4406 18.351 35.4406 18.3507C35.4407 18.3499 35.4408 18.3491 32.9478 18.1622C30.4548 17.9752 30.4548 17.9745 30.4549 17.9738C30.4549 17.9736 30.4549 17.9729 30.455 17.9725C30.455 17.9717 30.4551 17.9709 30.4551 17.9703C30.4552 17.969 30.4553 17.9682 30.4553 17.9676C30.4554 17.9666 30.4554 17.9671 30.4552 17.9689C30.4549 17.9727 30.4541 17.9822 30.4526 17.9973C30.4498 18.0274 30.4445 18.0795 30.436 18.1516C30.4191 18.2959 30.3895 18.5194 30.3413 18.8064C30.2446 19.3825 30.0746 20.2029 29.7859 21.1462C29.2003 23.0591 28.1711 25.3314 26.4109 27.1392L29.9932 30.6272ZM30.8226 19.4789L41.2266 36.2703L45.4769 33.6368L35.0729 16.8454L30.8226 19.4789ZM41.2272 36.2712C41.7499 37.1141 41.9811 38.1229 41.8737 39.129L46.8455 39.6594C47.0699 37.5558 46.59 35.4317 45.4763 33.6359L41.2272 36.2712ZM41.8737 39.129C41.7664 40.1349 41.3291 41.0622 40.6483 41.7614L44.2307 45.2495C45.7037 43.7366 46.6211 41.7633 46.8455 39.6594L41.8737 39.129ZM40.6483 41.7614C39.9687 42.4593 39.0884 42.8883 38.157 42.9931L38.716 47.9618C40.8125 47.7259 42.7564 46.7636 44.2307 45.2495L40.6483 41.7614ZM38.157 42.9931C37.226 43.0979 36.2829 42.8746 35.4813 42.3502L32.7441 46.5345C34.5116 47.6907 36.619 48.1977 38.716 47.9618L38.157 42.9931ZM35.4804 42.3496L19.1309 31.6644L16.3955 35.8499L32.745 46.5351L35.4804 42.3496ZM30.0263 18.1622C30.0263 25.2186 24.4735 30.8243 17.7632 30.8243V35.8243C27.3598 35.8243 35.0263 27.8535 35.0263 18.1622H30.0263ZM17.7632 30.8243C11.0528 30.8243 5.5 25.2186 5.5 18.1622H0.5C0.5 27.8535 8.16655 35.8243 17.7632 35.8243V30.8243ZM5.5 18.1622C5.5 11.1058 11.0528 5.5 17.7632 5.5V0.5C8.16655 0.5 0.5 8.47089 0.5 18.1622H5.5ZM17.7632 5.5C24.4735 5.5 30.0263 11.1058 30.0263 18.1622H35.0263C35.0263 8.47089 27.3598 0.5 17.7632 0.5V5.5ZM7.01502 34.3185L33.5874 7.02799L30.005 3.53991L3.43267 30.8304L7.01502 34.3185ZM41.472 44.717L52.2088 55.744L55.7912 52.256L45.0543 41.2289L41.472 44.717ZM54 51.5H41.9211V56.5H54V51.5Z" fill="black"/>
</svg>
