<svg width="60" height="56" viewBox="0 0 60 56" fill="none" xmlns="http://www.w3.org/2000/svg">
<path d="M26 36H14C12.4087 36 10.8826 36.6321 9.75736 37.7574C8.63214 38.8826 8 40.4087 8 42V46H12V42C12 41.4696 12.2107 40.9609 12.5858 40.5858C12.9609 40.2107 13.4696 40 14 40H26C26.5304 40 27.0391 40.2107 27.4142 40.5858C27.7893 40.9609 28 41.4696 28 42V46H32V42C32 40.4087 31.3679 38.8826 30.2426 37.7574C29.1174 36.6321 27.5913 36 26 36ZM20 34C21.5823 34 23.129 33.5308 24.4446 32.6518C25.7602 31.7727 26.7855 30.5233 27.391 29.0615C27.9965 27.5997 28.155 25.9911 27.8463 24.4393C27.5376 22.8874 26.7757 21.462 25.6569 20.3432C24.538 19.2243 23.1126 18.4624 21.5607 18.1537C20.0089 17.845 18.4003 18.0035 16.9385 18.609C15.4767 19.2145 14.2273 20.2399 13.3482 21.5554C12.4692 22.871 12 24.4178 12 26C12 28.1217 12.8429 30.1566 14.3431 31.6569C15.8434 33.1572 17.8783 34 20 34ZM20 22C20.7911 22 21.5645 22.2346 22.2223 22.6741C22.8801 23.1137 23.3928 23.7384 23.6955 24.4693C23.9983 25.2002 24.0775 26.0044 23.9231 26.7804C23.7688 27.5563 23.3878 28.269 22.8284 28.8284C22.269 29.3878 21.5563 29.7688 20.7804 29.9231C20.0044 30.0775 19.2002 29.9983 18.4693 29.6955C17.7384 29.3928 17.1136 28.8801 16.6741 28.2223C16.2346 27.5645 16 26.7911 16 26C16 24.9391 16.4214 23.9217 17.1716 23.1716C17.9217 22.4214 18.9391 22 20 22Z" fill="black"/>
<path d="M52 34V52H4V12H28V8H4C2.93913 8 1.92172 8.42143 1.17157 9.17157C0.421427 9.92172 0 10.9391 0 12V52C0 53.0609 0.421427 54.0783 1.17157 54.8284C1.92172 55.5786 2.93913 56 4 56H52C53.0609 56 54.0783 55.5786 54.8284 54.8284C55.5786 54.0783 56 53.0609 56 52V34H52Z" fill="black"/>
<path d="M36 34H48V38H36V34ZM40 42H48V46H40V42ZM60 16V12H55.798C55.5401 10.748 55.043 9.55762 54.334 8.494L57.314 5.514L54.486 2.686L51.506 5.666C50.4424 4.95702 49.252 4.45994 48 4.202V0H44V4.202C42.748 4.45994 41.5576 4.95702 40.494 5.666L37.514 2.686L34.686 5.514L37.666 8.494C36.957 9.55762 36.4599 10.748 36.202 12H32V16H36.202C36.4599 17.252 36.957 18.4424 37.666 19.506L34.686 22.486L37.514 25.314L40.494 22.334C41.5576 23.043 42.748 23.5401 44 23.798V28H48V23.798C49.252 23.5401 50.4424 23.043 51.506 22.334L54.486 25.314L57.314 22.486L54.334 19.506C55.043 18.4424 55.5401 17.252 55.798 16H60ZM46 20C44.8133 20 43.6533 19.6481 42.6666 18.9888C41.6799 18.3295 40.9109 17.3925 40.4567 16.2961C40.0026 15.1997 39.8838 13.9933 40.1153 12.8295C40.3468 11.6656 40.9182 10.5965 41.7574 9.75736C42.5965 8.91824 43.6656 8.3468 44.8295 8.11529C45.9933 7.88378 47.1997 8.0026 48.2961 8.45672C49.3925 8.91085 50.3295 9.67988 50.9888 10.6666C51.6481 11.6533 52 12.8133 52 14C51.9984 15.5908 51.3658 17.116 50.2409 18.2409C49.116 19.3658 47.5908 19.9984 46 20Z" fill="black"/>
</svg>
