<svg width="54" height="54" viewBox="0 0 54 54" fill="none" xmlns="http://www.w3.org/2000/svg">
<path d="M23.5104 17C20.9683 18.9264 18.5632 21.0273 16.3125 23.2873C5.70581 33.893 0.335333 45.7106 4.31097 49.6896C8.28662 53.6648 20.1091 48.2912 30.7121 37.6892C32.9725 35.4376 35.0735 33.0315 37 30.4883" stroke="black" stroke-width="5" stroke-linecap="round" stroke-linejoin="round"/>
<path d="M36.9783 30.5004C43.2293 38.7972 45.7752 46.6021 42.6888 49.6883C38.7116 53.6652 26.8991 48.2943 16.298 37.6977C5.70445 27.0937 0.336833 15.2858 4.31036 11.3088C7.39674 8.22636 15.2021 10.7721 23.4996 17.0189" stroke="black" stroke-width="5" stroke-linecap="round" stroke-linejoin="round"/>
<path d="M22 30.171C22 30.656 22.192 31.1213 22.5339 31.4643C22.8757 31.8073 23.3393 32 23.8228 32C24.3062 32 24.7698 31.8073 25.1116 31.4643C25.4535 31.1213 25.6455 30.656 25.6455 30.171C25.6455 29.6859 25.4535 29.2206 25.1116 28.8776C24.7698 28.5346 24.3062 28.3419 23.8228 28.3419C23.3393 28.3419 22.8757 28.5346 22.5339 28.8776C22.192 29.2206 22 29.6859 22 30.171ZM31.1502 14.2436C30.0019 14.0424 30.0019 12.3926 31.1502 12.1951C33.1784 11.8411 35.0555 10.889 36.5423 9.46024C38.0291 8.0315 39.0582 6.19082 39.4984 4.17289L39.564 3.85464C39.8119 2.72063 41.4233 2.71331 41.6784 3.84366L41.7659 4.21313C42.2226 6.22213 43.2608 8.05091 44.75 9.46974C46.2391 10.8886 48.113 11.8342 50.136 12.1878C51.288 12.389 51.288 14.0497 50.136 14.2473C48.113 14.6009 46.2391 15.5465 44.75 16.9653C43.2608 18.3841 42.2226 20.2129 41.7659 22.2219L41.6784 22.5914C41.4233 23.7254 39.8119 23.7181 39.564 22.5841L39.4911 22.2658C39.0509 20.2479 38.0218 18.4072 36.535 16.9785C35.0482 15.5497 33.1711 14.5976 31.1429 14.2436H31.1502Z" stroke="black" stroke-width="5" stroke-linecap="round" stroke-linejoin="round"/>
</svg>
