<svg width="63" height="54" viewBox="0 0 63 54" fill="none" xmlns="http://www.w3.org/2000/svg">
<path d="M33.5521 2.025V6.75H38.9626C39.9242 6.75 40.8638 7.0362 41.6583 7.5681L46.3072 10.6839C46.4195 10.7595 46.5538 10.8 46.6908 10.8H57.9282C58.4731 10.8 58.9957 11.0133 59.381 11.3931C59.7663 11.7729 59.9828 12.2879 59.9828 12.825C59.9828 13.3621 59.7663 13.8771 59.381 14.2569C58.9957 14.6367 58.4731 14.85 57.9282 14.85H53.6052L62.8264 35.586C63.0114 36.0005 63.0498 36.4643 62.9356 36.9029C62.8213 37.3416 62.561 37.7297 62.1963 38.0052C61.9224 38.205 61.6402 38.3913 61.3471 38.5614C60.6522 38.9701 59.929 39.3301 59.1829 39.6387C56.7049 40.66 54.0447 41.1824 51.3589 41.175C48.6741 41.1833 46.0147 40.6619 43.5376 39.6414C42.791 39.3327 42.0678 38.9717 41.3734 38.5614C41.0827 38.3956 40.8019 38.2135 40.5324 38.016L40.5187 38.0052C40.154 37.7297 39.8937 37.3416 39.7794 36.9029C39.6652 36.4643 39.7036 36.0005 39.8886 35.586L49.1152 14.85H46.688C45.7264 14.85 44.7868 14.5638 43.9923 14.0319L39.3434 10.9161C39.2305 10.8399 39.0967 10.7994 38.9599 10.8H33.5521V49.95H45.8442C46.3892 49.95 46.9118 50.1633 47.2971 50.5431C47.6824 50.9229 47.8989 51.4379 47.8989 51.975C47.8989 52.5121 47.6824 53.0271 47.2971 53.4069C46.9118 53.7867 46.3892 54 45.8442 54H17.1507C16.6058 54 16.0832 53.7867 15.6979 53.4069C15.3126 53.0271 15.0961 52.5121 15.0961 51.975C15.0961 51.4379 15.3126 50.9229 15.6979 50.5431C16.0832 50.1633 16.6058 49.95 17.1507 49.95H29.4429V10.8H24.0324C23.8956 10.7999 23.762 10.8404 23.6488 10.9161L19.0026 14.0319C18.2082 14.5638 17.2685 14.85 16.307 14.85H13.8798L23.1064 35.586C23.285 35.9888 23.3257 36.438 23.2224 36.8657C23.1191 37.2933 22.8774 37.6763 22.5339 37.9566C22.3147 38.1321 22.0955 38.2968 21.6846 38.5587C20.9918 39.0009 20.2666 39.3917 19.5149 39.7278C17.0407 40.8356 14.3538 41.4065 11.6361 41.4018C8.91843 41.4074 6.23132 40.8365 3.75734 39.7278C3.00571 39.3917 2.28048 39.0009 1.58766 38.5587C1.29469 38.3751 1.0121 38.1759 0.741156 37.962C0.400303 37.6785 0.160544 37.2948 0.0570158 36.8673C-0.0465125 36.4397 -0.00836709 35.9907 0.165862 35.586L9.38975 14.85H5.06956C4.52464 14.85 4.00204 14.6367 3.61672 14.2569C3.23141 13.8771 3.01494 13.3621 3.01494 12.825C3.01494 12.2879 3.23141 11.7729 3.61672 11.3931C4.00204 11.0133 4.52464 10.8 5.06956 10.8H16.307C16.444 10.8 16.5782 10.7595 16.6933 10.6839L21.3367 7.5681C22.1312 7.0335 23.0735 6.75 24.0351 6.75H29.4429V2.025C29.4429 1.48794 29.6593 0.97287 30.0447 0.593109C30.43 0.213347 30.9526 0 31.4975 0C32.0424 0 32.565 0.213347 32.9503 0.593109C33.3356 0.97287 33.5521 1.48794 33.5521 2.025ZM4.63124 35.6346C6.78734 36.7659 9.19355 37.3548 11.6361 37.3491C14.0787 37.3548 16.4849 36.7659 18.641 35.6346L11.6361 19.8936L4.63124 35.6346ZM44.3814 35.5698C44.606 35.6778 44.858 35.7939 45.1347 35.91C46.5867 36.5121 48.7098 37.125 51.3589 37.125C53.7739 37.1317 56.1592 36.6 58.3364 35.5698L51.3589 19.8909L44.3814 35.5698Z" fill="black"/>
</svg>
