<svg width="70" height="59" viewBox="0 0 70 59" fill="none" xmlns="http://www.w3.org/2000/svg">
<path d="M0 58.1356V49.0923C0 47.3159 0.452816 45.6472 1.35845 44.0862C2.26408 42.5251 3.51598 41.3409 5.11416 40.5334C7.83105 39.1339 10.8942 37.9496 14.3037 36.9807C17.7131 36.0118 21.4688 35.5273 25.5708 35.5273C29.6728 35.5273 33.4285 36.0118 36.8379 36.9807C40.2473 37.9496 43.3105 39.1339 46.0274 40.5334C47.6256 41.3409 48.8775 42.5251 49.7831 44.0862C50.6887 45.6472 51.1415 47.3159 51.1415 49.0923V58.1356H0ZM25.5708 32.2976C22.0548 32.2976 19.0449 31.0326 16.5411 28.5026C14.0373 25.9726 12.7854 22.9313 12.7854 19.3785H11.9863C11.5068 19.3785 11.1212 19.23 10.8292 18.9328C10.5373 18.6357 10.3903 18.246 10.3881 17.7637C10.3881 17.2792 10.5352 16.8884 10.8292 16.5913C11.1233 16.2941 11.509 16.1466 11.9863 16.1488H12.7854C12.7854 13.7265 13.3714 11.5464 14.5434 9.60852C15.7154 7.67067 17.2603 6.13654 19.1781 5.00612V8.07439C19.1781 8.55885 19.3251 8.94965 19.6192 9.24679C19.9132 9.54393 20.2989 9.69142 20.7763 9.68927C21.2557 9.68927 21.6425 9.5407 21.9365 9.24356C22.2306 8.94642 22.3766 8.5567 22.3744 8.07439V3.71422C22.8539 3.55273 23.36 3.43108 23.8927 3.34926C24.4254 3.26744 24.9848 3.2276 25.5708 3.22976C26.1568 3.22976 26.7161 3.27067 27.2489 3.35249C27.7816 3.43431 28.2877 3.55488 28.7671 3.71422V8.07439C28.7671 8.55885 28.9142 8.94965 29.2082 9.24679C29.5023 9.54393 29.888 9.69142 30.3653 9.68927C30.8447 9.68927 31.2315 9.5407 31.5256 9.24356C31.8196 8.94642 31.9656 8.5567 31.9635 8.07439V5.00612C33.8813 6.13654 35.4262 7.67067 36.5982 9.60852C37.7702 11.5464 38.3562 13.7265 38.3562 16.1488H39.1552C39.6347 16.1488 40.0215 16.2973 40.3155 16.5945C40.6096 16.8916 40.7556 17.2813 40.7534 17.7637C40.7534 18.2481 40.6064 18.6389 40.3123 18.9361C40.0183 19.2332 39.6326 19.3807 39.1552 19.3785H38.3562C38.3562 22.9313 37.1043 25.9726 34.6005 28.5026C32.0966 31.0326 29.0868 32.2976 25.5708 32.2976ZM25.5708 25.838C27.3288 25.838 28.8342 25.205 30.0872 23.9389C31.3402 22.6729 31.9656 21.1527 31.9635 19.3785H19.1781C19.1781 21.1549 19.8046 22.6761 21.0575 23.9422C22.3105 25.2082 23.8149 25.8402 25.5708 25.838ZM49.5434 38.7571L49.0639 36.3347C48.7443 36.2271 48.4385 36.1054 48.1466 35.9698C47.8546 35.8341 47.5744 35.6328 47.3059 35.3658L45.0685 36.1733L43.4703 33.2665L45.2283 31.6516V29.7137L43.4703 28.0989L45.0685 25.1921L47.3059 25.9995C47.519 25.7842 47.7854 25.5958 48.105 25.4343C48.4247 25.2728 48.7443 25.1383 49.0639 25.0306L49.5434 22.6083H52.7397L53.2192 25.0306C53.5388 25.1383 53.8584 25.2728 54.1781 25.4343C54.4977 25.5958 54.7641 25.7842 54.9772 25.9995L57.2146 25.1921L58.8128 28.0989L57.0548 29.7137V31.6516L58.8128 33.2665L57.2146 36.1733L54.9772 35.3658C54.7108 35.635 54.4306 35.8374 54.1365 35.973C53.8425 36.1087 53.5367 36.2292 53.2192 36.3347L52.7397 38.7571H49.5434ZM51.1415 33.105C51.7808 33.105 52.3402 32.8628 52.8196 32.3783C53.2991 31.8938 53.5388 31.3286 53.5388 30.6827C53.5388 30.0367 53.2991 29.4715 52.8196 28.9871C52.3402 28.5026 51.7808 28.2604 51.1415 28.2604C50.5023 28.2604 49.9429 28.5026 49.4635 28.9871C48.984 29.4715 48.7443 30.0367 48.7443 30.6827C48.7443 31.3286 48.984 31.8938 49.4635 32.3783C49.9429 32.8628 50.5023 33.105 51.1415 33.105ZM56.895 22.6083L56.2557 19.217C55.7763 19.0556 55.3373 18.8532 54.9388 18.6098C54.5403 18.3665 54.1802 18.0845 53.8584 17.7637L50.5023 18.8941L48.2648 15.0184L50.9817 12.596C50.8752 12.3269 50.8219 12.1116 50.8219 11.9501V10.6582C50.8219 10.4967 50.8752 10.2814 50.9817 10.0122L48.2648 7.58992L50.5023 3.71422L53.8584 4.84463C54.1781 4.52166 54.5382 4.23852 54.9388 3.99521C55.3394 3.7519 55.7784 3.55058 56.2557 3.39124L56.895 0H61.3699L62.0091 3.39124C62.4886 3.55273 62.9286 3.75513 63.3292 3.99844C63.7298 4.24174 64.0889 4.52381 64.4064 4.84463L67.7626 3.71422L70 7.58992L67.2831 10.0122C67.3896 10.2814 67.4429 10.4967 67.4429 10.6582V11.9501C67.4429 12.1116 67.3896 12.3269 67.2831 12.596L70 15.0184L67.7626 18.8941L64.4064 17.7637C64.0868 18.0866 63.7277 18.3698 63.3292 18.6131C62.9307 18.8564 62.4907 19.0577 62.0091 19.217L61.3699 22.6083H56.895ZM59.1324 15.3413C60.2511 15.3413 61.1973 14.9505 61.9708 14.1689C62.7443 13.3873 63.13 12.4324 63.1278 11.3041C63.1278 10.1737 62.7411 9.21772 61.9676 8.43612C61.1941 7.65452 60.249 7.2648 59.1324 7.26695C58.0137 7.26695 57.0676 7.65775 56.2941 8.43935C55.5205 9.22095 55.1348 10.1759 55.137 11.3041C55.137 12.4346 55.5237 13.3906 56.2973 14.1722C57.0708 14.9538 58.0158 15.3435 59.1324 15.3413Z" fill="black"/>
</svg>
