<svg width="25" height="16" viewBox="0 0 25 16" fill="none" xmlns="http://www.w3.org/2000/svg">
<path fill-rule="evenodd" clip-rule="evenodd" d="M15.4793 12.3455C15.4795 12.661 15.2889 12.965 14.9458 13.1963C14.6028 13.4277 14.1325 13.5694 13.6293 13.5931L13.4793 13.5962H11.4793C10.9748 13.5963 10.4888 13.4772 10.1188 13.2626C9.74881 13.048 9.52218 12.754 9.48434 12.4393L9.47934 12.3455H15.4793ZM12.4793 1.71426C14.2943 1.71425 16.0384 2.15508 17.3436 2.94378C18.6488 3.73248 19.4131 4.80738 19.4753 5.94174L19.4793 6.09183V8.44571L21.3013 10.7246C21.3809 10.824 21.4207 10.934 21.4173 11.0451C21.414 11.1563 21.3676 11.2653 21.2822 11.3628C21.1968 11.4603 21.0748 11.5434 20.9268 11.605C20.7788 11.6665 20.6091 11.7048 20.4323 11.7164L20.3173 11.7201H4.64134C4.46351 11.7202 4.28831 11.6932 4.13076 11.6416C3.97322 11.5901 3.83802 11.5154 3.73676 11.4239C3.6355 11.3325 3.57119 11.2271 3.54934 11.1167C3.5275 11.0064 3.54877 10.8943 3.61134 10.7902L3.65734 10.7246L5.47934 8.44571V6.09183C5.47934 4.93083 6.21684 3.81738 7.52959 2.99642C8.84235 2.17547 10.6228 1.71426 12.4793 1.71426ZM12.4793 2.965C11.1909 2.96504 9.95218 3.27614 9.02156 3.83342C8.09095 4.3907 7.54026 5.15112 7.48434 5.95613L7.47934 6.09183V8.44571C7.47935 8.60081 7.43323 8.75455 7.34334 8.8991L7.26834 9.00542L6.09834 10.4694H18.8613L17.6913 9.00479C17.5804 8.86613 17.5115 8.71579 17.4883 8.56141L17.4793 8.44571V6.09183C17.4793 5.26254 16.9526 4.46722 16.0149 3.88083C15.0772 3.29443 13.8054 2.965 12.4793 2.965Z" fill="black"/>
</svg>
