<svg width="39" height="31" viewBox="0 0 39 31" fill="none" xmlns="http://www.w3.org/2000/svg">
<path d="M21.7094 0.815632C22.2318 0.293383 22.9403 0 23.6789 0C24.4176 0 25.1261 0.293383 25.6485 0.815632L38.1844 13.3515C38.7066 13.8739 39 14.5824 39 15.3211C39 16.0598 38.7066 16.7682 38.1844 17.2906L25.6485 29.8265C25.1231 30.334 24.4194 30.6147 23.689 30.6084C22.9585 30.6021 22.2598 30.3091 21.7433 29.7926C21.2268 29.2761 20.9339 28.5774 20.9275 27.847C20.9212 27.1165 21.202 26.4128 21.7094 25.8875L29.2504 18.1068H2.78576C2.04693 18.1068 1.33836 17.8133 0.815929 17.2909C0.293499 16.7685 0 16.0599 0 15.3211C0 14.5822 0.293499 13.8737 0.815929 13.3512C1.33836 12.8288 2.04693 12.5353 2.78576 12.5353H29.2504L21.7094 4.75469C21.1872 4.23229 20.8938 3.52385 20.8938 2.78516C20.8938 2.04648 21.1872 1.33804 21.7094 0.815632Z" fill="black"/>
</svg>
