<svg width="39" height="31" viewBox="0 0 39 31" fill="none" xmlns="http://www.w3.org/2000/svg">
<path d="M17.2906 0.815632C16.7682 0.293383 16.0597 0 15.3211 0C14.5824 0 13.8739 0.293383 13.3515 0.815632L0.815632 13.3515C0.293385 13.8739 0 14.5824 0 15.3211C0 16.0598 0.293385 16.7682 0.815632 17.2906L13.3515 29.8265C13.8769 30.334 14.5806 30.6147 15.311 30.6084C16.0415 30.6021 16.7402 30.3091 17.2567 29.7926C17.7732 29.2761 18.0661 28.5774 18.0725 27.847C18.0788 27.1165 17.798 26.4128 17.2906 25.8875L9.74955 18.1068H36.2142C36.9531 18.1068 37.6616 17.8133 38.1841 17.2909C38.7065 16.7685 39 16.0599 39 15.3211C39 14.5822 38.7065 13.8737 38.1841 13.3512C37.6616 12.8288 36.9531 12.5353 36.2142 12.5353H9.74955L17.2906 4.75469C17.8128 4.23229 18.1062 3.52385 18.1062 2.78516C18.1062 2.04648 17.8128 1.33804 17.2906 0.815632Z" fill="black"/>
</svg>
