<svg width="20" height="20" viewBox="0 0 20 20" fill="none" xmlns="http://www.w3.org/2000/svg">
<path d="M11.8337 2.39584C10.8115 2.39584 9.83115 2.80191 9.10835 3.5247C8.38556 4.2475 7.97949 5.22782 7.97949 6.25001V8.39584H5.91699C5.81366 8.39584 5.72949 8.47918 5.72949 8.58334V11.4167C5.72949 11.52 5.81283 11.6042 5.91699 11.6042H7.97949V17.4167C7.97949 17.52 8.06283 17.6042 8.16699 17.6042H11.0003C11.1037 17.6042 11.1878 17.5208 11.1878 17.4167V11.6042H13.2687C13.3545 11.6042 13.4295 11.5458 13.4503 11.4625L14.1587 8.62918C14.1656 8.60153 14.1662 8.57266 14.1603 8.54475C14.1545 8.51685 14.1423 8.49065 14.1248 8.46816C14.1073 8.44566 14.0849 8.42745 14.0592 8.41492C14.0336 8.40239 14.0055 8.39587 13.977 8.39584H11.1878V6.25001C11.1878 6.1652 11.2045 6.08122 11.237 6.00286C11.2694 5.9245 11.317 5.85331 11.377 5.79334C11.437 5.73337 11.5082 5.68579 11.5865 5.65334C11.6649 5.62088 11.7488 5.60418 11.8337 5.60418H14.0003C14.1037 5.60418 14.1878 5.52084 14.1878 5.41668V2.58334C14.1878 2.48001 14.1045 2.39584 14.0003 2.39584H11.8337Z" fill="black"/>
</svg>
