<svg width="12" height="15" viewBox="0 0 12 15" fill="none" xmlns="http://www.w3.org/2000/svg">
<path fill-rule="evenodd" clip-rule="evenodd" d="M1.5 0C1.10218 0 0.720644 0.158035 0.43934 0.43934C0.158035 0.720644 0 1.10218 0 1.5V13.5C0 13.8978 0.158035 14.2794 0.43934 14.5607C0.720644 14.842 1.10218 15 1.5 15H10.5C10.8978 15 11.2794 14.842 11.5607 14.5607C11.842 14.2794 12 13.8978 12 13.5V3.3105C11.9999 2.91271 11.8418 2.53124 11.5605 2.25L9.75 0.4395C9.46876 0.158176 9.08729 8.49561e-05 8.6895 0H1.5ZM1.5 1.5H8.6895L10.5 3.3105V13.5H1.5V1.5ZM9.1785 6.59475C9.25013 6.52557 9.30727 6.44281 9.34658 6.3513C9.38588 6.2598 9.40657 6.16139 9.40744 6.0618C9.4083 5.96222 9.38933 5.86346 9.35162 5.77129C9.31391 5.67911 9.25822 5.59537 9.1878 5.52495C9.11738 5.45453 9.03364 5.39884 8.94147 5.36113C8.84929 5.32342 8.75053 5.30445 8.65095 5.30531C8.55136 5.30618 8.45295 5.32687 8.36145 5.36617C8.26994 5.40548 8.18719 5.46262 8.118 5.53425L4.9365 8.71575L3.87525 7.65525C3.7338 7.51863 3.54435 7.44304 3.3477 7.44474C3.15105 7.44645 2.96294 7.52533 2.82389 7.66439C2.68483 7.80344 2.60595 7.99155 2.60424 8.1882C2.60254 8.38485 2.67813 8.5743 2.81475 8.71575L4.35225 10.254C4.42886 10.3306 4.51983 10.3915 4.61995 10.4329C4.72007 10.4744 4.82738 10.4958 4.93575 10.4958C5.04412 10.4958 5.15143 10.4744 5.25155 10.4329C5.35167 10.3915 5.44264 10.3306 5.51925 10.254L9.1785 6.59475Z" fill="black"/>
</svg>
