<svg width="13" height="13" viewBox="0 0 13 13" fill="none" xmlns="http://www.w3.org/2000/svg">
<path d="M6.5 0C9.9723 0 13 2.8665 13 6.175C13 9.4276 10.0405 11.9873 6.5 11.9873C5.74274 11.9877 4.99021 11.8679 4.2705 11.6324C3.9689 11.9249 3.86555 12.0244 3.2253 12.6419C2.7638 12.9903 2.3296 13.1086 1.94155 12.8889C1.55025 12.6679 1.4326 12.2376 1.51255 11.6708L1.77255 10.1634C0.6435 9.1013 0 7.6973 0 6.175C0 2.8665 3.02705 0 6.5 0ZM6.5 0.91C3.5191 0.91 0.91 3.38 0.91 6.175C0.91 7.50425 1.5028 8.7282 2.548 9.6395L2.561 9.65055L2.75405 9.81825L2.6208 10.5944L2.4115 11.8112C2.40057 11.8837 2.39406 11.9569 2.392 12.0302V12.092C2.392 12.0952 2.3907 12.0972 2.3907 12.0972C2.39525 12.0907 2.48365 12.0627 2.6351 11.9522L4.0456 10.5833L4.3147 10.6847C5.01372 10.9455 5.7539 11.0787 6.5 11.078C9.5654 11.078 12.09 8.89395 12.09 6.175C12.09 3.38065 9.4809 0.91 6.5 0.91ZM3.39755 5.07845C3.5285 5.07367 3.65907 5.09533 3.78146 5.14214C3.90384 5.18895 4.01554 5.25995 4.10987 5.3509C4.20421 5.44185 4.27924 5.55088 4.33048 5.67148C4.38173 5.79207 4.40815 5.92177 4.40815 6.0528C4.40815 6.18384 4.38173 6.31353 4.33048 6.43412C4.27924 6.55472 4.20421 6.66375 4.10987 6.7547C4.01554 6.84565 3.90384 6.91665 3.78146 6.96346C3.65907 7.01027 3.5285 7.03193 3.39755 7.02715C3.1453 7.01793 2.90645 6.91125 2.73124 6.72953C2.55604 6.54781 2.45815 6.30522 2.45815 6.0528C2.45815 5.80038 2.55604 5.55779 2.73124 5.37607C2.90645 5.19435 3.1453 5.08767 3.39755 5.07845ZM6.64625 5.07845C6.7772 5.07367 6.90777 5.09533 7.03015 5.14214C7.15254 5.18895 7.26424 5.25995 7.35857 5.3509C7.45291 5.44185 7.52794 5.55088 7.57918 5.67148C7.63043 5.79207 7.65685 5.92177 7.65685 6.0528C7.65685 6.18384 7.63043 6.31353 7.57918 6.43412C7.52794 6.55472 7.45291 6.66375 7.35857 6.7547C7.26424 6.84565 7.15254 6.91665 7.03015 6.96346C6.90777 7.01027 6.7772 7.03193 6.64625 7.02715C6.394 7.01793 6.15515 6.91125 5.97994 6.72953C5.80474 6.54781 5.70685 6.30522 5.70685 6.0528C5.70685 5.80038 5.80474 5.55779 5.97994 5.37607C6.15515 5.19435 6.394 5.08767 6.64625 5.07845ZM9.8943 5.07845C10.0252 5.07367 10.1558 5.09533 10.2782 5.14214C10.4006 5.18895 10.5123 5.25995 10.6066 5.3509C10.701 5.44185 10.776 5.55088 10.8272 5.67148C10.8785 5.79207 10.9049 5.92177 10.9049 6.0528C10.9049 6.18384 10.8785 6.31353 10.8272 6.43412C10.776 6.55472 10.701 6.66375 10.6066 6.7547C10.5123 6.84565 10.4006 6.91665 10.2782 6.96346C10.1558 7.01027 10.0252 7.03193 9.8943 7.02715C9.64205 7.01793 9.4032 6.91125 9.22799 6.72953C9.05279 6.54781 8.9549 6.30522 8.9549 6.0528C8.9549 5.80038 9.05279 5.55779 9.22799 5.37607C9.4032 5.19435 9.64205 5.08767 9.8943 5.07845Z" fill="black"/>
</svg>
