<svg width="16" height="12" viewBox="0 0 16 12" fill="none" xmlns="http://www.w3.org/2000/svg">
<path d="M15.9682 5.68549C15.3409 4.06286 14.2519 2.6596 12.8358 1.64916C11.4196 0.638714 9.73844 0.0653741 8 0C6.26156 0.0653741 4.58038 0.638714 3.16424 1.64916C1.7481 2.6596 0.659078 4.06286 0.031774 5.68549C-0.0105913 5.80267 -0.0105913 5.93099 0.031774 6.04817C0.659078 7.6708 1.7481 9.07406 3.16424 10.0845C4.58038 11.0949 6.26156 11.6683 8 11.7337C9.73844 11.6683 11.4196 11.0949 12.8358 10.0845C14.2519 9.07406 15.3409 7.6708 15.9682 6.04817C16.0106 5.93099 16.0106 5.80267 15.9682 5.68549ZM8 10.667C5.17325 10.667 2.1865 8.57091 1.1038 5.86683C2.1865 3.16276 5.17325 1.0667 8 1.0667C10.8267 1.0667 13.8135 3.16276 14.8962 5.86683C13.8135 8.57091 10.8267 10.667 8 10.667Z" fill="black"/>
<path d="M8 2.66674C7.36708 2.66674 6.74838 2.85442 6.22212 3.20605C5.69587 3.55769 5.28571 4.05747 5.0435 4.64221C4.80129 5.22695 4.73792 5.87038 4.8614 6.49114C4.98487 7.1119 5.28965 7.6821 5.73719 8.12964C6.18473 8.57718 6.75494 8.88196 7.37569 9.00543C7.99645 9.12891 8.63988 9.06554 9.22462 8.82333C9.80936 8.58112 10.3091 8.17096 10.6608 7.64471C11.0124 7.11845 11.2001 6.49975 11.2001 5.86683C11.2001 5.01812 10.8629 4.20416 10.2628 3.60403C9.66267 3.00389 8.84872 2.66674 8 2.66674ZM8 8.00023C7.57805 8.00023 7.16558 7.8751 6.81475 7.64068C6.46392 7.40626 6.19047 7.07307 6.029 6.68325C5.86753 6.29342 5.82528 5.86447 5.9076 5.45063C5.98992 5.03679 6.1931 4.65666 6.49146 4.35829C6.78982 4.05993 7.16996 3.85675 7.5838 3.77443C7.99763 3.69211 8.42659 3.73436 8.81641 3.89583C9.20624 4.0573 9.53943 4.33075 9.77385 4.68158C10.0083 5.03242 10.1334 5.44489 10.1334 5.86683C10.1334 6.43264 9.90863 6.97528 9.50854 7.37537C9.10845 7.77546 8.56581 8.00023 8 8.00023Z" fill="black"/>
</svg>
