<svg width="40" height="40" viewBox="0 0 40 40" fill="none" xmlns="http://www.w3.org/2000/svg">
<path d="M23.6666 4.79199C21.6223 4.79199 19.6616 5.60412 18.216 7.04971C16.7704 8.4953 15.9583 10.4559 15.9583 12.5003V16.792H11.8333C11.6266 16.792 11.4583 16.9587 11.4583 17.167V22.8337C11.4583 23.0403 11.625 23.2087 11.8333 23.2087H15.9583V34.8336C15.9583 35.0403 16.125 35.2086 16.3333 35.2086H22C22.2066 35.2086 22.375 35.042 22.375 34.8336V23.2087H26.5366C26.7083 23.2087 26.8583 23.092 26.9 22.9253L28.3166 17.2587C28.3306 17.2034 28.3317 17.1456 28.32 17.0898C28.3083 17.034 28.2839 16.9816 28.2489 16.9366C28.2139 16.8916 28.169 16.8552 28.1178 16.8301C28.0666 16.8051 28.0103 16.792 27.9533 16.792H22.375V12.5003C22.375 12.3307 22.4084 12.1627 22.4733 12.006C22.5382 11.8493 22.6334 11.7069 22.7533 11.587C22.8732 11.467 23.0156 11.3719 23.1723 11.307C23.3291 11.2421 23.497 11.2087 23.6666 11.2087H28C28.2066 11.2087 28.375 11.042 28.375 10.8337V5.16699C28.375 4.96033 28.2083 4.79199 28 4.79199H23.6666Z" fill="#5BE4A8"/>
</svg>
