<svg width="20" height="21" viewBox="0 0 20 21" fill="none" xmlns="http://www.w3.org/2000/svg">
<path d="M12.2913 17.1667L13.958 18.8333H4.99968C4.54134 18.8333 4.14884 18.67 3.82218 18.3433C3.49551 18.0167 3.33245 17.6244 3.33301 17.1667V3.83334C3.33301 3.37501 3.49634 2.98251 3.82301 2.65584C4.14968 2.32917 4.5419 2.16612 4.99968 2.16667H12.4997L16.6663 7.16667V17.1667C16.6663 17.4444 16.6072 17.6981 16.4888 17.9275C16.3705 18.1569 16.2075 18.3478 15.9997 18.5L11.6663 14.2083C11.4302 14.3611 11.1733 14.4758 10.8955 14.5525C10.6177 14.6292 10.3191 14.6672 9.99968 14.6667C9.08301 14.6667 8.29829 14.3403 7.64551 13.6875C6.99273 13.0347 6.66634 12.25 6.66634 11.3333C6.66634 10.4167 6.99273 9.63195 7.64551 8.97917C8.29829 8.32639 9.08301 8.00001 9.99968 8.00001C10.9163 8.00001 11.7011 8.32639 12.3538 8.97917C13.0066 9.63195 13.333 10.4167 13.333 11.3333C13.333 11.6528 13.2947 11.9514 13.218 12.2292C13.1413 12.5069 13.0269 12.7639 12.8747 13L14.9997 15.1667V7.75001L11.708 3.83334H4.99968V17.1667H12.2913ZM9.99968 13C10.458 13 10.8505 12.8367 11.1772 12.51C11.5038 12.1833 11.6669 11.7911 11.6663 11.3333C11.6663 10.875 11.503 10.4825 11.1763 10.1558C10.8497 9.82917 10.4575 9.66612 9.99968 9.66667C9.54134 9.66667 9.14884 9.83001 8.82218 10.1567C8.49551 10.4833 8.33245 10.8756 8.33301 11.3333C8.33301 11.7917 8.49634 12.1842 8.82301 12.5108C9.14968 12.8375 9.5419 13.0006 9.99968 13Z" fill="black"/>
</svg>
