<svg width="21" height="22" viewBox="0 0 21 22" fill="none" xmlns="http://www.w3.org/2000/svg">
<mask id="path-1-inside-1_347_482" fill="white">
<path d="M17.875 10.667C18.3047 10.9606 18.6878 11.2936 19.0244 11.666C19.361 12.0384 19.651 12.4466 19.8945 12.8906C20.138 13.3346 20.3171 13.8037 20.4316 14.2979C20.5462 14.792 20.6107 15.2969 20.625 15.8125C20.625 16.6647 20.4639 17.4668 20.1416 18.2188C19.8193 18.9707 19.3753 19.626 18.8096 20.1846C18.2438 20.7432 17.5885 21.1836 16.8438 21.5059C16.099 21.8281 15.2969 21.9928 14.4375 22C13.7858 22 13.1556 21.9033 12.5469 21.71C11.9382 21.5166 11.3796 21.2373 10.8711 20.8721C10.3626 20.5068 9.91146 20.07 9.51758 19.5615C9.1237 19.0531 8.81934 18.4909 8.60449 17.875H0V1.375H2.75V0H4.125V1.375H13.75V0H15.125V1.375H17.875V10.667ZM1.375 2.75V5.5H16.5V2.75H15.125V4.125H13.75V2.75H4.125V4.125H2.75V2.75H1.375ZM8.28223 16.5C8.26074 16.278 8.25 16.0488 8.25 15.8125C8.25 15.1966 8.33594 14.5986 8.50781 14.0186C8.67969 13.4385 8.94108 12.8906 9.29199 12.375H8.25V11H9.625V11.9238C9.91862 11.5586 10.2445 11.2363 10.6025 10.957C10.9606 10.6777 11.3473 10.4378 11.7627 10.2373C12.1781 10.0368 12.6113 9.88639 13.0625 9.78613C13.5137 9.68587 13.972 9.63216 14.4375 9.625C15.1536 9.625 15.8411 9.74316 16.5 9.97949V6.875H1.375V16.5H8.28223ZM14.4375 20.625C15.1035 20.625 15.7266 20.4997 16.3066 20.249C16.8867 19.9984 17.3952 19.6546 17.832 19.2178C18.2689 18.7809 18.6126 18.2725 18.8633 17.6924C19.1139 17.1123 19.2428 16.4857 19.25 15.8125C19.25 15.1465 19.1247 14.5234 18.874 13.9434C18.6234 13.3633 18.2796 12.8548 17.8428 12.418C17.4059 11.9811 16.8975 11.6374 16.3174 11.3867C15.7373 11.1361 15.1107 11.0072 14.4375 11C13.7715 11 13.1484 11.1253 12.5684 11.376C11.9883 11.6266 11.4798 11.9704 11.043 12.4072C10.6061 12.8441 10.2624 13.3525 10.0117 13.9326C9.76107 14.5127 9.63216 15.1393 9.625 15.8125C9.625 16.4785 9.75033 17.1016 10.001 17.6816C10.2516 18.2617 10.5954 18.7702 11.0322 19.207C11.4691 19.6439 11.9775 19.9876 12.5576 20.2383C13.1377 20.4889 13.7643 20.6178 14.4375 20.625ZM15.125 15.125H17.1875V16.5H13.75V12.375H15.125V15.125ZM2.75 11H4.125V12.375H2.75V11ZM5.5 11H6.875V12.375H5.5V11ZM5.5 8.25H6.875V9.625H5.5V8.25ZM2.75 13.75H4.125V15.125H2.75V13.75ZM5.5 13.75H6.875V15.125H5.5V13.75ZM9.625 9.625H8.25V8.25H9.625V9.625ZM12.375 9.625H11V8.25H12.375V9.625ZM15.125 9.625H13.75V8.25H15.125V9.625Z"/>
</mask>
<path d="M17.875 10.667C18.3047 10.9606 18.6878 11.2936 19.0244 11.666C19.361 12.0384 19.651 12.4466 19.8945 12.8906C20.138 13.3346 20.3171 13.8037 20.4316 14.2979C20.5462 14.792 20.6107 15.2969 20.625 15.8125C20.625 16.6647 20.4639 17.4668 20.1416 18.2188C19.8193 18.9707 19.3753 19.626 18.8096 20.1846C18.2438 20.7432 17.5885 21.1836 16.8438 21.5059C16.099 21.8281 15.2969 21.9928 14.4375 22C13.7858 22 13.1556 21.9033 12.5469 21.71C11.9382 21.5166 11.3796 21.2373 10.8711 20.8721C10.3626 20.5068 9.91146 20.07 9.51758 19.5615C9.1237 19.0531 8.81934 18.4909 8.60449 17.875H0V1.375H2.75V0H4.125V1.375H13.75V0H15.125V1.375H17.875V10.667ZM1.375 2.75V5.5H16.5V2.75H15.125V4.125H13.75V2.75H4.125V4.125H2.75V2.75H1.375ZM8.28223 16.5C8.26074 16.278 8.25 16.0488 8.25 15.8125C8.25 15.1966 8.33594 14.5986 8.50781 14.0186C8.67969 13.4385 8.94108 12.8906 9.29199 12.375H8.25V11H9.625V11.9238C9.91862 11.5586 10.2445 11.2363 10.6025 10.957C10.9606 10.6777 11.3473 10.4378 11.7627 10.2373C12.1781 10.0368 12.6113 9.88639 13.0625 9.78613C13.5137 9.68587 13.972 9.63216 14.4375 9.625C15.1536 9.625 15.8411 9.74316 16.5 9.97949V6.875H1.375V16.5H8.28223ZM14.4375 20.625C15.1035 20.625 15.7266 20.4997 16.3066 20.249C16.8867 19.9984 17.3952 19.6546 17.832 19.2178C18.2689 18.7809 18.6126 18.2725 18.8633 17.6924C19.1139 17.1123 19.2428 16.4857 19.25 15.8125C19.25 15.1465 19.1247 14.5234 18.874 13.9434C18.6234 13.3633 18.2796 12.8548 17.8428 12.418C17.4059 11.9811 16.8975 11.6374 16.3174 11.3867C15.7373 11.1361 15.1107 11.0072 14.4375 11C13.7715 11 13.1484 11.1253 12.5684 11.376C11.9883 11.6266 11.4798 11.9704 11.043 12.4072C10.6061 12.8441 10.2624 13.3525 10.0117 13.9326C9.76107 14.5127 9.63216 15.1393 9.625 15.8125C9.625 16.4785 9.75033 17.1016 10.001 17.6816C10.2516 18.2617 10.5954 18.7702 11.0322 19.207C11.4691 19.6439 11.9775 19.9876 12.5576 20.2383C13.1377 20.4889 13.7643 20.6178 14.4375 20.625ZM15.125 15.125H17.1875V16.5H13.75V12.375H15.125V15.125ZM2.75 11H4.125V12.375H2.75V11ZM5.5 11H6.875V12.375H5.5V11ZM5.5 8.25H6.875V9.625H5.5V8.25ZM2.75 13.75H4.125V15.125H2.75V13.75ZM5.5 13.75H6.875V15.125H5.5V13.75ZM9.625 9.625H8.25V8.25H9.625V9.625ZM12.375 9.625H11V8.25H12.375V9.625ZM15.125 9.625H13.75V8.25H15.125V9.625Z" fill="#5BE4A8" stroke="#404040" stroke-width="2" mask="url(#path-1-inside-1_347_482)"/>
</svg>
