<svg width="40" height="40" viewBox="0 0 40 40" fill="none" xmlns="http://www.w3.org/2000/svg">
<path d="M20.0017 14.9997C18.6756 14.9997 17.4038 15.5265 16.4662 16.4641C15.5285 17.4018 15.0017 18.6736 15.0017 19.9997C15.0017 21.3258 15.5285 22.5975 16.4662 23.5352C17.4038 24.4729 18.6756 24.9997 20.0017 24.9997C21.3278 24.9997 22.5995 24.4729 23.5372 23.5352C24.4749 22.5975 25.0017 21.3258 25.0017 19.9997C25.0017 18.6736 24.4749 17.4018 23.5372 16.4641C22.5995 15.5265 21.3278 14.9997 20.0017 14.9997ZM20.0017 11.6663C22.2118 11.6663 24.3314 12.5443 25.8942 14.1071C27.457 15.6699 28.335 17.7895 28.335 19.9997C28.335 22.2098 27.457 24.3294 25.8942 25.8922C24.3314 27.455 22.2118 28.333 20.0017 28.333C17.7916 28.333 15.6719 27.455 14.1091 25.8922C12.5463 24.3294 11.6684 22.2098 11.6684 19.9997C11.6684 17.7895 12.5463 15.6699 14.1091 14.1071C15.6719 12.5443 17.7916 11.6663 20.0017 11.6663ZM30.835 11.2497C30.835 11.8022 30.6155 12.3321 30.2248 12.7228C29.8341 13.1135 29.3042 13.333 28.7517 13.333C28.1992 13.333 27.6693 13.1135 27.2786 12.7228C26.8878 12.3321 26.6684 11.8022 26.6684 11.2497C26.6684 10.6971 26.8878 10.1672 27.2786 9.77654C27.6693 9.38583 28.1992 9.16634 28.7517 9.16634C29.3042 9.16634 29.8341 9.38583 30.2248 9.77654C30.6155 10.1672 30.835 10.6971 30.835 11.2497ZM20.0017 6.66634C15.8784 6.66634 15.205 6.67801 13.2867 6.76301C11.98 6.82467 11.1034 6.99967 10.29 7.31634C9.60938 7.56624 8.99404 7.96678 8.49002 8.48801C7.96837 8.99201 7.56728 9.60731 7.31669 10.288C7.00002 11.1047 6.82502 11.9797 6.76502 13.2847C6.67836 15.1247 6.66669 15.768 6.66669 19.9997C6.66669 24.1247 6.67836 24.7963 6.76336 26.7147C6.82502 28.0197 7.00002 28.898 7.31502 29.7097C7.59836 30.4347 7.93169 30.9563 8.48502 31.5097C9.04669 32.0697 9.56836 32.4047 10.285 32.6813C11.1084 32.9997 11.985 33.1763 13.285 33.2363C15.125 33.323 15.7684 33.333 20 33.333C24.125 33.333 24.7967 33.3213 26.715 33.2363C28.0184 33.1747 28.895 32.9997 29.71 32.6847C30.39 32.4335 31.0051 32.0332 31.51 31.513C32.0717 30.953 32.4067 30.4313 32.6834 29.713C33 28.893 33.1767 28.0163 33.2367 26.713C33.3234 24.8747 33.3334 24.2297 33.3334 19.9997C33.3334 15.8763 33.3217 15.203 33.2367 13.2847C33.175 11.9813 32.9984 11.1013 32.6834 10.288C32.4321 9.60804 32.0318 8.99298 31.5117 8.48801C31.0079 7.96608 30.3925 7.56495 29.7117 7.31467C28.895 6.99801 28.0184 6.82301 26.715 6.76301C24.8767 6.67634 24.235 6.66634 20.0017 6.66634ZM20.0017 3.33301C24.53 3.33301 25.095 3.34967 26.8734 3.43301C28.6467 3.51634 29.8567 3.79467 30.9184 4.20801C32.0184 4.63134 32.945 5.20467 33.8717 6.12967C34.7192 6.96283 35.3749 7.97066 35.7934 9.08301C36.205 10.1447 36.485 11.3547 36.5684 13.1297C36.6467 14.9063 36.6684 15.4713 36.6684 19.9997C36.6684 24.528 36.6517 25.093 36.5684 26.8697C36.485 28.6447 36.205 29.853 35.7934 30.9163C35.3761 32.0293 34.7202 33.0373 33.8717 33.8697C33.0383 34.7169 32.0305 35.3726 30.9184 35.7913C29.8567 36.203 28.6467 36.483 26.8734 36.5663C25.095 36.6447 24.53 36.6663 20.0017 36.6663C15.4734 36.6663 14.9084 36.6497 13.13 36.5663C11.3567 36.483 10.1484 36.203 9.08502 35.7913C7.97223 35.3738 6.96423 34.7179 6.13169 33.8697C5.28407 33.0366 4.62829 32.0288 4.21002 30.9163C3.79669 29.8547 3.51836 28.6447 3.43502 26.8697C3.35502 25.093 3.33502 24.528 3.33502 19.9997C3.33502 15.4713 3.35169 14.9063 3.43502 13.1297C3.51836 11.353 3.79669 10.1463 4.21002 9.08301C4.62708 7.96997 5.28303 6.96188 6.13169 6.12967C6.96447 5.28173 7.9724 4.62589 9.08502 4.20801C10.1467 3.79467 11.355 3.51634 13.13 3.43301C14.9084 3.35467 15.4734 3.33301 20.0017 3.33301Z" fill="#5BE4A8"/>
</svg>
