<svg width="84" height="96" viewBox="0 0 84 96" fill="none" xmlns="http://www.w3.org/2000/svg">
<path d="M70.7505 23.2236L75.1228 18.8431L79.0739 22.8016L83.025 18.8431L71.1917 6.98753L67.2406 10.9461L71.1917 14.9046L66.4384 19.6669C61.6249 16.1906 56.1696 13.7794 50.3533 12.6139V6.00292H55.9289V0.416748H28.0306V6.00292H33.6063V12.6139C27.81 13.7794 22.3347 16.1906 17.5212 19.6669L12.7678 14.9046L16.7189 10.9461L12.7678 6.98753L0.934564 18.8431L4.88565 22.8016L8.83675 18.8431L13.209 23.2236C4.98592 31.0402 0.132324 41.8107 0.132324 53.6863C0.132324 76.9152 18.905 95.8036 41.9698 95.8036C65.0345 95.8036 83.8072 76.9152 83.8072 53.6863C83.8072 42.3934 79.3547 31.4421 70.7305 23.2236H70.7505ZM39.202 5.98282H44.7776V11.8503C43.8551 11.79 42.9324 11.7498 41.9898 11.7498C41.0471 11.7498 40.1246 11.79 39.202 11.8503V5.98282ZM41.9898 90.1974C21.9937 90.1974 5.72805 73.8207 5.72805 53.6662C5.72805 33.5118 21.9937 17.336 41.9898 17.336C61.9859 17.336 78.2516 33.6324 78.2516 53.6662C78.2516 73.7001 61.9859 90.1974 41.9898 90.1974Z" fill="black"/>
<path d="M44.7778 45.7894V22.9424H39.2021V45.7894C35.953 46.9348 33.6265 50.0494 33.6265 53.6864C33.6265 58.3081 37.377 62.0657 41.9899 62.0657C46.6029 62.0657 50.3534 58.3081 50.3534 53.6864C50.3534 50.0494 48.0269 46.9348 44.7778 45.7894ZM41.9899 56.4795C40.4456 56.4795 39.2021 55.2337 39.2021 53.6864C39.2021 52.1392 40.4456 50.8933 41.9899 50.8933C43.5342 50.8933 44.7778 52.1392 44.7778 53.6864C44.7778 55.2337 43.5342 56.4795 41.9899 56.4795Z" fill="black"/>
<path d="M39.2019 78.8442H44.7775V84.4304H39.2019V78.8442Z" fill="black"/>
<path d="M11.3037 50.8933H16.8794V56.4795H11.3037V50.8933Z" fill="black"/>
<path d="M67.1003 50.8933H72.676V56.4795H67.1003V50.8933Z" fill="black"/>
<path d="M22.2746 77.3973L18.3235 73.4388L22.2746 69.4802L26.2257 73.4388L22.2746 77.3973Z" fill="black"/>
<path d="M61.7253 37.8722L57.7742 33.9136L61.7253 29.9551L65.6764 33.9136L61.7253 37.8722Z" fill="black"/>
<path d="M61.7253 77.3973L57.7742 73.4388L61.7253 69.4802L65.6764 73.4388L61.7253 77.3973Z" fill="black"/>
<path d="M22.2746 37.8722L18.3235 33.9136L22.2746 29.9551L26.2257 33.9136L22.2746 37.8722Z" fill="black"/>
</svg>
