<svg width="31" height="28" viewBox="0 0 31 28" fill="none" xmlns="http://www.w3.org/2000/svg">
<path d="M1.46565 5.34296C0.963034 5.57187 0.741149 6.16488 0.970054 6.6675C1.19896 7.17011 1.79197 7.392 2.29459 7.16309L1.46565 5.34296ZM11.8295 1.72181L12.2439 2.63188L12.2482 2.6299L11.8295 1.72181ZM15.1273 1V0V1ZM18.4252 1.72181L18.0064 2.62991L18.0107 2.63189L18.4252 1.72181ZM28.376 6.25303L27.9616 7.16311L27.9619 7.16326L28.376 6.25303ZM28.376 11.635L27.9619 10.7248L27.9615 10.725L28.376 11.635ZM18.4266 16.1663L18.0122 15.2562L18.0079 15.2582L18.4266 16.1663ZM15.1288 16.8881V17.8881V16.8881ZM11.8309 16.1663L12.2497 15.2582L12.2453 15.2561L11.8309 16.1663ZM5.13203 12.0177C4.62939 11.7888 4.03641 12.0108 3.80757 12.5135C3.57873 13.0161 3.80069 13.6091 4.30334 13.8379L5.13203 12.0177ZM0 18.3333C0 18.8856 0.447715 19.3333 1 19.3333C1.55228 19.3333 2 18.8856 2 18.3333H0ZM1.49077 10.7038L2.31788 11.2658L2.3184 11.2651L1.49077 10.7038ZM4.60496 8.88811L4.22077 7.96486L4.22039 7.96501L4.60496 8.88811ZM6.58937 9.14548C7.09927 8.9333 7.34062 8.34793 7.12844 7.83803C6.91626 7.32813 6.33089 7.08679 5.82099 7.29897L6.58937 9.14548ZM15.1284 28C15.6806 28 16.1284 27.5523 16.1284 27C16.1284 26.4477 15.6806 26 15.1284 26V28ZM6.77775 24.2064L6.30322 25.0867L6.30429 25.0873L6.77775 24.2064ZM5.71799 13.2778C5.71799 12.7255 5.27027 12.2778 4.71799 12.2778C4.1657 12.2778 3.71799 12.7255 3.71799 13.2778H5.71799ZM26.5387 13.2778C26.5387 12.7255 26.091 12.2778 25.5387 12.2778C24.9864 12.2778 24.5387 12.7255 24.5387 13.2778H26.5387ZM23.479 24.205L23.0056 23.3241L23.0033 23.3254L23.479 24.205ZM20.3007 24.6378C19.7938 24.8572 19.5608 25.446 19.7802 25.9528C19.9996 26.4596 20.5883 26.6927 21.0951 26.4733L20.3007 24.6378ZM2.29459 7.16309L12.2439 2.63187L11.415 0.811742L1.46565 5.34296L2.29459 7.16309ZM12.2482 2.6299C13.1467 2.21553 14.1303 2 15.1273 2V0C13.8427 0 12.5732 0.27759 11.4107 0.813716L12.2482 2.6299ZM15.1273 2C16.1243 2 17.1079 2.21553 18.0064 2.6299L18.8439 0.813716C17.6814 0.27759 16.4119 0 15.1273 0V2ZM18.0107 2.63189L27.9616 7.16311L28.7904 5.34294L18.8396 0.811719L18.0107 2.63189ZM27.9619 7.16326C28.6146 7.4602 29 8.14959 29 8.94403C29 9.73846 28.6146 10.4279 27.9619 10.7248L28.7901 12.5453C30.3027 11.8571 31 10.348 31 8.94403C31 7.54002 30.3027 6.03097 28.7901 5.3428L27.9619 7.16326ZM27.9615 10.725L18.0122 15.2562L18.8411 17.0763L28.7905 12.5451L27.9615 10.725ZM18.0079 15.2582C17.1094 15.6725 16.1258 15.8881 15.1288 15.8881V17.8881C16.4134 17.8881 17.6829 17.6105 18.8454 17.0743L18.0079 15.2582ZM15.1288 15.8881C14.1318 15.8881 13.1482 15.6725 12.2497 15.2582L11.4122 17.0743C12.5747 17.6105 13.8442 17.8881 15.1288 17.8881V15.8881ZM12.2453 15.2561L5.13203 12.0177L4.30334 13.8379L11.4166 17.0764L12.2453 15.2561ZM2 18.3333V14.1993H0V18.3333H2ZM2 14.1993C2 13.2527 2.00142 12.6241 2.05524 12.1394C2.10622 11.6803 2.19623 11.4448 2.31788 11.2658L0.663668 10.1417C0.294546 10.6849 0.139169 11.2728 0.0674547 11.9187C-0.00142431 12.539 0 13.2971 0 14.1993H2ZM2.3184 11.2651C2.44158 11.0834 2.63413 10.9056 3.05601 10.6752C3.4977 10.4339 4.09596 10.1835 4.98953 9.81121L4.22039 7.96501C3.3665 8.32075 2.65306 8.61634 2.09721 8.91997C1.52156 9.23443 1.03074 9.60047 0.663147 10.1425L2.3184 11.2651ZM4.98915 9.81137L6.58937 9.14548L5.82099 7.29897L4.22077 7.96486L4.98915 9.81137ZM15.1284 26C13.9689 26 12.5586 25.6425 11.1198 25.1065C9.69668 24.5764 8.32042 23.9004 7.25122 23.3256L6.30429 25.0873C7.41977 25.6869 8.88331 26.4076 10.4216 26.9807C11.9442 27.5479 13.6168 28 15.1284 28V26ZM7.25229 23.3262C6.28804 22.8064 5.71799 21.7949 5.71799 20.682H3.71799C3.71799 22.4782 4.64703 24.1938 6.30322 25.0867L7.25229 23.3262ZM5.71799 20.682V13.2778H3.71799V20.682H5.71799ZM24.5387 13.2778V20.6806H26.5387V13.2778H24.5387ZM24.5387 20.6806C24.5387 21.7959 23.9695 22.8062 23.0056 23.3241L23.9523 25.0859C25.6119 24.1941 26.5387 22.4773 26.5387 20.6806H24.5387ZM23.0033 23.3254C22.1229 23.8015 21.2212 24.2394 20.3007 24.6378L21.0951 26.4733C22.0689 26.0518 23.023 25.5884 23.9546 25.0846L23.0033 23.3254Z" fill="white"/>
</svg>
