<svg width="15" height="9" viewBox="0 0 15 9" fill="none" xmlns="http://www.w3.org/2000/svg">
<path d="M0.746906 1.7629C0.746732 1.93124 0.779821 2.09795 0.844269 2.25346C0.908717 2.40897 1.00325 2.55022 1.12245 2.66908L6.56082 8.10617C6.80118 8.34646 7.12714 8.48145 7.46701 8.48145C7.80687 8.48145 8.13283 8.34646 8.37319 8.10617L13.8116 2.66908C14.045 2.42735 14.1742 2.10358 14.1713 1.76751C14.1684 1.43145 14.0336 1.10997 13.7959 0.872331C13.5583 0.634688 13.2368 0.49989 12.9008 0.49697C12.5647 0.49405 12.2409 0.623241 11.9992 0.856718L7.46701 5.38763L2.93482 0.856718C2.75556 0.67752 2.52721 0.555491 2.27861 0.506058C2.03002 0.456625 1.77235 0.482007 1.53818 0.578996C1.304 0.675984 1.10384 0.840224 0.963003 1.05095C0.822162 1.26168 0.74696 1.50944 0.746906 1.7629Z" fill="#4F4F4F"/>
</svg>
