<svg width="24" height="24" viewBox="0 0 24 24" fill="none" xmlns="http://www.w3.org/2000/svg">
<path d="M21.2372 5.28843L12.2372 2.28843C12.0832 2.23711 11.9168 2.23711 11.7628 2.28843L2.76281 5.28843C2.61347 5.33822 2.48358 5.43373 2.39155 5.56144C2.29951 5.68914 2.24999 5.84258 2.25 5.99999V13.5C2.25 13.6989 2.32902 13.8897 2.46967 14.0303C2.61032 14.171 2.80109 14.25 3 14.25C3.19891 14.25 3.38968 14.171 3.53033 14.0303C3.67098 13.8897 3.75 13.6989 3.75 13.5V7.04062L6.89906 8.08968C6.0624 9.44137 5.79634 11.0698 6.15931 12.6175C6.52229 14.1652 7.48462 15.5056 8.835 16.3444C7.1475 17.0062 5.68875 18.2034 4.62187 19.8403C4.56639 19.9228 4.52785 20.0154 4.50849 20.1129C4.48914 20.2104 4.48936 20.3108 4.50913 20.4082C4.52891 20.5056 4.56785 20.5981 4.62369 20.6803C4.67953 20.7626 4.75116 20.8329 4.83441 20.8872C4.91766 20.9415 5.01087 20.9787 5.10863 20.9966C5.20639 21.0146 5.30674 21.0129 5.40386 20.9918C5.50097 20.9706 5.59291 20.9304 5.67433 20.8733C5.75575 20.8163 5.82502 20.7437 5.87813 20.6597C7.29094 18.4922 9.52219 17.25 12 17.25C14.4778 17.25 16.7091 18.4922 18.1219 20.6597C18.2319 20.8232 18.4018 20.9368 18.5949 20.976C18.788 21.0152 18.9888 20.9768 19.1539 20.8692C19.3189 20.7615 19.435 20.5933 19.4769 20.4007C19.5189 20.2082 19.4834 20.0069 19.3781 19.8403C18.3112 18.2034 16.8469 17.0062 15.165 16.3444C16.5141 15.5056 17.4755 14.1661 17.8384 12.6196C18.2013 11.073 17.9361 9.44567 17.1009 8.09437L21.2372 6.71624C21.3866 6.66649 21.5165 6.57099 21.6086 6.44328C21.7006 6.31557 21.7502 6.16212 21.7502 6.00468C21.7502 5.84724 21.7006 5.6938 21.6086 5.56609C21.5165 5.43837 21.3866 5.34287 21.2372 5.29312V5.28843ZM16.5 11.25C16.5002 11.9614 16.3317 12.6628 16.0084 13.2965C15.6851 13.9302 15.2161 14.4782 14.6399 14.8955C14.0638 15.3129 13.3969 15.5877 12.694 15.6974C11.9911 15.8072 11.2722 15.7486 10.5962 15.5267C9.92031 15.3048 9.30663 14.9258 8.80555 14.4207C8.30448 13.9157 7.93028 13.2991 7.71367 12.6214C7.49705 11.9438 7.44419 11.2244 7.55942 10.5224C7.67465 9.82036 7.95469 9.15566 8.37656 8.58281L11.7628 9.70781C11.9168 9.75913 12.0832 9.75913 12.2372 9.70781L15.6234 8.58281C16.1932 9.3553 16.5005 10.2901 16.5 11.25ZM12 8.20968L5.37187 5.99999L12 3.79031L18.6281 5.99999L12 8.20968Z" fill="black"/>
</svg>
