<svg width="24" height="33" viewBox="0 0 24 33" fill="none" xmlns="http://www.w3.org/2000/svg">
<path d="M20.4 3.47034H18V1.83776C18 1.40478 17.8736 0.989524 17.6485 0.683356C17.4235 0.377188 17.1183 0.205185 16.8 0.205185C16.4817 0.205185 16.1765 0.377188 15.9515 0.683356C15.7264 0.989524 15.6 1.40478 15.6 1.83776V3.47034H8.4V1.83776C8.4 1.40478 8.27357 0.989524 8.04853 0.683356C7.82348 0.377188 7.51826 0.205185 7.2 0.205185C6.88174 0.205185 6.57652 0.377188 6.35147 0.683356C6.12643 0.989524 6 1.40478 6 1.83776V3.47034H3.6C2.64522 3.47034 1.72955 3.98635 1.05442 4.90485C0.379285 5.82336 0 7.06912 0 8.36808V27.959C0 29.258 0.379285 30.5037 1.05442 31.4222C1.72955 32.3407 2.64522 32.8568 3.6 32.8568H20.4C21.3548 32.8568 22.2705 32.3407 22.9456 31.4222C23.6207 30.5037 24 29.258 24 27.959V8.36808C24 7.06912 23.6207 5.82336 22.9456 4.90485C22.2705 3.98635 21.3548 3.47034 20.4 3.47034ZM21.6 27.959C21.6 28.392 21.4736 28.8073 21.2485 29.1134C21.0235 29.4196 20.7183 29.5916 20.4 29.5916H3.6C3.28174 29.5916 2.97652 29.4196 2.75147 29.1134C2.52643 28.8073 2.4 28.392 2.4 27.959V16.531H21.6V27.959ZM21.6 13.2658H2.4V8.36808C2.4 7.93509 2.52643 7.51984 2.75147 7.21367C2.97652 6.9075 3.28174 6.7355 3.6 6.7355H6V8.36808C6 8.80106 6.12643 9.21632 6.35147 9.52248C6.57652 9.82865 6.88174 10.0007 7.2 10.0007C7.51826 10.0007 7.82348 9.82865 8.04853 9.52248C8.27357 9.21632 8.4 8.80106 8.4 8.36808V6.7355H15.6V8.36808C15.6 8.80106 15.7264 9.21632 15.9515 9.52248C16.1765 9.82865 16.4817 10.0007 16.8 10.0007C17.1183 10.0007 17.4235 9.82865 17.6485 9.52248C17.8736 9.21632 18 8.80106 18 8.36808V6.7355H20.4C20.7183 6.7355 21.0235 6.9075 21.2485 7.21367C21.4736 7.51984 21.6 7.93509 21.6 8.36808V13.2658Z" fill="#5BE4A8"/>
</svg>
