<svg width="44" height="44" viewBox="0 0 44 44" fill="none" xmlns="http://www.w3.org/2000/svg">
<path d="M24.7004 3.10002C24.7004 2.38394 24.4159 1.69718 23.9096 1.19084C23.4032 0.684488 22.7165 0.400024 22.0004 0.400024C21.2843 0.400024 20.5975 0.684488 20.0912 1.19084C19.5848 1.69718 19.3004 2.38394 19.3004 3.10002V5.80002C19.3004 6.51611 19.5848 7.20286 20.0912 7.70921C20.5975 8.21556 21.2843 8.50002 22.0004 8.50002C22.7165 8.50002 23.4032 8.21556 23.9096 7.70921C24.4159 7.20286 24.7004 6.51611 24.7004 5.80002V3.10002ZM37.2743 10.5439C37.7661 10.0347 38.0382 9.35267 38.0321 8.64474C38.0259 7.93681 37.742 7.25961 37.2414 6.75901C36.7408 6.25841 36.0636 5.97445 35.3557 5.9683C34.6477 5.96215 33.9657 6.2343 33.4565 6.72612L31.5476 8.63502C31.0558 9.14425 30.7836 9.82627 30.7898 10.5342C30.7959 11.2421 31.0799 11.9193 31.5805 12.4199C32.0811 12.9205 32.7583 13.2045 33.4662 13.2106C34.1741 13.2168 34.8562 12.9446 35.3654 12.4528L37.2743 10.5439ZM43.6004 22C43.6004 22.7161 43.3159 23.4029 42.8096 23.9092C42.3032 24.4156 41.6165 24.7 40.9004 24.7H38.2004C37.4843 24.7 36.7975 24.4156 36.2912 23.9092C35.7848 23.4029 35.5004 22.7161 35.5004 22C35.5004 21.2839 35.7848 20.5972 36.2912 20.0908C36.7975 19.5845 37.4843 19.3 38.2004 19.3H40.9004C41.6165 19.3 42.3032 19.5845 42.8096 20.0908C43.3159 20.5972 43.6004 21.2839 43.6004 22ZM8.63539 12.4528C8.88445 12.7107 9.18239 12.9164 9.5118 13.0579C9.84121 13.1994 10.1955 13.2739 10.554 13.277C10.9125 13.2801 11.268 13.2118 11.5999 13.076C11.9317 12.9403 12.2331 12.7398 12.4867 12.4863C12.7402 12.2328 12.9406 11.9313 13.0764 11.5995C13.2122 11.2677 13.2805 10.9121 13.2774 10.5536C13.2742 10.1951 13.1998 9.84084 13.0583 9.51143C12.9168 9.18202 12.7111 8.88409 12.4532 8.63502L10.5443 6.72612C10.0351 6.2343 9.35304 5.96215 8.6451 5.9683C7.93717 5.97445 7.25998 6.25841 6.75938 6.75901C6.25878 7.25961 5.97482 7.93681 5.96867 8.64474C5.96252 9.35267 6.23466 10.0347 6.72649 10.5439L8.63539 12.4528ZM8.50039 22C8.50039 22.7161 8.21592 23.4029 7.70958 23.9092C7.20323 24.4156 6.51647 24.7 5.80039 24.7H3.10039C2.38431 24.7 1.69755 24.4156 1.1912 23.9092C0.684854 23.4029 0.400391 22.7161 0.400391 22C0.400391 21.2839 0.684854 20.5972 1.1912 20.0908C1.69755 19.5845 2.38431 19.3 3.10039 19.3H5.80039C6.51647 19.3 7.20323 19.5845 7.70958 20.0908C8.21592 20.5972 8.50039 21.2839 8.50039 22ZM16.6004 38.2V35.5H27.4004V38.2C27.4004 39.6322 26.8315 41.0057 25.8188 42.0184C24.8061 43.0311 23.4326 43.6 22.0004 43.6C20.5682 43.6 19.1947 43.0311 18.182 42.0184C17.1693 41.0057 16.6004 39.6322 16.6004 38.2ZM27.4004 32.8C27.4409 31.882 27.962 31.0558 28.6883 30.4807C30.4505 29.0909 31.736 27.1866 32.3661 25.0325C32.9961 22.8785 32.9395 20.5816 32.2039 18.4612C31.4684 16.3408 30.0906 14.5022 28.2619 13.201C26.4333 11.8998 24.2447 11.2006 22.0004 11.2006C19.756 11.2006 17.5675 11.8998 15.7388 13.201C13.9102 14.5022 12.5324 16.3408 11.7968 18.4612C11.0613 20.5816 11.0046 22.8785 11.6347 25.0325C12.2648 27.1866 13.5502 29.0909 15.3125 30.4807C16.0415 31.0558 16.5599 31.882 16.5977 32.8H27.4031H27.4004Z" fill="#404040"/>
</svg>
