<svg width="48" height="41" viewBox="0 0 48 41" fill="none" xmlns="http://www.w3.org/2000/svg">
<path d="M46.965 3.12L34.5 7.005V13.095H31.5V7.53L18 0.615V5.595H15V0L0.495016 6C0.351211 6.05856 0.227702 6.15795 0.139736 6.2859C0.0517701 6.41385 0.0031981 6.56476 1.62053e-05 6.72V37.77C-0.00082753 37.9022 0.0312882 38.0324 0.0934583 38.1491C0.155628 38.2657 0.245892 38.365 0.356083 38.4379C0.466274 38.5109 0.592917 38.5552 0.724555 38.567C0.856194 38.5787 0.988676 38.5574 1.11002 38.505L15 32.775V26.595H18V33.39L31.5 40.305V34.095H34.5V39.78L47.445 35.73C47.6072 35.6787 47.7486 35.5766 47.8485 35.4389C47.9484 35.3012 48.0015 35.1351 48 34.965V3.885C48.0011 3.75945 47.9725 3.63541 47.9165 3.52305C47.8604 3.4107 47.7786 3.31321 47.6776 3.23858C47.5766 3.16395 47.4594 3.11429 47.3356 3.09368C47.2117 3.07307 47.0847 3.08209 46.965 3.12ZM18 23.595H15V17.595H18V23.595ZM18 14.595H15V8.595H18V14.595ZM34.5 31.095H31.5V25.095H34.5V31.095ZM34.5 22.095H31.5V16.095H34.5V22.095Z" fill="#404040"/>
</svg>
