<svg xmlns="http://www.w3.org/2000/svg" width="150" height="94.019" viewBox="0 0 150 94.019">
  <g id="img-no-data" transform="translate(0 -95.54)">
    <rect id="Rectangle_257" data-name="Rectangle 257" width="131.543" height="90.82" rx="2" transform="translate(9.485 96.141)" fill="#e9ecff"/>
    <path id="Path_3252" data-name="Path 3252" d="M7.374,375.8h145.9v1.886a7.429,7.429,0,0,1-7.429,7.429H14.8a7.429,7.429,0,0,1-7.429-7.429V375.8Z" transform="translate(-5.214 -198.153)" fill="#abb2e7"/>
    <g id="Group_1131" data-name="Group 1131" transform="translate(0 95.54)">
      <path id="Path_3253" data-name="Path 3253" d="M26.8,173.432h0a2.346,2.346,0,0,0,2.348-2.341l.09-64.395a6.493,6.493,0,0,1,6.49-6.469H148.939a6.491,6.491,0,0,1,6.49,6.475v64.4a2.35,2.35,0,0,0,4.7,0V106.705a11.189,11.189,0,0,0-11.19-11.165H35.731a11.191,11.191,0,0,0-11.187,11.15l-.09,64.395a2.346,2.346,0,0,0,2.345,2.347Z" transform="translate(-17.29 -95.54)" fill="#7a77a7"/>
      <path id="Path_3254" data-name="Path 3254" d="M89.076,371.055a2.346,2.346,0,0,0-2.344,2.5,2.4,2.4,0,0,0,2.42,2.188h55.7a6.294,6.294,0,0,1-5.828,3.926H10.98a6.294,6.294,0,0,1-5.828-3.926H60.946a2.4,2.4,0,0,0,2.42-2.188,2.346,2.346,0,0,0-2.344-2.5H2.344A2.344,2.344,0,0,0,0,373.4a10.982,10.982,0,0,0,10.98,10.957H139.02A10.981,10.981,0,0,0,150,373.4a2.344,2.344,0,0,0-2.344-2.347Z" transform="translate(0 -290.338)" fill="#7a77a7"/>
      <path id="Path_3255" data-name="Path 3255" d="M160.385,187.268a2.352,2.352,0,0,0,3.321,0l3.164-3.157,3.164,3.157a2.346,2.346,0,0,0,3.321-3.315l-3.164-3.157,3.164-3.157a2.346,2.346,0,0,0-3.321-3.315l-3.164,3.158-3.164-3.158a2.346,2.346,0,0,0-3.321,3.315l3.164,3.157-3.164,3.157a2.341,2.341,0,0,0,0,3.315Z" transform="translate(-112.911 -150.756)" fill="#7a77a7"/>
      <path id="Path_3256" data-name="Path 3256" d="M304.025,187.268a2.352,2.352,0,0,0,3.321,0l3.164-3.157,3.164,3.157A2.348,2.348,0,0,0,317,183.953l-3.164-3.157L317,177.639a2.346,2.346,0,0,0-3.321-3.315l-3.164,3.158-3.164-3.158a2.346,2.346,0,0,0-3.321,3.315l3.164,3.157-3.164,3.157a2.341,2.341,0,0,0,0,3.315Z" transform="translate(-214.469 -150.756)" fill="#7a77a7"/>
      <path id="Path_3257" data-name="Path 3257" d="M137.732,272.791a2.351,2.351,0,0,0,3.269.583l5.74-3.99a2.711,2.711,0,0,1,3.081,0l5.737,3.99a7.431,7.431,0,0,0,8.451,0l5.739-3.99a2.712,2.712,0,0,1,3.081,0l5.739,3.99a7.431,7.431,0,0,0,8.451,0l5.739-3.99a2.712,2.712,0,0,1,3.081,0l7.322,5.092a2.345,2.345,0,1,0,2.685-3.846l-7.323-5.092a7.431,7.431,0,0,0-8.451,0l-5.738,3.991a2.713,2.713,0,0,1-3.081,0l-5.739-3.991a7.431,7.431,0,0,0-8.451,0l-5.739,3.991a2.711,2.711,0,0,1-3.081,0l-5.739-3.991a7.431,7.431,0,0,0-8.451,0l-5.739,3.991a2.341,2.341,0,0,0-.584,3.263Z" transform="translate(-97.083 -214.801)" fill="#7a77a7"/>
    </g>
  </g>
</svg>
