<svg width="17" height="14" viewBox="0 0 17 14" fill="none" xmlns="http://www.w3.org/2000/svg">
<path id="Vector" d="M14.9997 12.1667L15.5 12.167V11.6667V1.67583V1.17618L15.0003 1.17583L1.66701 1.16667L1.16667 1.16632V1.66667V11.6575V12.1572L1.66632 12.1575L14.9997 12.1667ZM7.59583 5C7.59583 5.68302 7.11219 6.16667 6.42917 6.16667C5.74547 6.16667 5.2625 5.68319 5.2625 5C5.2625 4.31698 5.74614 3.83333 6.42917 3.83333C7.11219 3.83333 7.59583 4.31698 7.59583 5ZM1.66667 0.5H15C15.6739 0.5 16.1667 1.00687 16.1667 1.5625V11.7708C16.1667 12.3265 15.6739 12.8333 15 12.8333H1.66667C0.992766 12.8333 0.5 12.3265 0.5 11.7708V1.5625C0.5 1.00687 0.992766 0.5 1.66667 0.5ZM10.5 4.66667H12.8333V5.33333H10.5V4.66667ZM11.3333 8H12.8333V8.66667H11.3333V8ZM6.42917 7.79167C7.16547 7.79167 7.83173 8.04747 8.30707 8.41762C8.74314 8.7572 8.9757 9.15472 9.01795 9.5H3.84039C3.88264 9.15472 4.11519 8.7572 4.55126 8.41762C5.0266 8.04747 5.69286 7.79167 6.42917 7.79167Z" fill="#5BE4A8" stroke="#404040"/>
</svg>
