<svg width="18" height="18" viewBox="0 0 18 18" fill="none" xmlns="http://www.w3.org/2000/svg">
<path d="M2.83333 4.55553V5.05553H3.33333H10H10.5V4.55553V3.41109V2.91109H10H3.33333H2.83333V3.41109V4.55553ZM10.5 7.96375V7.88886V7.38886H10H3.33333H2.83333V7.88886V8.99997V9.49997H3.33333H8.98869L8.87938 9.61108H2.77778C2.76305 9.61108 2.74892 9.60523 2.7385 9.59481C2.72808 9.58439 2.72222 9.57026 2.72222 9.55552V7.37775C2.72222 7.36301 2.72808 7.34888 2.7385 7.33846C2.74892 7.32804 2.76305 7.32219 2.77778 7.32219H10.5556C10.5703 7.32219 10.5844 7.32804 10.5948 7.33846C10.6053 7.34888 10.6111 7.36301 10.6111 7.37775V7.85081L10.5 7.96375ZM4.56502 16.2777H0.555556C0.54082 16.2777 0.526689 16.2719 0.516272 16.2615C0.505853 16.2511 0.5 16.2369 0.5 16.2222V0.666639C0.5 0.651905 0.505853 0.637775 0.516272 0.627356C0.52669 0.616937 0.540821 0.611084 0.555556 0.611084H12.7778C12.7925 0.611084 12.8067 0.616937 12.8171 0.627356C12.8275 0.637773 12.8333 0.651903 12.8333 0.666639V5.6512L12.7222 5.7562V1.22219V0.722195H12.2222H1.11111H0.611112V1.22219V15.7V16.2H1.11111H4.58293L4.56502 16.2777ZM10.943 10.5306C11.0829 10.477 11.2105 10.394 11.3167 10.2864C11.4212 10.1805 11.5017 10.0543 11.5536 9.91635L14.7096 6.74193C14.7097 6.74183 14.7098 6.74173 14.7099 6.74163C14.7465 6.70503 14.7899 6.67598 14.8377 6.65615C14.8856 6.63626 14.937 6.62602 14.9889 6.62602C15.0408 6.62602 15.0922 6.63626 15.1401 6.65615C15.188 6.67604 15.2315 6.70519 15.2682 6.74193L15.2687 6.74242L16.9944 8.46819V8.50247L17.142 8.64911C17.1784 8.68525 17.2073 8.72823 17.227 8.77557C17.241 8.80916 17.2501 8.84447 17.2543 8.88046L16.9313 8.55753L15.3536 6.97975L15.0022 6.62843L14.6487 6.97752L13.7654 7.84975L13.4871 8.12446L13.487 8.12431L13.4748 8.13666L13.4073 8.20328L13.4081 8.20407L13.1335 8.48164L7.42235 14.2539L7.32509 14.3522L7.29216 14.4865L6.79772 16.5031L6.65011 17.1052C6.62609 17.0655 6.60923 17.0218 6.60035 16.9762C6.59081 16.9272 6.59067 16.8769 6.5999 16.8279L7.19327 14.3021L10.943 10.5306ZM6.88541 17.2819C6.85256 17.2731 6.82098 17.2601 6.79147 17.2431L7.39138 17.1104L9.42471 16.6604L9.56787 16.6287L9.67124 16.5247L15.4101 10.7525L15.7616 10.399L15.7575 10.3948L16.0301 10.1324L16.9246 9.27129L17.2559 8.95233C17.2529 8.99425 17.2432 9.03547 17.227 9.07437C17.2073 9.12172 17.1784 9.1647 17.142 9.20084L17.1405 9.20236L9.63274 16.7266L7.09969 17.2854C7.08773 17.2866 7.07566 17.2862 7.06377 17.2843L6.99882 17.2737L6.93334 17.2803C6.91741 17.2819 6.9014 17.2824 6.88541 17.2819ZM2.77778 11.7222H6.75956L6.64845 11.8333H3.33334H2.83334V12.3333V13.4666V13.9666H3.33334H5.08173L5.06891 14.0222H2.77778C2.76305 14.0222 2.74892 14.0163 2.7385 14.0059C2.72808 13.9955 2.72222 13.9814 2.72222 13.9666V11.7778C2.72222 11.763 2.72808 11.7489 2.7385 11.7385C2.74891 11.7281 2.76304 11.7222 2.77778 11.7222ZM10.5556 5.16664H2.77778C2.76305 5.16664 2.74892 5.16079 2.7385 5.15037C2.72808 5.13995 2.72222 5.12582 2.72222 5.11109V2.88886C2.72222 2.87413 2.72808 2.86 2.7385 2.84958C2.74891 2.83916 2.76305 2.83331 2.77778 2.83331H10.5556C10.5703 2.83331 10.5844 2.83916 10.5948 2.84958C10.6053 2.86 10.6111 2.87413 10.6111 2.88886V5.11109C10.6111 5.12582 10.6053 5.13995 10.5948 5.15037C10.5844 5.16079 10.5703 5.16664 10.5556 5.16664Z" fill="#5BE4A8" stroke="#404040"/>
</svg>
