<svg width="20" height="20" viewBox="0 0 20 20" fill="none" xmlns="http://www.w3.org/2000/svg">
<path d="M10.0013 7.49999C9.33826 7.49999 8.70237 7.76338 8.23353 8.23222C7.76469 8.70106 7.5013 9.33695 7.5013 9.99999C7.5013 10.663 7.76469 11.2989 8.23353 11.7678C8.70237 12.2366 9.33826 12.5 10.0013 12.5C10.6643 12.5 11.3002 12.2366 11.7691 11.7678C12.2379 11.2989 12.5013 10.663 12.5013 9.99999C12.5013 9.33695 12.2379 8.70106 11.7691 8.23222C11.3002 7.76338 10.6643 7.49999 10.0013 7.49999ZM10.0013 5.83332C11.1064 5.83332 12.1662 6.27231 12.9476 7.05371C13.729 7.83511 14.168 8.89492 14.168 9.99999C14.168 11.1051 13.729 12.1649 12.9476 12.9463C12.1662 13.7277 11.1064 14.1667 10.0013 14.1667C8.89623 14.1667 7.83642 13.7277 7.05502 12.9463C6.27362 12.1649 5.83463 11.1051 5.83463 9.99999C5.83463 8.89492 6.27362 7.83511 7.05502 7.05371C7.83642 6.27231 8.89623 5.83332 10.0013 5.83332ZM15.418 5.62499C15.418 5.90126 15.3082 6.16621 15.1129 6.36156C14.9175 6.55691 14.6526 6.66666 14.3763 6.66666C14.1 6.66666 13.8351 6.55691 13.6397 6.36156C13.4444 6.16621 13.3346 5.90126 13.3346 5.62499C13.3346 5.34872 13.4444 5.08377 13.6397 4.88842C13.8351 4.69307 14.1 4.58332 14.3763 4.58332C14.6526 4.58332 14.9175 4.69307 15.1129 4.88842C15.3082 5.08377 15.418 5.34872 15.418 5.62499ZM10.0013 3.33332C7.93963 3.33332 7.60297 3.33916 6.6438 3.38166C5.99047 3.41249 5.55213 3.49999 5.14547 3.65832C4.80515 3.78327 4.49748 3.98354 4.24547 4.24416C3.98464 4.49616 3.7841 4.80381 3.6588 5.14416C3.50047 5.55249 3.41297 5.98999 3.38297 6.64249C3.33964 7.56249 3.3338 7.88416 3.3338 9.99999C3.3338 12.0625 3.33964 12.3983 3.38214 13.3575C3.41297 14.01 3.50047 14.4492 3.65797 14.855C3.79964 15.2175 3.9663 15.4783 4.24297 15.755C4.5238 16.035 4.78464 16.2025 5.14297 16.3408C5.55463 16.5 5.99297 16.5883 6.64297 16.6183C7.56297 16.6617 7.88463 16.6667 10.0005 16.6667C12.063 16.6667 12.3988 16.6608 13.358 16.6183C14.0096 16.5875 14.448 16.5 14.8555 16.3425C15.1955 16.2169 15.503 16.0167 15.7555 15.7567C16.0363 15.4767 16.2038 15.2158 16.3421 14.8567C16.5005 14.4467 16.5888 14.0083 16.6188 13.3567C16.6621 12.4375 16.6671 12.115 16.6671 9.99999C16.6671 7.93832 16.6613 7.60166 16.6188 6.64249C16.588 5.99082 16.4996 5.55082 16.3421 5.14416C16.2165 4.80417 16.0163 4.49664 15.7563 4.24416C15.5044 3.98319 15.1967 3.78263 14.8563 3.65749C14.448 3.49916 14.0096 3.41166 13.358 3.38166C12.4388 3.33832 12.118 3.33332 10.0013 3.33332ZM10.0013 1.66666C12.2655 1.66666 12.548 1.67499 13.4371 1.71666C14.3238 1.75832 14.9288 1.89749 15.4596 2.10416C16.0096 2.31582 16.473 2.60249 16.9363 3.06499C17.36 3.48157 17.6879 3.98548 17.8971 4.54166C18.103 5.07249 18.243 5.67749 18.2846 6.56499C18.3238 7.45332 18.3346 7.73582 18.3346 9.99999C18.3346 12.2642 18.3263 12.5467 18.2846 13.435C18.243 14.3225 18.103 14.9267 17.8971 15.4583C17.6885 16.0148 17.3605 16.5188 16.9363 16.935C16.5196 17.3586 16.0157 17.6864 15.4596 17.8958C14.9288 18.1017 14.3238 18.2417 13.4371 18.2833C12.548 18.3225 12.2655 18.3333 10.0013 18.3333C7.73713 18.3333 7.45463 18.325 6.56547 18.2833C5.6788 18.2417 5.07464 18.1017 4.54297 17.8958C3.98657 17.687 3.48257 17.3591 3.0663 16.935C2.64249 16.5185 2.3146 16.0145 2.10547 15.4583C1.8988 14.9275 1.75964 14.3225 1.71797 13.435C1.67797 12.5467 1.66797 12.2642 1.66797 9.99999C1.66797 7.73582 1.6763 7.45332 1.71797 6.56499C1.75964 5.67666 1.8988 5.07332 2.10547 4.54166C2.314 3.98514 2.64197 3.48109 3.0663 3.06499C3.48269 2.64102 3.98666 2.3131 4.54297 2.10416C5.0738 1.89749 5.67797 1.75832 6.56547 1.71666C7.45463 1.67749 7.73713 1.66666 10.0013 1.66666Z" fill="black"/>
</svg>
