<svg width="21" height="21" viewBox="0 0 21 21" fill="none" xmlns="http://www.w3.org/2000/svg">
<path d="M12.25 10.5L9.1875 12.25V8.75L12.25 10.5Z" fill="black" stroke="black" stroke-width="1.5" stroke-linecap="round" stroke-linejoin="round"/>
<path d="M1.75 11.1186V9.88051C1.75 7.34738 1.75 6.08038 2.54187 5.26576C3.33462 4.45026 4.58237 4.41526 7.077 4.34438C8.25825 4.31113 9.46575 4.28751 10.5 4.28751C11.5334 4.28751 12.7409 4.31113 13.923 4.34438C16.4176 4.41526 17.6654 4.45026 18.4572 5.26576C19.25 6.08038 19.25 7.34826 19.25 9.88051V11.1186C19.25 13.6526 19.25 14.9188 18.4581 15.7343C17.6654 16.5489 16.4185 16.5848 13.923 16.6548C12.7417 16.6889 11.5342 16.7125 10.5 16.7125C9.35879 16.7091 8.21768 16.6898 7.077 16.6548C4.58237 16.5848 3.33462 16.5498 2.54187 15.7343C1.75 14.9188 1.75 13.6518 1.75 11.1195V11.1186Z" stroke="black" stroke-width="1.5"/>
</svg>
