<svg width="84" height="84" viewBox="0 0 84 84" fill="none" xmlns="http://www.w3.org/2000/svg">
<path d="M83.5 42C83.5 64.9198 64.9198 83.5 42 83.5C19.0802 83.5 0.5 64.9198 0.5 42C0.5 19.0802 19.0802 0.5 42 0.5C64.9198 0.5 83.5 19.0802 83.5 42ZM74.8846 42C74.8846 60.1617 60.1617 74.8846 42 74.8846C23.8383 74.8846 9.11539 60.1617 9.11539 42C9.11539 23.8383 23.8383 9.11539 42 9.11539C60.1617 9.11539 74.8846 23.8383 74.8846 42ZM42 75.8846C60.714 75.8846 75.8846 60.714 75.8846 42C75.8846 23.286 60.714 8.11539 42 8.11539C23.286 8.11539 8.11539 23.286 8.11539 42C8.11539 60.714 23.286 75.8846 42 75.8846ZM66.2692 42C66.2692 55.4035 55.4035 66.2692 42 66.2692C28.5965 66.2692 17.7308 55.4035 17.7308 42C17.7308 28.5965 28.5965 17.7308 42 17.7308C55.4035 17.7308 66.2692 28.5965 66.2692 42ZM42 67.2692C55.9558 67.2692 67.2692 55.9558 67.2692 42C67.2692 28.0442 55.9558 16.7308 42 16.7308C28.0442 16.7308 16.7308 28.0442 16.7308 42C16.7308 55.9558 28.0442 67.2692 42 67.2692ZM57.6539 42C57.6539 50.6454 50.6454 57.6539 42 57.6539C33.3546 57.6539 26.3462 50.6454 26.3462 42C26.3462 33.3546 33.3546 26.3462 42 26.3462C50.6454 26.3462 57.6539 33.3546 57.6539 42ZM42 58.6539C51.1977 58.6539 58.6539 51.1977 58.6539 42C58.6539 32.8023 51.1977 25.3462 42 25.3462C32.8023 25.3462 25.3462 32.8023 25.3462 42C25.3462 51.1977 32.8023 58.6539 42 58.6539ZM49.0385 42C49.0385 45.8872 45.8872 49.0385 42 49.0385C38.1128 49.0385 34.9615 45.8872 34.9615 42C34.9615 38.1128 38.1128 34.9615 42 34.9615C45.8872 34.9615 49.0385 38.1128 49.0385 42ZM42 50.0385C46.4395 50.0385 50.0385 46.4395 50.0385 42C50.0385 37.5605 46.4395 33.9615 42 33.9615C37.5605 33.9615 33.9615 37.5605 33.9615 42C33.9615 46.4395 37.5605 50.0385 42 50.0385Z" stroke="#5BE4A8"/>
</svg>
