<svg width="19" height="19" viewBox="0 0 19 19" fill="none" xmlns="http://www.w3.org/2000/svg">
<path d="M6.25 8.83752C7.24456 8.83752 8.19839 8.46219 8.90165 7.79409C9.60491 7.12599 10 6.21986 10 5.27502C10 4.33019 9.60491 3.42405 8.90165 2.75596C8.19839 2.08786 7.24456 1.71252 6.25 1.71252C5.25544 1.71252 4.30161 2.08786 3.59835 2.75596C2.89509 3.42405 2.5 4.33019 2.5 5.27502C2.5 6.21986 2.89509 7.12599 3.59835 7.79409C4.30161 8.46219 5.25544 8.83752 6.25 8.83752ZM6.25 8.83752C7.75975 8.83752 9.079 9.37902 10.0173 10.2789C10.5736 10.8146 10.9898 11.467 11.2323 12.1834M6.25 8.83752C3.25 8.83752 1 10.975 1 13.825V17.3875H8.5M9.25 14.4121L12.3925 16.675L17.5 10.2625" stroke="#404040" stroke-width="1.5"/>
</svg>
