<svg width="20" height="20" viewBox="0 0 20 20" fill="none" xmlns="http://www.w3.org/2000/svg">
<path d="M10 0C4.47715 0 0 4.47715 0 10C0 15.5229 4.47715 20 10 20C15.5229 20 20 15.5229 20 10C20 4.47715 15.5229 0 10 0ZM4.6859 5.02723H15.3134V14.9728H4.6859V5.02723ZM5.99608 6.32662V13.674H14.0039V6.32662H5.99608ZM6.8693 7.2638H13.1092V10.5218H6.8693V7.2638ZM6.8693 11.0866H8.63665V12.854H6.8693V11.0866ZM9.10523 11.0866H10.8732V12.854H9.10523V11.0866ZM11.3412 11.0866H13.1092V12.854H11.3412V11.0866Z" fill="#5BE4A8"/>
</svg>
