<svg width="87" height="87" viewBox="0 0 87 87" fill="none" xmlns="http://www.w3.org/2000/svg">
<path d="M43.2057 30.8582C36.2662 30.8582 30.6304 36.5046 30.6304 43.4572C30.6304 50.4098 36.2662 56.0562 43.2057 56.0562C50.1451 56.0562 55.7809 50.4098 55.7809 43.4572C55.7809 36.5046 50.1451 30.8582 43.2057 30.8582ZM43.2057 51.0126C39.054 51.0126 35.6645 47.6167 35.6645 43.4572C35.6645 39.2977 39.054 35.9018 43.2057 35.9018C47.3573 35.9018 50.7468 39.2977 50.7468 43.4572C50.7468 47.6167 47.3573 51.0126 43.2057 51.0126Z" fill="black"/>
<path d="M43.2056 47.0137L39.6556 43.457L43.2056 39.9004L46.7556 43.457L43.2056 47.0137Z" fill="black"/>
<path d="M65.7088 59.7334C65.9896 54.6697 65.769 49.6261 65.0068 44.6025C63.1015 32.0035 57.927 19.9872 49.6237 8.91532L43.2257 0.355225L36.8277 8.91532C28.5445 19.9872 23.37 32.0035 21.4446 44.6025C20.6824 49.606 20.4418 54.6697 20.7426 59.7334C17.8144 61.8433 15.3876 64.5962 13.6226 67.751C11.5969 71.4081 10.5339 75.5475 10.5339 79.7271V86.4787L15.7486 82.6407C18.3559 80.9127 21.3242 79.7472 24.4129 79.2247C25.3555 82.1987 26.0776 83.9067 27.0202 86.4988C28.6849 85.3936 32.6761 80.4505 40.7187 79.486V86.4787H45.7528V79.486C53.8154 80.4505 57.8066 85.3936 59.4512 86.4988C60.4139 83.8866 61.1159 82.1987 62.0585 79.2247C65.1472 79.7472 68.1156 80.9127 70.7229 82.6407L75.9375 86.4787V79.7271C75.9375 71.81 72.1469 64.3752 65.7288 59.7334H65.7088ZM15.7686 76.8134C16.3904 72.6138 18.3358 68.7758 21.3242 65.8019C21.7254 68.6552 22.2869 71.4885 23.0089 74.3419C20.5019 74.8241 18.055 75.648 15.7686 76.8134ZM57.0645 78.2602C53.5748 76.07 49.7039 74.7839 45.7528 74.4022V61.2606H40.7187V74.4022C36.7676 74.7839 32.8766 76.07 29.4069 78.2602C21.9059 55.3328 25.9171 31.903 40.8591 11.9495L43.2457 8.77466L45.6324 11.9495C60.5744 31.903 64.5856 55.3328 57.0846 78.2602H57.0645ZM63.4424 74.3419C64.1645 71.4885 64.726 68.6552 65.1272 65.8019C68.1155 68.7557 70.0811 72.6138 70.6828 76.8134C68.3963 75.6681 65.9495 74.8241 63.4424 74.3419Z" fill="black"/>
<path d="M0.285156 20.7708H15.548V25.8144H0.285156V20.7708Z" fill="black"/>
<path d="M70.8833 20.7708H86.1461V25.8144H70.8833V20.7708Z" fill="black"/>
<path d="M5.51988 2.90723L19.1983 9.29717L17.0723 13.8585L3.39392 7.46861L5.51988 2.90723Z" fill="black"/>
<path d="M80.9114 43.6781L67.233 37.2882L69.359 32.7268L83.0374 39.1167L80.9114 43.6781Z" fill="black"/>
<path d="M3.39392 39.1167L17.0723 32.7268L19.1983 37.2882L5.51988 43.6781L3.39392 39.1167Z" fill="black"/>
<path d="M80.9114 2.90723L83.0374 7.46861L69.359 13.8585L67.233 9.29717L80.9114 2.90723Z" fill="black"/>
</svg>
