<svg width="86" height="86" viewBox="0 0 86 86" fill="none" xmlns="http://www.w3.org/2000/svg">
<path d="M83.6797 10.1324L73.6917 15.1358L71.4655 10.6548L81.4535 5.65137L83.6797 10.1324Z" fill="black"/>
<path d="M81.4535 50.1397L71.4655 45.1363L73.6917 40.6553L83.6797 45.6587L81.4535 50.1397Z" fill="black"/>
<path d="M75.0757 25.4038H85.2242V30.4073H75.0757V25.4038Z" fill="black"/>
<path d="M3.8156 5.65137L13.8036 10.6548L11.5774 15.1358L1.58936 10.1324L3.8156 5.65137Z" fill="black"/>
<path d="M3.8156 50.1397L1.58936 45.6587L11.5774 40.6553L13.8036 45.1363L3.8156 50.1397Z" fill="black"/>
<path d="M0.0450439 25.4038H10.1935V30.4073H0.0450439V25.4038Z" fill="black"/>
<path d="M35.1436 80.7432H50.1256V85.7466H35.1436V80.7432Z" fill="black"/>
<path d="M70.1016 27.8956C70.1016 12.7245 57.787 0.386719 42.6446 0.386719C27.5021 0.386719 15.1875 12.7245 15.1875 27.8956C15.1875 38.2441 21.0038 47.6683 30.1695 52.3703V60.4079H25.1755V65.4114H30.1695V75.7398H55.1196V65.4114H60.1136V60.4079H55.1196V52.3703C64.2652 47.6683 70.1016 38.2441 70.1016 27.8956ZM50.1255 70.7363H35.1435V65.4114H50.1255V70.7363ZM40.1375 32.8991C40.1375 31.5126 41.2607 30.4074 42.6245 30.4074C43.9883 30.4074 45.1115 31.5327 45.1115 32.8991C45.1115 34.2655 43.9883 35.3907 42.6245 35.3907C41.2607 35.3907 40.1375 34.2655 40.1375 32.8991ZM45.1315 60.4079V39.9722C48.0397 38.9474 50.1255 36.1543 50.1255 32.8991C50.1255 28.7597 46.7761 25.4039 42.6446 25.4039C38.513 25.4039 35.1636 28.7597 35.1636 32.8991C35.1636 36.1543 37.2494 38.9474 40.1576 39.9722V60.4079H35.1636V49.1552L33.6794 48.4921C25.4964 44.8953 20.2016 36.7973 20.2016 27.8956C20.2016 15.4774 30.2698 5.39016 42.6646 5.39016C55.0594 5.39016 65.1276 15.4774 65.1276 27.8956C65.1276 36.7973 59.8328 44.8953 51.6498 48.4921L50.1657 49.1552V60.4079H45.1716H45.1315Z" fill="black"/>
</svg>
