<svg width="86" height="86" viewBox="0 0 86 86" fill="none" xmlns="http://www.w3.org/2000/svg">
<path d="M85.6277 80.4262H80.6538V43.9151L85.6277 48.8985V20.4652H57.2481L66.1731 29.4071L57.589 38.0074L38.335 23.6602L5.72349 46.889V0.371094H0.749512V85.4296H85.6478V80.4463L85.6277 80.4262ZM35.7277 43.8749V80.4262H20.8058V54.5047L35.7277 43.8749ZM40.7017 44.1161L55.784 55.3688V80.4463H40.7017V44.1361V44.1161ZM60.758 55.9515L75.6798 41.0015V80.4262H60.758V55.9515ZM38.2548 29.8291L58.0503 44.5782L73.1928 29.4071L69.2417 25.4486H80.6538V36.8822L76.7027 32.9236L58.4916 51.1691L38.1545 36.0181L5.70342 59.1264V52.9977L38.2347 29.8291H38.2548ZM5.72349 65.2551L15.8318 58.0614V80.4463H5.72349V65.2752V65.2551Z" fill="black"/>
</svg>
