<svg width="88" height="89" viewBox="0 0 88 89" fill="none" xmlns="http://www.w3.org/2000/svg">
<path d="M32.6659 42.3213L43.9777 36.3533L55.2894 42.3213L53.1233 29.7021L62.2891 20.7603L49.6335 18.9116L43.9777 7.41772L38.3218 18.9116L25.6663 20.7603L34.832 29.7021L32.6659 42.3213ZM41.7314 23.6136L43.9777 19.0522L46.224 23.6136L51.2581 24.337L47.6279 27.8937L48.4903 32.9172L43.9977 30.5461L39.5051 32.9172L40.3676 27.8937L36.7374 24.337L41.7715 23.6136H41.7314Z" fill="black"/>
<path d="M13.0108 10.6528C5.93089 10.6528 0.174805 16.4198 0.174805 23.5131C0.174805 30.6063 5.93089 36.3733 13.0108 36.3733H16.661C19.3486 45.7975 26.8295 53.2323 36.2961 55.9048V67.258H26.7293L21.5949 82.8712H15.7384V88.0153H72.237V82.8712H66.3805L61.2461 67.258H51.6793V55.9048C61.0657 53.2323 68.4864 45.7975 71.1539 36.3934H74.9647C82.0445 36.3934 87.8007 30.6264 87.8007 23.5332C87.8007 16.4399 82.0445 10.6729 74.9647 10.6729H72.217V5.34795H77.5319V0.203857H10.4235V5.34795H15.5579V10.6729H12.9907L13.0108 10.6528ZM13.0108 31.2292C8.75882 31.2292 5.30921 27.773 5.30921 23.5131C5.30921 19.2531 8.75882 15.7969 13.0108 15.7969H15.578V28.6572C15.578 29.5212 15.6181 30.3853 15.6984 31.2292H13.0108ZM60.9855 82.8511H26.9901L30.4397 72.382H57.5357L60.9855 82.8511ZM46.565 67.2379H41.4306V56.8292C42.273 56.9095 43.1353 56.9497 43.9977 56.9497C44.8602 56.9497 45.7226 56.9095 46.565 56.8292V67.2379ZM74.9847 15.7768C79.2367 15.7768 82.6863 19.233 82.6863 23.493C82.6863 27.7529 79.2367 31.2091 74.9847 31.2091H72.1368C72.217 30.3652 72.2571 29.5011 72.2571 28.6371V15.7768H75.0048H74.9847ZM67.1026 5.30777V28.6371C67.1026 41.3969 56.7335 51.7855 43.9977 51.7855C31.262 51.7855 20.7124 41.3969 20.7124 28.6371V5.30777H67.1026Z" fill="black"/>
</svg>
