<svg width="108" height="102" viewBox="0 0 108 102" fill="none" xmlns="http://www.w3.org/2000/svg">
<path d="M66.6797 1.07198L2.67913 45.5742C1.4667 46.4173 0.638836 47.7074 0.377647 49.1609C0.116459 50.6143 0.443348 52.112 1.2864 53.3244L33.0737 99.0391C33.9168 100.252 35.207 101.079 36.6604 101.341C38.1139 101.602 39.6115 101.275 40.824 100.432L104.824 55.9297C106.037 55.0866 106.865 53.7965 107.126 52.343C107.387 50.8896 107.06 49.3919 106.217 48.1795L74.4299 2.46472C73.5868 1.25229 72.2967 0.424418 70.8432 0.163228C69.3898 -0.0979651 67.8921 0.228927 66.6797 1.07198ZM98.1257 53.8058L41.4395 93.2221L45.9327 65.5478L40.432 64.6593L35.8015 93.209L8.27371 53.62L56.3459 62.1388C57.7944 62.3946 59.2854 62.0669 60.4931 61.2271C61.7008 60.3873 62.5271 59.1038 62.7916 57.6567L71.7816 8.40919L99.5955 48.4096L71.0747 43.2843L70.0929 48.7482L98.1257 53.8058ZM8.85218 48.0636L66.1555 8.21822L57.3118 56.652L8.85218 48.0636Z" fill="#4F4F4F"/>
</svg>
