<svg width="15" height="14" viewBox="0 0 15 14" fill="none" xmlns="http://www.w3.org/2000/svg">
<path d="M7.5 7.01613C6.80617 7.01613 6.12792 6.81039 5.55102 6.42492C4.97413 6.03944 4.52449 5.49156 4.25897 4.85054C3.99345 4.20953 3.92398 3.50417 4.05934 2.82368C4.1947 2.14318 4.52881 1.5181 5.01942 1.02749C5.51004 0.536878 6.13511 0.202768 6.81561 0.0674081C7.49611 -0.0679514 8.20146 0.00152 8.84248 0.267037C9.48349 0.532554 10.0314 0.982192 10.4168 1.55909C10.8023 2.13599 11.0081 2.81424 11.0081 3.50807C11.0081 4.43846 10.6385 5.33075 9.98058 5.98864C9.32269 6.64653 8.4304 7.01613 7.5 7.01613ZM7.5 1.40323C7.0837 1.40323 6.67675 1.52667 6.33061 1.75796C5.98448 1.98924 5.71469 2.31797 5.55538 2.70258C5.39607 3.08719 5.35439 3.5104 5.43561 3.9187C5.51682 4.327 5.71729 4.70204 6.01165 4.99641C6.30602 5.29078 6.68107 5.49125 7.08937 5.57246C7.49766 5.65368 7.92088 5.61199 8.30549 5.45268C8.6901 5.29337 9.01883 5.02359 9.25011 4.67745C9.48139 4.33131 9.60484 3.92436 9.60484 3.50807C9.60484 2.94983 9.38308 2.41445 8.98835 2.01972C8.59361 1.62499 8.05824 1.40323 7.5 1.40323ZM14.0484 13.5645C13.8631 13.5621 13.686 13.4874 13.555 13.3563C13.4239 13.2253 13.3492 13.0482 13.3468 12.8629C13.3468 11.0387 12.3552 9.82258 7.5 9.82258C2.64484 9.82258 1.65323 11.0387 1.65323 12.8629C1.65323 13.049 1.57931 13.2274 1.44773 13.359C1.31615 13.4906 1.13769 13.5645 0.951613 13.5645C0.765534 13.5645 0.587076 13.4906 0.455498 13.359C0.32392 13.2274 0.25 13.049 0.25 12.8629C0.25 8.41936 5.32968 8.41936 7.5 8.41936C9.67032 8.41936 14.75 8.41936 14.75 12.8629C14.7476 13.0482 14.6729 13.2253 14.5418 13.3563C14.4108 13.4874 14.2337 13.5621 14.0484 13.5645Z" fill="black"/>
</svg>
