<svg width="17" height="18" viewBox="0 0 17 18" fill="none" xmlns="http://www.w3.org/2000/svg">
<path d="M16 13.1667V14.8333C16 15.2754 15.8244 15.6993 15.5118 16.0118C15.1993 16.3244 14.7754 16.5 14.3333 16.5H2.66667C2.22464 16.5 1.80072 16.3244 1.48816 16.0118C1.17559 15.6993 1 15.2754 1 14.8333V13.1667M16 4.83333V3.16667C16 2.72464 15.8244 2.30072 15.5118 1.98816C15.1993 1.67559 14.7754 1.5 14.3333 1.5H2.66667C2.22464 1.5 1.80072 1.67559 1.48816 1.98816C1.17559 2.30072 1 2.72464 1 3.16667V4.83333M2.66667 9C2.66667 9 4.7875 4.83333 8.5 4.83333C12.2117 4.83333 14.3333 9 14.3333 9C14.3333 9 12.2117 13.1667 8.5 13.1667C4.7875 13.1667 2.66667 9 2.66667 9ZM8.5 9.83333C8.72101 9.83333 8.93298 9.74554 9.08926 9.58926C9.24554 9.43298 9.33333 9.22101 9.33333 9C9.33333 8.77899 9.24554 8.56702 9.08926 8.41074C8.93298 8.25446 8.72101 8.16667 8.5 8.16667C8.27899 8.16667 8.06702 8.25446 7.91074 8.41074C7.75446 8.56702 7.66667 8.77899 7.66667 9C7.66667 9.22101 7.75446 9.43298 7.91074 9.58926C8.06702 9.74554 8.27899 9.83333 8.5 9.83333Z" stroke="#404040" stroke-width="1.3" stroke-linecap="round" stroke-linejoin="round"/>
</svg>
