<svg width="40" height="40" viewBox="0 0 40 40" fill="none" xmlns="http://www.w3.org/2000/svg">
<g clip-path="url(#clip0_445_521)">
<path d="M22.597 19.6772L16.297 23.2772V16.0771L22.597 19.6772Z" stroke="#5BE4A8" stroke-width="2.5" stroke-linecap="round" stroke-linejoin="round"/>
<path d="M1 20.952V18.405C1 13.194 1 10.5876 2.629 8.91182C4.2598 7.23421 6.8266 7.16221 11.9584 7.01641C14.3884 6.94801 16.8724 6.89941 19 6.89941C21.1258 6.89941 23.6098 6.94801 26.0416 7.01641C31.1734 7.16221 33.7402 7.23421 35.3692 8.91182C37 10.5876 37 13.1958 37 18.405V20.952C37 26.1648 37 28.7694 35.371 30.447C33.7402 32.1228 31.1752 32.1966 26.0416 32.3406C23.6116 32.4108 21.1276 32.4594 19 32.4594C16.6524 32.4524 14.3049 32.4128 11.9584 32.3406C6.8266 32.1966 4.2598 32.1246 2.629 30.447C1 28.7694 1 26.163 1 20.9538V20.952Z" stroke="#5BE4A8" stroke-width="2.5"/>
</g>
<defs>
<clipPath id="clip0_445_521">
<rect width="40" height="40" fill="white"/>
</clipPath>
</defs>
</svg>
