<svg xmlns="http://www.w3.org/2000/svg" width="200" height="129.301" viewBox="0 0 200 129.301">
  <g id="img-banner-upload" transform="translate(0)">
    <path id="Path_3215" data-name="Path 3215" d="M614.652,266.135H487.7V193.712H614.652Z" transform="translate(-415.141 -191.693)" fill="#fff"/>
    <path id="Path_3216" data-name="Path 3216" d="M613.63,265.112H485.7v-73.4H613.63Zm-126.956-.978H612.653V192.69H486.674Z" transform="translate(-413.63 -190.181)" fill="#c7c7c7"/>
    <circle id="Ellipse_536" data-name="Ellipse 536" cx="13.561" cy="13.561" r="13.561" transform="translate(124 26)" fill="#f5a041"/>
    <path id="Path_3217" data-name="Path 3217" d="M505,4.617H481.63V0H505l2.307,2.308Z" transform="translate(-363.93)" fill="#c7c7c7"/>
    <path id="Path_3218" data-name="Path 3218" d="M410.547,4.617H387.175V0h23.372l2.307,2.308Z" transform="translate(-292.558)" fill="#050038"/>
    <path id="Path_3219" data-name="Path 3219" d="M317.272,4.617H293.9V0h23.373l2.307,2.308Z" transform="translate(-222.077)" fill="#3f53d9"/>
    <path id="Path_3220" data-name="Path 3220" d="M207.567,666.947l.072-.323c.016-.071,1.65-7.137,7.039-11.092s12.62-3.4,12.692-3.39l.33.028-.072.323c-.016.071-1.65,7.137-7.039,11.092s-12.62,3.4-12.692,3.39ZM215.02,656c-4.556,3.344-6.342,9-6.732,10.421,1.475.055,7.408.043,11.96-3.3s6.341-9,6.732-10.421C225.5,652.645,219.572,652.657,215.02,656Z" transform="translate(-203.469 -538.07)" fill="#050038"/>
    <path id="Path_3221" data-name="Path 3221" d="M215.7,634.791c-2.61,6.121-9.054,9.237-9.054,9.237s-2.214-6.808.4-12.929,9.054-9.237,9.054-9.237S218.306,628.67,215.7,634.791Z" transform="translate(-202.108 -515.212)" fill="#050038"/>
    <path id="Path_3222" data-name="Path 3222" d="M480.348,387.946a2.886,2.886,0,0,0-4.407-.413l-6.082-2.552-2.452,3.318,8.64,3.484a2.9,2.9,0,0,0,4.3-3.836Z" transform="translate(-399.81 -336.219)" fill="#fee6c2"/>
    <path id="Path_3223" data-name="Path 3223" d="M281.259,468.416h3.715l.361-13.214-4.077-1.116Z" transform="translate(-212.525 -343.117)" fill="#fee6c2"/>
    <path id="Path_3224" data-name="Path 3224" d="M468.18,693.209h7.32a4.663,4.663,0,0,1,4.663,4.663v.152H468.18Z" transform="translate(-400.394 -569.123)" fill="#050038"/>
    <path id="Path_3225" data-name="Path 3225" d="M167.03,468.415h3.715l1.768-14.331h-5.484Z" transform="translate(-126.211 -343.116)" fill="#fee6c2"/>
    <path id="Path_3226" data-name="Path 3226" d="M353.951,693.209h7.317a4.663,4.663,0,0,1,4.663,4.663v.152h-11.98Z" transform="translate(-314.08 -569.123)" fill="#050038"/>
    <path id="Path_3227" data-name="Path 3227" d="M449.2,360.553l12.277,6.956-2.173,5.54s-7.564-3.645-8.061-3.388S449.2,360.553,449.2,360.553Z" transform="translate(-386.054 -317.761)" fill="#3f53d9"/>
    <path id="Path_3228" data-name="Path 3228" d="M357.937,416.765l-2.8,26.589-8.4,30.658,7,1.12,20.152-42.693-3.639-22.95-6.157-2.239Z" transform="translate(-308.632 -353.046)" fill="#050038"/>
    <path id="Path_3229" data-name="Path 3229" d="M374.228,421.678s7,4.111,9.28,12.1c2.444,8.553,6.953,21.767,6.953,21.767l6.157,25.06,7.557-1.959-8.956-56.967-7.557-6.437-9.8-1.12Z" transform="translate(-329.402 -358.238)" fill="#050038"/>
    <circle id="Ellipse_537" data-name="Ellipse 537" cx="6.437" cy="6.437" r="6.437" transform="translate(55.636 6.773)" fill="#fee6c2"/>
    <path id="Path_3230" data-name="Path 3230" d="M383.974,274.712s-4.622-5.083-8.261-5.083c-1.17,0-9.31,9.07-9.566,15.622l-2.605,28.925s25.19,1.4,25.469.28S383.974,274.712,383.974,274.712Z" transform="translate(-321.328 -249.057)" fill="#3f53d9"/>
    <path id="Path_3231" data-name="Path 3231" d="M419.349,216.672a8.134,8.134,0,0,1,1.533.212,3.881,3.881,0,0,0,4.148-2.893,2.22,2.22,0,0,1,.212-.691,1.369,1.369,0,0,1,1.455-.443,11.237,11.237,0,0,0,1.572.382,2.408,2.408,0,0,0,2.078-1.176,3.988,3.988,0,0,0,.51-2.409l-.4.419a2.03,2.03,0,0,1-.181-1.1,1.28,1.28,0,0,0-1.212.31c-.352.038-.086-.654-.348-.892a.606.606,0,0,0-.426-.08,3.394,3.394,0,0,1-1.947-1.028,8.272,8.272,0,0,0-3.494-1.594,4.6,4.6,0,0,0-2.549.124,5.445,5.445,0,0,0-1.721,1.221,10.509,10.509,0,0,0-2.892,4.291,7.224,7.224,0,0,0-.035,4.189c.211.711.846,3.146,1.775,3.2C418.6,218.786,417.9,216.759,419.349,216.672Z" transform="translate(-360.482 -200.647)" fill="#050038"/>
    <path id="Path_3232" data-name="Path 3232" d="M207.147,133.571l-6.592,9.668L198.447,165.7Z" transform="translate(-149.951 -100.929)" fill="#050038" opacity="0.35"/>
    <path id="Path_3233" data-name="Path 3233" d="M370.078,447.392A2.886,2.886,0,0,0,369.5,443l1.141-6.5-3.779-1.656-1.482,9.2a2.9,2.9,0,0,0,4.694,3.344Z" transform="translate(-322.449 -373.902)" fill="#fee6c2"/>
    <path id="Path_3234" data-name="Path 3234" d="M371.97,281.186l-6.733,21.843s-2.5,13.919-1.381,16.158-1.08,6.646-1.08,6.646l6.437.56,3.129-22.876,5.547-17.428S380.086,279.787,371.97,281.186Z" transform="translate(-320.748 -257.637)" fill="#3f53d9"/>
    <rect id="Rectangle_245" data-name="Rectangle 245" width="24.887" height="20.489" transform="translate(74.342 64.35) rotate(-78.227)" fill="#c7c7c7"/>
    <rect id="Rectangle_246" data-name="Rectangle 246" width="23.834" height="19.436" transform="translate(74.837 63.915) rotate(-78.227)" fill="#fff"/>
    <g id="Group_1123" data-name="Group 1123" transform="translate(80.108 43.836)">
      <rect id="Rectangle_247" data-name="Rectangle 247" width="0.697" height="4.879" transform="translate(3.786 0.683) rotate(-78.227)" fill="#c7c7c7"/>
      <rect id="Rectangle_248" data-name="Rectangle 248" width="0.697" height="9.928" transform="translate(3.368 2.687) rotate(-78.227)" fill="#3f53d9"/>
      <rect id="Rectangle_249" data-name="Rectangle 249" width="0.697" height="7.277" transform="translate(3.116 4.626) rotate(-78.227)" fill="#c7c7c7"/>
      <rect id="Rectangle_250" data-name="Rectangle 250" width="0.697" height="2.418" transform="translate(2.534 6.69) rotate(-78.227)" fill="#c7c7c7"/>
      <rect id="Rectangle_251" data-name="Rectangle 251" width="0.697" height="5.889" transform="translate(2.107 8.735) rotate(-78.227)" fill="#3f53d9"/>
      <rect id="Rectangle_252" data-name="Rectangle 252" width="0.697" height="4.879" transform="translate(1.678 10.794) rotate(-78.227)" fill="#c7c7c7"/>
      <rect id="Rectangle_253" data-name="Rectangle 253" width="0.697" height="9.928" transform="translate(1.261 12.798) rotate(-78.227)" fill="#3f53d9"/>
      <rect id="Rectangle_254" data-name="Rectangle 254" width="0.697" height="7.277" transform="translate(1.009 14.737) rotate(-78.227)" fill="#c7c7c7"/>
      <rect id="Rectangle_255" data-name="Rectangle 255" width="0.697" height="2.418" transform="translate(0.426 16.801) rotate(-78.227)" fill="#c7c7c7"/>
      <rect id="Rectangle_256" data-name="Rectangle 256" width="0.697" height="5.889" transform="translate(0 18.846) rotate(-78.227)" fill="#c7c7c7"/>
    </g>
    <path id="Path_3235" data-name="Path 3235" d="M284.15,713.041H191.042a.244.244,0,1,1,0-.489H284.15a.245.245,0,0,1,0,.489Z" transform="translate(-190.797 -583.74)" fill="#c7c7c7"/>
    <path id="Path_3236" data-name="Path 3236" d="M517.979,338.875l-5.087-6.186a1.5,1.5,0,0,0-2.284-.038l-5.44,6.186a1.5,1.5,0,1,0,2.252,1.98l2.815-3.2v8.025a1.5,1.5,0,1,0,3,0v-7.817l2.429,2.954a1.5,1.5,0,0,0,2.316-1.9Z" transform="translate(-373.795 -300.143)" fill="#fff"/>
  </g>
</svg>
