<?xml version="1.0" encoding="utf-8"?>
<!-- Generator: Adobe Illustrator 26.0.2, SVG Export Plug-In . SVG Version: 6.00 Build 0)  -->
<svg version="1.1" id="Layer_1" xmlns="http://www.w3.org/2000/svg" xmlns:xlink="http://www.w3.org/1999/xlink" x="0px" y="0px"
	 viewBox="0 0 167 145" style="enable-background:new 0 0 167 145;" xml:space="preserve">
<style type="text/css">
	.st0{fill:#050038;}
	.st1{fill:#FFFFFF;}
	.st2{fill:#E9ECFF;}
	.st3{fill:url(#Path_7635_00000040538106534615026810000005072939226443699342_);}
	.st4{fill:#F5A041;}
	.st5{fill:url(#Path_7637_00000138541677548350227660000011589520859734619839_);}
	.st6{fill:url(#Path_7638_00000112629929229891908400000003334959157235316134_);}
	.st7{fill:url(#Path_7639_00000094609096616583744850000010379596086511924867_);}
	.st8{fill:url(#Path_7640_00000039093257769785320400000013134877448978566800_);}
	.st9{fill:url(#Path_7641_00000052087097708568164350000014382601643155516311_);}
	.st10{fill:url(#Path_7642_00000172409801557992204800000006898612683678889658_);}
	.st11{fill:url(#Path_7643_00000165213417454950717570000003459980113335439778_);}
	.st12{fill:#ABB2E7;}
	.st13{opacity:0.53;fill:#FFFFFF;enable-background:new    ;}
	.st14{clip-path:url(#SVGID_00000060001630918909431450000001753568317287202199_);}
	.st15{fill:#FEE6C2;}
	.st16{fill:url(#Path_7649_00000160870594469702209810000016355806822399784365_);}
	.st17{fill:url(#Path_7650_00000081611422376994603750000004642413868745624457_);}
	.st18{fill:url(#Path_7651_00000068674059987848354450000014904461040640136853_);}
	.st19{fill:url(#Path_7652_00000161620253320293951560000010895431462132982405_);}
	.st20{fill:url(#Path_7653_00000169535692990600444980000001448594935550371758_);}
	.st21{fill:url(#Path_7654_00000134965148711062547960000011100429767905177738_);}
	.st22{fill:url(#Path_7655_00000029740298527765762830000005272404579257347753_);}
	.st23{fill:#3F53D9;}
	.st24{fill:url(#Path_7659_00000026137771403920554350000017527023268572093110_);}
	.st25{fill:url(#Path_7661_00000071556764762684474950000016949156400102313347_);}
	.st26{fill:url(#Path_7662_00000078024542148045135890000008442840200132284842_);}
	.st27{fill:url(#Path_7663_00000081610329978983896510000003755662613635874477_);}
	.st28{fill:url(#Path_7668_00000137098590305948185860000011681105723489575857_);}
	.st29{fill:url(#Path_7669_00000149377988389408939600000014435772147044216225_);}
	.st30{fill:url(#Path_7670_00000039825885450297941290000006185721931076326016_);}
	.st31{fill:url(#Path_7671_00000062883357508236930280000010722696001246804907_);}
	.st32{fill:url(#Path_7672_00000168105809742933433250000012232064558272198021_);}
	.st33{fill:url(#Path_7674_00000129183574781269645380000001990115752963252400_);}
	.st34{fill:url(#Path_7676_00000124152364505519214740000015526221887119261316_);}
	.st35{fill:url(#Path_7678_00000144296785010630087400000008211431225406058146_);}
	.st36{fill:url(#Path_7683_00000079486540946179116240000004199616805931922589_);}
	.st37{fill:url(#Path_7685_00000026130187798825870750000005795109958626751120_);}
</style>
<g id="Group_3482" transform="translate(-239.463 -189.311)">
	<g id="Group_3463" transform="translate(239.463 213.732)">
		<g id="Group_3462" transform="translate(7.368)">
			<path id="Path_7633" class="st0" d="M147.1,88.5c0,1.4-1.2,2.6-2.6,2.6H4.2c-1.4,0-2.6-1.2-2.6-2.6L0.4,7.9
				c0.3-2.4,2.4-4.1,4.8-4l137.1-3.5c3.6-0.1,6.6,2.8,6.7,6.4c0,0.1,0,0.2,0,0.3L147.1,88.5z"/>
			<path id="Path_7634" class="st1" d="M144.5,86c0,1.4-1.1,2.5-2.5,2.5H7.6c-1.4,0-2.5-1.1-2.5-2.5L4,12.8c0.1-3.3,2.8-6,6.2-5.9
				c0.1,0,0.1,0,0.2,0l131.4-3.5c2.5-0.1,4.6,1.9,4.7,4.5c0,0.1,0,0.2,0,0.2L144.5,86z"/>
			<g id="Group_3461" transform="translate(5.287 6.846)">
				
					<image style="overflow:visible;enable-background:new    ;" width="4" height="33" id="Rectangle_4285" xlink:href="ACF9E269.png"  transform="matrix(0.1992 0 0 0.1992 0.84 37.7595)">
				</image>
				
					<image style="overflow:visible;enable-background:new    ;" width="242" height="148" id="Rectangle_4286" xlink:href="ACF9E26B.png"  transform="matrix(0.1992 0 0 0.1992 0.4418 0.3127)">
				</image>
			</g>
			<rect id="Rectangle_4287" x="14.3" y="9.7" class="st2" width="111.1" height="64.5"/>
		</g>
		
			<linearGradient id="Path_7635_00000158721710778491340500000009843020301345338042_" gradientUnits="userSpaceOnUse" x1="-596.6478" y1="394.3653" x2="-596.5728" y2="404.0033" gradientTransform="matrix(165.372 0 0 -7.083 98745.8047 2921.3186)">
			<stop  offset="0" style="stop-color:#09005D"/>
			<stop  offset="1" style="stop-color:#1A0F91"/>
		</linearGradient>
		<path id="Path_7635" style="fill:url(#Path_7635_00000158721710778491340500000009843020301345338042_);" d="M162.3,97.8H4
			c-2,0-3.5-1.6-3.5-3.5l0,0c0-2,1.6-3.5,3.5-3.5h158.3c2,0,3.5,1.6,3.5,3.5l0,0C165.8,96.2,164.2,97.7,162.3,97.8z"/>
	</g>
	<g id="Group_3464" transform="translate(318.54 189.311)">
		<path id="Path_7636" class="st4" d="M1.5,1.3c0.7-0.6,1.5-1,2.4-1l62.7,1.2c1.8,0,3.3,1.5,3.4,3.4v8.2c0,1.9-1.5,3.4-3.4,3.4
			l-53.5,0.4c-2.2,1.5-7.2,5.3-9.3,6.8c-0.1,0.1-0.3,0.1-0.5,0c-0.1-0.1-0.2-0.3-0.2-0.4L5,16.9l-1.1,0c-1.9,0-3.4-1.5-3.4-3.4V3.7
			C0.5,2.8,0.8,1.9,1.5,1.3z"/>
		
			<linearGradient id="Path_7637_00000073681333183329091400000018221638056845804693_" gradientUnits="userSpaceOnUse" x1="-671.0749" y1="67.6498" x2="-670.0749" y2="67.6498" gradientTransform="matrix(44.621 0 0 -0.6 29966.3652 46.7748)">
			<stop  offset="0" style="stop-color:#FFFFFF"/>
			<stop  offset="1" style="stop-color:#E9EFFD"/>
		</linearGradient>
		<path id="Path_7637" style="fill:url(#Path_7637_00000073681333183329091400000018221638056845804693_);" d="M67,6.2
			c0-0.2-0.1-0.3-0.3-0.3h-44c-0.2,0-0.3,0.1-0.3,0.3l0,0c0,0.2,0.1,0.3,0.3,0.3h44C66.8,6.5,67,6.4,67,6.2L67,6.2z"/>
		
			<linearGradient id="Path_7638_00000022531619092051018790000004885313335392267918_" gradientUnits="userSpaceOnUse" x1="-671.0749" y1="67.63" x2="-670.0749" y2="67.63" gradientTransform="matrix(44.621 0 0 -0.6 29948.6367 52.5368)">
			<stop  offset="0" style="stop-color:#FFFFFF"/>
			<stop  offset="1" style="stop-color:#E9EFFD"/>
		</linearGradient>
		<path id="Path_7638" style="fill:url(#Path_7638_00000022531619092051018790000004885313335392267918_);" d="M49.2,12
			c0-0.2-0.1-0.3-0.3-0.3h-44c-0.2,0-0.3,0.1-0.3,0.3l0,0c0,0.2,0.1,0.3,0.3,0.3h44C49.1,12.3,49.2,12.1,49.2,12L49.2,12z"/>
		
			<linearGradient id="Path_7639_00000162335808385089261840000015976302456087143066_" gradientUnits="userSpaceOnUse" x1="-656.8845" y1="67.6498" x2="-655.8845" y2="67.6498" gradientTransform="matrix(14.743 0 0 -0.6 9688.6602 46.7748)">
			<stop  offset="0" style="stop-color:#FFFFFF"/>
			<stop  offset="1" style="stop-color:#E9EFFD"/>
		</linearGradient>
		<path id="Path_7639" style="fill:url(#Path_7639_00000162335808385089261840000015976302456087143066_);" d="M19,6.2
			c0-0.2-0.1-0.3-0.3-0.3H4.5C4.4,5.9,4.2,6,4.2,6.2l0,0c0,0.2,0.1,0.3,0.3,0.3h14.1C18.8,6.5,19,6.4,19,6.2z"/>
		
			<linearGradient id="Path_7640_00000116197514771871448500000010770077352343675523_" gradientUnits="userSpaceOnUse" x1="-656.8845" y1="67.6498" x2="-655.8845" y2="67.6498" gradientTransform="matrix(14.743 0 0 -0.6 9700.2129 49.7628)">
			<stop  offset="0" style="stop-color:#FFFFFF"/>
			<stop  offset="1" style="stop-color:#E9EFFD"/>
		</linearGradient>
		<path id="Path_7640" style="fill:url(#Path_7640_00000116197514771871448500000010770077352343675523_);" d="M30.5,9.2
			c0-0.2-0.1-0.3-0.3-0.3H16.1c-0.2,0-0.3,0.1-0.3,0.3l0,0c0,0.2,0.1,0.3,0.3,0.3h14.1C30.4,9.5,30.5,9.3,30.5,9.2z"/>
		
			<linearGradient id="Path_7641_00000129175953398132976480000009909253963752071099_" gradientUnits="userSpaceOnUse" x1="-668.6285" y1="67.6498" x2="-667.6285" y2="67.6498" gradientTransform="matrix(33.068 0 0 -0.6 22144.1094 49.7628)">
			<stop  offset="0" style="stop-color:#FFFFFF"/>
			<stop  offset="1" style="stop-color:#E9EFFD"/>
		</linearGradient>
		<path id="Path_7641" style="fill:url(#Path_7641_00000129175953398132976480000009909253963752071099_);" d="M67,9.2
			c0-0.2-0.1-0.3-0.3-0.3H34.2c-0.2,0-0.3,0.1-0.3,0.3l0,0c0,0.2,0.1,0.3,0.3,0.3h32.5C66.8,9.5,67,9.3,67,9.2L67,9.2z"/>
		
			<linearGradient id="Path_7642_00000063613886817044258310000017239608747582317211_" gradientUnits="userSpaceOnUse" x1="-644.7106" y1="67.6498" x2="-643.7106" y2="67.6498" gradientTransform="matrix(9.364 0 0 -0.6 6041.064 49.7628)">
			<stop  offset="0" style="stop-color:#FFFFFF"/>
			<stop  offset="1" style="stop-color:#E9EFFD"/>
		</linearGradient>
		<path id="Path_7642" style="fill:url(#Path_7642_00000063613886817044258310000017239608747582317211_);" d="M13.4,9.2
			c0-0.2-0.1-0.3-0.3-0.3H4.3C4.2,8.9,4,9,4,9.2l0,0c0,0.2,0.1,0.3,0.3,0.3h8.8C13.3,9.5,13.4,9.3,13.4,9.2z"/>
		
			<linearGradient id="Path_7643_00000107580808552560321410000004563892071051071902_" gradientUnits="userSpaceOnUse" x1="-644.7106" y1="67.63" x2="-643.7106" y2="67.63" gradientTransform="matrix(9.364 0 0 -0.6 6095.0439 52.9358)">
			<stop  offset="0" style="stop-color:#FFFFFF"/>
			<stop  offset="1" style="stop-color:#E9EFFD"/>
		</linearGradient>
		<path id="Path_7643" style="fill:url(#Path_7643_00000107580808552560321410000004563892071051071902_);" d="M67.4,12.4
			c0-0.2-0.1-0.3-0.3-0.3h-8.8c-0.2,0-0.3,0.1-0.3,0.3l0,0c0,0.2,0.1,0.3,0.3,0.3h8.8C67.2,12.7,67.4,12.5,67.4,12.4z"/>
	</g>
	<g id="Group_3467" transform="translate(246.399 288.333)">
		<g id="Group_3466" transform="translate(17.223)">
			<path id="Path_7646" class="st12" d="M23.4,45.4c0,0-19.3,0.6-22.5-11.3c-2.6-9.6,5.1,0.1,14.1,6.1c0.3,0.2,0.7,0.1,0.9-0.2
				c0.2-0.3,0.1-0.7-0.1-0.9C9.3,33.9-0.1,25.5,1.5,21c2.4-6.8,3.1-3.1,9.3,4.7s9.4,7.5,6,1.7S3.7,16.6,4.3,12.7S8.5,3.4,9.7,0.9
				s13.5,4.2,13.5,9.3s-3.6,12.7-1.7,16.8s3.8-4.1,4.4-8.6s1.7-7.2,5.1-2.5s0.4,11.7-2.9,15.7s-4,7.5-2.2,5.6s6.8-8,7.2-10.9
				S40.5,34.5,23.4,45.4z"/>
			<path id="Path_7647" class="st13" d="M22.6,44.7c-0.1,0-0.1-0.1-0.1-0.1c-0.8-14.8-8.7-33.1-8.7-33.3c0-0.1,0-0.2,0.1-0.2
				s0.2,0,0.2,0.1c0.1,0.2,8,18.6,8.8,33.4C22.8,44.6,22.8,44.7,22.6,44.7C22.6,44.7,22.6,44.7,22.6,44.7z"/>
		</g>
	</g>
	<g id="Group_3472" transform="translate(245.075 198.601)">
		<g>
			<defs>
				<path id="SVGID_1_" d="M28,0.3h85c15.2,0,27.5,12.3,27.5,27.5c0,0,0,0,0,0V55c0,19.1-15.5,34.6-34.6,34.6h0H28
					c-15.2,0-27.5-12.3-27.5-27.5c0,0,0,0,0,0V27.8C0.4,12.6,12.8,0.3,28,0.3C28,0.3,28,0.3,28,0.3z"/>
			</defs>
			<clipPath id="SVGID_00000011723194352071908440000010602650298347400862_">
				<use xlink:href="#SVGID_1_"  style="overflow:visible;"/>
			</clipPath>
			
				<g id="Group_3471" transform="translate(0)" style="clip-path:url(#SVGID_00000011723194352071908440000010602650298347400862_);">
				<g id="Group_3470" transform="translate(23.307 4.319)">
					<path id="Path_7648" class="st15" d="M13.5,72.2c-1.9,1.8-4,3.4-6.3,4.6c3.3,3.9,7.2,7.4,11.5,10.2l1.4,3.2l4.5-5.4
						C24.7,84.7,16.5,80.7,13.5,72.2z"/>
					
						<linearGradient id="Path_7649_00000121280880930661714140000002280269717984198318_" gradientUnits="userSpaceOnUse" x1="-603.534" y1="423.5364" x2="-603.501" y2="418.8334" gradientTransform="matrix(13.0664 0 0 -10.2223 7916.9619 4464.8755)">
						<stop  offset="0" style="stop-color:#FDF53F"/>
						<stop  offset="1" style="stop-color:#D93C65"/>
					</linearGradient>
					<path id="Path_7649" style="fill:url(#Path_7649_00000121280880930661714140000002280269717984198318_);" d="M37.8,175.5
						c0-0.1,0-0.2,0-0.3c-1.5-5.8-8.8-9.5-8.8-9.5l-2.9,0.2c-1.7,5.1-1.5,8.3-1.2,9.7c0,0,0,0.1,0,0.1
						C29.3,176.1,33.6,176,37.8,175.5z"/>
					
						<linearGradient id="Path_7650_00000045606763447021905790000018196905855619514801_" gradientUnits="userSpaceOnUse" x1="-601.2237" y1="304.9071" x2="-604.9217" y2="280.8311" gradientTransform="matrix(12.8531 0 0 -1.5502 7783.2334 629.5048)">
						<stop  offset="0" style="stop-color:#53D8FF"/>
						<stop  offset="1" style="stop-color:#3840F7"/>
					</linearGradient>
					<path id="Path_7650" style="fill:url(#Path_7650_00000045606763447021905790000018196905855619514801_);" d="M25,175.8
						c0.1,0.5,0.5,0.8,0.9,0.9c3.4,0.7,8.8,0.1,11.1-0.2c0.5-0.1,0.9-0.5,0.9-1.1C33.6,176,29.3,176.1,25,175.8z"/>
					
						<linearGradient id="Path_7651_00000114072099492263238520000006700289171363488400_" gradientUnits="userSpaceOnUse" x1="-564.2937" y1="407.1575" x2="-564.7997" y2="403.9245" gradientTransform="matrix(4.935 0 0 -6.7368 2811.2979 2915.3657)">
						<stop  offset="0" style="stop-color:#FEBBBA"/>
						<stop  offset="1" style="stop-color:#FF928E"/>
					</linearGradient>
					<path id="Path_7651" style="fill:url(#Path_7651_00000114072099492263238520000006700289171363488400_);" d="M25,161.6l1.2,5.9
						c0.1,0.4,0.4,0.7,0.8,0.8c0.6,0.1,1.3,0.1,1.9,0c0.7-0.1,1.1-0.8,1-1.4c0,0,0,0,0,0l-0.9-5.2L25,161.6z"/>
					
						<linearGradient id="Path_7652_00000083066365286703863730000014199046068719009152_" gradientUnits="userSpaceOnUse" x1="-610.31" y1="304.2209" x2="-612.826" y2="281.1548" gradientTransform="matrix(18.8975 0 0 -1.619 11598.332 659.4313)">
						<stop  offset="0" style="stop-color:#53D8FF"/>
						<stop  offset="1" style="stop-color:#3840F7"/>
					</linearGradient>
					<path id="Path_7652" style="fill:url(#Path_7652_00000083066365286703863730000014199046068719009152_);" d="M50.4,175.7
						c-1.9,0-3.9-0.2-5.7-0.8c0,0.3,0,0.6,0,1c0,0.3,0.3,0.6,0.6,0.6l17.6-0.1c0.4,0,0.8-0.4,0.7-0.9c0-0.1,0-0.2-0.1-0.3
						C61.2,175.4,55.3,175.8,50.4,175.7z"/>
					
						<linearGradient id="Path_7653_00000093863041924921374320000005774820936607248020_" gradientUnits="userSpaceOnUse" x1="-610.8293" y1="421.1895" x2="-610.8063" y2="415.9095" gradientTransform="matrix(18.812 0 0 -9.1039 11544.6309 3969.8953)">
						<stop  offset="0" style="stop-color:#FDF53F"/>
						<stop  offset="1" style="stop-color:#D93C65"/>
					</linearGradient>
					<path id="Path_7653" style="fill:url(#Path_7653_00000093863041924921374320000005774820936607248020_);" d="M63.5,175.2
						c0,0,0-0.1-0.1-0.1c-1.5-2.2-5.5-6.5-13.3-8.3l-3.7-0.1c0,0-1.7,2.9-1.7,8.3c1.8,0.6,3.8,0.9,5.7,0.8
						C55.3,175.8,61.2,175.4,63.5,175.2z"/>
					
						<linearGradient id="Path_7654_00000176002217677845025640000008888993029357849764_" gradientUnits="userSpaceOnUse" x1="-563.4197" y1="411.0917" x2="-563.9348" y2="408.3297" gradientTransform="matrix(4.8506 0 0 -7.884 2778.9929 3422.4453)">
						<stop  offset="0" style="stop-color:#FEBBBA"/>
						<stop  offset="1" style="stop-color:#FF928E"/>
					</linearGradient>
					<path id="Path_7654" style="fill:url(#Path_7654_00000176002217677845025640000008888993029357849764_);" d="M45.7,161
						c0,0.3,0.6,4.5,0.8,6.2c0,0.4,0.3,0.7,0.7,0.7c0.9,0.1,1.7,0.1,2.6,0c0.5-0.1,0.9-0.6,0.8-1.1V160L45.7,161z"/>
					
						<linearGradient id="Path_7655_00000150066687708609237920000012719055618083436962_" gradientUnits="userSpaceOnUse" x1="-618.2476" y1="439.6894" x2="-620.6937" y2="438.1384" gradientTransform="matrix(32.6456 0 0 -79.8675 20205.2461 35262.7969)">
						<stop  offset="0" style="stop-color:#09005D"/>
						<stop  offset="1" style="stop-color:#1A0F91"/>
					</linearGradient>
					<path id="Path_7655" style="fill:url(#Path_7655_00000150066687708609237920000012719055618083436962_);" d="M42.7,83.6
						c6,25.4,9,51.4,8.9,77.5c0,0.8-0.6,1.5-1.3,1.6c-1.4,0.3-2.8,0.5-4.2,0.5c-0.7,0-1.4-0.6-1.5-1.3c-1.3-7.4-8.5-49.2-12.7-56
						c0,0-2.7,37.2-1.9,56.6c0,0.5-0.3,0.9-0.8,1c-1.1,0.1-2.2,0.1-3.4,0c-0.6-0.1-1-0.5-1.1-1c-0.9-6.3-6.1-43.7-5.9-70.6
						c0-1.5,4-8.1,4-8.1L42.7,83.6z"/>
					<path id="Path_7656" class="st23" d="M55.2,42.1c-1.5-1.8-2.7-3.8-3.8-5.8c-1.5-2.8-0.1,1.8-0.5-1.4c-11.2-8.1-28.1-4-34.7-3.2
						c-2.1,0.3-4.1,1.3-5.5,3C5.1,41.1-7.2,58.9,7.2,76.8c2.3-1.2,4.4-2.8,6.3-4.6c-1.6-4.5-1.7-10.3,1.6-17.4
						c0.1,0.6,0.3,1.1,0.4,1.7c3.1,9.6,4.7,19.6,4.9,29.7c0,0.4,0.2,0.7,0.6,0.9c6.1,2.4,17.8,1,21.7,0.4c0.7-0.1,1.2-0.8,1.1-1.5
						c-1.9-14,8-37,10.6-42.8C54.6,42.8,54.9,42.4,55.2,42.1z"/>
					<path id="Path_7657" class="st15" d="M26.7,19.9l-1.2,12c0,0,6.7,2,11.6-1.4l-3.4-10.9L26.7,19.9z"/>
					<g id="Group_3468" transform="translate(20.766)">
						<path id="Path_7658" class="st15" d="M13.8,6.2c0.2,0.2,6.8,13.3,6.8,13.3L13,23.2L4.8,11.7C4.8,11.7,11,3.7,13.8,6.2z"/>
						
							<linearGradient id="Path_7659_00000070827199010775769600000011073512900058112691_" gradientUnits="userSpaceOnUse" x1="-629.5748" y1="430.5978" x2="-628.1898" y2="431.8428" gradientTransform="matrix(16.0726 0 0 -20.2707 10114.0361 8754.8271)">
							<stop  offset="0" style="stop-color:#050038"/>
							<stop  offset="1" style="stop-color:#050038"/>
						</linearGradient>
						<path id="Path_7659" style="fill:url(#Path_7659_00000070827199010775769600000011073512900058112691_);" d="M8.2,12
							c-0.1,0.3-0.1,0.7,0.1,1.1c3.8,6.4,1.8,8.3,0.7,7.2c-1-1-3.9-1.9-4.8-1.6c-0.3,0.1-0.7,0-1-0.1c-1.3-0.6-1.9-2.2-1.3-3.5
							c0.1-0.2,0.2-0.4,0.3-0.5c0.3-0.6,0.2-1.3-0.4-1.6c-1.3-0.7-1.8-2.3-1.1-3.6c0-0.1,0.1-0.1,0.1-0.2c0.8-1.5,2.4-2.3,4.1-2
							C5.5,7.1,6,6.8,6.3,6.3C6.4,6,6.6,5.8,6.9,5.8c0.6-0.1,1.1-0.7,1-1.4c0,0,0,0,0,0C7.5,3,8.2,1.5,9.6,0.9
							c3.3-1.8,6.1,1.1,6.9,3.6S13.5,8.7,11.2,9C9.5,9.2,8.6,11,8.2,12z"/>
						<path id="Path_7660" class="st15" d="M9.4,21.3c0,0-1.5-4.3-3.3-4.1s-3.3,2-1,4.1C8,23.9,9.4,21.3,9.4,21.3z"/>
					</g>
					
						<linearGradient id="Path_7661_00000132056633322082732770000014100237015866000539_" gradientUnits="userSpaceOnUse" x1="-494.7712" y1="427.2695" x2="-483.4542" y2="429.5415" gradientTransform="matrix(2.3586 0 0 -14.9 1181.3949 6412.0581)">
						<stop  offset="0" style="stop-color:#4F52FF"/>
						<stop  offset="1" style="stop-color:#4042E2"/>
					</linearGradient>
					<path id="Path_7661" style="fill:url(#Path_7661_00000132056633322082732770000014100237015866000539_);" d="M14.5,53.7
						C12.1,47,13,38.9,13,38.8l0.7,0.1c0,0.1-0.9,8,1.5,14.6L14.5,53.7z"/>
					
						<linearGradient id="Path_7662_00000098180271746978746610000016087845087050071977_" gradientUnits="userSpaceOnUse" x1="-586.0681" y1="406.3011" x2="-586.9901" y2="404.5961" gradientTransform="matrix(7.2541 0 0 -6.9836 4267.1597 2961.1357)">
						<stop  offset="0" style="stop-color:#09005D"/>
						<stop  offset="1" style="stop-color:#1A0F91"/>
					</linearGradient>
					<path id="Path_7662" style="fill:url(#Path_7662_00000098180271746978746610000016087845087050071977_);" d="M31.5,105
						c-0.2,0-0.3-0.1-0.3-0.3c-0.7-2.9-6.4-6.1-6.4-6.1c-0.2-0.1-0.2-0.3-0.1-0.5s0.3-0.2,0.5-0.1l0,0c0.2,0.1,5.9,3.3,6.7,6.5
						C31.9,104.7,31.8,104.9,31.5,105C31.6,105,31.6,105,31.5,105C31.6,105,31.6,105,31.5,105z"/>
					<g id="Group_3469" transform="translate(35.937 30.501)">
						
							<linearGradient id="Path_7663_00000102522138655465048960000012659992172750909846_" gradientUnits="userSpaceOnUse" x1="-655.9646" y1="403.973" x2="-656.8326" y2="401.93" gradientTransform="matrix(43.3432 0 0 -26.2235 28461.6426 10594.4229)">
							<stop  offset="0" style="stop-color:#3F53D9"/>
							<stop  offset="1" style="stop-color:#4042E2"/>
						</linearGradient>
						<path id="Path_7663" style="fill:url(#Path_7663_00000102522138655465048960000012659992172750909846_);" d="M42.1,15.3
							c-12.7,1.9-21-6.1-27.1-11C6.8-2.1,0.4,1.1,0.4,1.1l8.7,16.6c13,12.2,26.3,9.5,34.6,5.5C43.9,20.5,43.3,17.8,42.1,15.3z"/>
						<path id="Path_7664" class="st15" d="M59.9,7.8L55.7,10c-4.1,2.7-8.8,4.5-13.6,5.3c1.2,2.4,1.8,5.1,1.7,7.9
							c3.1-1.5,6-3.3,8.7-5.5C62,12,59.9,7.8,59.9,7.8z"/>
					</g>
					<path id="Path_7665" class="st15" d="M108.3,44.2c-0.3-0.9-0.9-1.6-1.8-2l-8.5-3.4c0,0-0.1-1.1,1.8-1.8
						c1.1-0.5,1.7-1.7,1.5-2.9c0,0-2.6,1.2-6.5,3.1c-1.8,1-3.3,2.6-4.1,4.5l2.2,2.9c5.2,1.5,10.6,1.9,16,1.3L108.3,44.2z"/>
				</g>
			</g>
		</g>
	</g>
	<g id="Group_3476" transform="translate(312.241 292.046)">
		<g id="Group_3474" transform="translate(0 16.242)">
			<g id="Group_3473">
				<path id="Path_7666" class="st2" d="M91.2,20.9H7.3V4.1h83.9C89.4,4.1,89.4,20.9,91.2,20.9z"/>
				<path id="Path_7667" class="st12" d="M7.3,16.7V9C7.3,6.3,9,4.1,11,4.1h82.5c0.1,0,0.2-0.1,0.2-0.2l0,0V0.5
					c0-0.1-0.1-0.2-0.2-0.2l0,0H5.6c-2,0-5.2,3.1-5.2,7v10.7c0,3.7,3.1,6.6,5,6.6h88.1c0.1,0,0.2-0.1,0.2-0.2l0,0v-3.4
					c0-0.1-0.1-0.2-0.2-0.2l0,0H10.5C8.7,20.9,7.3,19,7.3,16.7z"/>
			</g>
			
				<linearGradient id="Path_7668_00000180368435914451134000000003873722932571214240_" gradientUnits="userSpaceOnUse" x1="-667.8257" y1="-245.7227" x2="-666.8257" y2="-245.7227" gradientTransform="matrix(79.054 0 0 -0.4 52803.7422 -90.7426)">
				<stop  offset="0" style="stop-color:#FFFFFF"/>
				<stop  offset="1" style="stop-color:#FFFFFF"/>
			</linearGradient>
			<path id="Path_7668" style="fill:url(#Path_7668_00000180368435914451134000000003873722932571214240_);" d="M88.3,7.8H9.6
				c-0.1,0-0.2-0.1-0.2-0.2s0.1-0.2,0.2-0.2h78.7c0.1,0,0.2,0.1,0.2,0.2S88.4,7.8,88.3,7.8z"/>
			
				<linearGradient id="Path_7669_00000054226967674616493010000017622711358890316459_" gradientUnits="userSpaceOnUse" x1="-667.8257" y1="-245.7227" x2="-666.8257" y2="-245.7227" gradientTransform="matrix(79.054 0 0 -0.4 52803.7422 -88.2476)">
				<stop  offset="0" style="stop-color:#FFFFFF"/>
				<stop  offset="1" style="stop-color:#FFFFFF"/>
			</linearGradient>
			<path id="Path_7669" style="fill:url(#Path_7669_00000054226967674616493010000017622711358890316459_);" d="M88.3,10.2H9.6
				c-0.1,0-0.2-0.1-0.2-0.2s0.1-0.2,0.2-0.2h78.7c0.1,0,0.2,0.1,0.2,0.2S88.4,10.2,88.3,10.2z"/>
			
				<linearGradient id="Path_7670_00000137101067293959171430000000734668487043296399_" gradientUnits="userSpaceOnUse" x1="-667.8257" y1="-245.7227" x2="-666.8257" y2="-245.7227" gradientTransform="matrix(79.054 0 0 -0.4 52803.7422 -85.7586)">
				<stop  offset="0" style="stop-color:#FFFFFF"/>
				<stop  offset="1" style="stop-color:#FFFFFF"/>
			</linearGradient>
			<path id="Path_7670" style="fill:url(#Path_7670_00000137101067293959171430000000734668487043296399_);" d="M88.3,12.7H9.6
				c-0.1,0-0.2-0.1-0.2-0.2s0.1-0.2,0.2-0.2h78.7c0.1,0,0.2,0.1,0.2,0.2S88.4,12.7,88.3,12.7z"/>
			
				<linearGradient id="Path_7671_00000018951673025301666490000016712800613270878349_" gradientUnits="userSpaceOnUse" x1="-667.8257" y1="-245.7227" x2="-666.8257" y2="-245.7227" gradientTransform="matrix(79.054 0 0 -0.4 52803.7422 -83.2665)">
				<stop  offset="0" style="stop-color:#FFFFFF"/>
				<stop  offset="1" style="stop-color:#FFFFFF"/>
			</linearGradient>
			<path id="Path_7671" style="fill:url(#Path_7671_00000018951673025301666490000016712800613270878349_);" d="M88.3,15.2H9.6
				c-0.1,0-0.2-0.1-0.2-0.2s0.1-0.2,0.2-0.2h78.7c0.1,0,0.2,0.1,0.2,0.2S88.4,15.2,88.3,15.2z"/>
			
				<linearGradient id="Path_7672_00000087410833168192084410000010389743835231664007_" gradientUnits="userSpaceOnUse" x1="-667.8257" y1="-245.7227" x2="-666.8257" y2="-245.7227" gradientTransform="matrix(79.054 0 0 -0.4 52803.7422 -80.7736)">
				<stop  offset="0" style="stop-color:#FFFFFF"/>
				<stop  offset="1" style="stop-color:#FFFFFF"/>
			</linearGradient>
			<path id="Path_7672" style="fill:url(#Path_7672_00000087410833168192084410000010389743835231664007_);" d="M88.3,17.7H9.6
				c-0.1,0-0.2-0.1-0.2-0.2s0.1-0.2,0.2-0.2h78.7c0.1,0,0.2,0.1,0.2,0.2S88.4,17.7,88.3,17.7z"/>
		</g>
		<g id="Group_3475" transform="translate(25.241 0)">
			<path id="Rectangle_4289" class="st23" d="M60,16.7H8.6c-4.5,0-8.2-3.7-8.2-8.2l0,0c0-4.5,3.7-8.2,8.2-8.2H60
				c4.5,0,8.2,3.7,8.2,8.2l0,0C68.2,13,64.5,16.7,60,16.7z"/>
			<rect id="Rectangle_4290" x="52.6" y="2.2" class="st12" width="8" height="12.6"/>
			<rect id="Rectangle_4291" x="48.4" y="2.2" class="st12" width="3" height="12.6"/>
		</g>
	</g>
	<g id="Group_3481" transform="translate(359.463 253.827)">
		<path id="Path_7673" class="st15" d="M2,56.1c0,0,13.7-24,15.5-26.2c0.3-0.4,0.8-0.6,1.3-0.5l3.8,0.5l4.5,9.7l-7.5-4.3
			c0.7,5.1-8.9,12.7-12.1,15.5c-0.3,0.3-0.4,0.7-0.1,1.1c0,0,0,0,0,0l1.3,1.4c-2,2.1-4.6,3.6-7.5,4.2L2,56.1z"/>
		
			<linearGradient id="Path_7674_00000172408055906478639360000008131584116033716388_" gradientUnits="userSpaceOnUse" x1="-683.6241" y1="361.3294" x2="-681.3471" y2="352.9884" gradientTransform="matrix(8.7117 0 0 -6.8209 5951.7319 2496.1741)">
			<stop  offset="0" style="stop-color:#09005D"/>
			<stop  offset="1" style="stop-color:#1A0F91"/>
		</linearGradient>
		<path id="Path_7674" style="fill:url(#Path_7674_00000172408055906478639360000008131584116033716388_);" d="M8,52.4
			c0.5,0.2,0.9,0.5,1.1,1c0.1,0.4,0,0.8-0.3,1c-1.4,1-5.9,4.2-8,4.8c-0.1,0-0.3,0-0.3-0.2c0,0,0-0.1,0-0.1C0.8,57.9,1.3,56.9,2,56
			l-0.1,0.2c-0.1,0.1,0,0.3,0.1,0.4c0.1,0,0.2,0,0.3,0C4.4,55.5,6.3,54.1,8,52.4z"/>
		<path id="Path_7675" class="st15" d="M7.3,62c0,0,2.1-5,2.1-5c1.4-8.3,4.1-16.3,7.8-23.8c0.2-0.4,0.7-0.7,1.1-0.8l3.8-0.3l6.4,8.6
			l-8.2-2.7c1.8,4.9-6.1,14.2-8.8,17.6c-0.3,0.3-0.2,0.8,0.1,1.1c0,0,0,0,0,0l1.6,1.1c-1.6,2.5-3.8,4.4-6.4,5.7L7.3,62z"/>
		
			<linearGradient id="Path_7676_00000148651246538976475030000000940155611294139807_" gradientUnits="userSpaceOnUse" x1="-678.2099" y1="367.1537" x2="-675.5589" y2="360.1837" gradientTransform="matrix(7.4852 0 0 -8.16 5075.811 3026.4929)">
			<stop  offset="0" style="stop-color:#09005D"/>
			<stop  offset="1" style="stop-color:#1A0F91"/>
		</linearGradient>
		<path id="Path_7676" style="fill:url(#Path_7676_00000148651246538976475030000000940155611294139807_);" d="M12.4,57.1
			c0.5,0.1,1,0.3,1.3,0.8c0.2,0.3,0.1,0.8-0.1,1c-1.2,1.2-5,5.3-6.9,6.3c-0.1,0.1-0.3,0-0.3-0.1c0,0,0-0.1,0-0.1
			c0.1-1.1,0.4-2.2,1-3.2l-0.1,0.2c0,0.2,0,0.3,0.2,0.4c0.1,0,0.2,0,0.3-0.1C9.6,60.9,11.2,59.1,12.4,57.1z"/>
		<g id="Group_3477" transform="translate(15.313 29.814)">
			<path id="Path_7677" class="st0" d="M24.8,0.5c0,0,3.5,5.2,3.7,7.5s-1,3.2-4.6,3.5C13.2,12.3,7.9,9.1,7.9,9.1
				C7.1,4.4,6.6,3.2,0.4,0.6c0,0,7.8,0.6,9.4,0S24.8,0.5,24.8,0.5z"/>
		</g>
		<g id="Group_3479" transform="translate(19.437 0)">
			
				<linearGradient id="Path_7678_00000016781527866116571760000013888834067486317749_" gradientUnits="userSpaceOnUse" x1="-733.0244" y1="411.5858" x2="-732.7064" y2="410.8388" gradientTransform="matrix(16.677 0 0 -17.8201 12009.3545 6761.0923)">
				<stop  offset="0" style="stop-color:#050038"/>
				<stop  offset="1" style="stop-color:#050038"/>
			</linearGradient>
			<path id="Path_7678" style="fill:url(#Path_7678_00000016781527866116571760000013888834067486317749_);" d="M6.9,1.4
				c0,0,2.4-2.9,5,0.6c0.5,0.6,2.2,0.1,2.9,1.4c0.3,0.7,1.1,1.1,1.8,0.9C18.4,4.1,21.5,4.1,23,7c1.2,2.2,0.3,3.5-0.9,4.3
				c-0.9,0.5-1.1,1.7-0.6,2.5c0.5,0.8,0.6,2-0.7,3.3c-2.8,3-8.5-1.9-8.5-1.9L7.9,4.7L6.9,1.4z"/>
			<path id="Path_7679" class="st23" d="M11.3,29.6c-2.1-2-4.1-4.1-6-6.4c-1.1-1.4-1.4-3.2-0.9-4.9c0.8-2.3,1.7-4.5,2.7-6.7
				c0.2-0.8,4.7-0.7,4.7-0.7s8.9,5.8,12.4,15.6l-3.9,1.2c-1.4-2.3-2.9-4.4-4.6-6.4c0,0,4,5.2,4.1,7.4L11.3,29.6z"/>
			<path id="Path_7680" class="st15" d="M3.6,31.1l3-3.3l3.5,0.9c0,0,4.1,0.6,6.4,0l2.3-0.6l5.3-1.6l0.8,2.3c0.2,0.6,0,1.3-0.5,1.6
				c-0.4,0.3-0.9,0.6-1.3,0.8c-0.7,0.3-16,0.1-16,0.1L3.6,31.1z"/>
			<path id="Path_7681" class="st15" d="M8.7,5.5l3,5.7c-0.2,1.2-3.3,1.3-3.8,0.5c0-0.1-0.1-0.2-0.1-0.2L6,7.6C5.9,7.3,7,6,7.3,5.9
				l1.2-0.6C9,5,7,4.9,8.7,5.5z"/>
			<g id="Group_3478" transform="translate(0 0.166)">
				<path id="Path_7682" class="st15" d="M2.5,4C2.4,5.5,2.8,7.1,3.7,8.3c1.5,2.4,3,2.3,3.8,1.5c1.2-1.3,1.6-3,1.3-4.7
					C8.3,2.6,3.1,1.6,2.5,4z"/>
				
					<linearGradient id="Path_7683_00000168801322654988392480000018089922035657228430_" gradientUnits="userSpaceOnUse" x1="-721.7166" y1="419.5745" x2="-721.2075" y2="417.3405" gradientTransform="matrix(9.7137 0 0 -5.5495 6860.9849 1944.1691)">
					<stop  offset="0" style="stop-color:#09005D"/>
					<stop  offset="1" style="stop-color:#050038"/>
				</linearGradient>
				<path id="Path_7683" style="fill:url(#Path_7683_00000168801322654988392480000018089922035657228430_);" d="M6.9,5.3
					c0,0-2.4-3.2-4.3-0.4l0,1c0,0-2.4-0.1-2.2-2.3s2.2-3.8,5-3s4.4,1.6,4.7,3.5S8.9,5.7,8.9,5.7S8.3,4.3,7.6,4.2s-0.5,1-0.5,1
					L6.9,5.3z"/>
				<path id="Path_7684" class="st15" d="M7.4,5.2c0,0-1.3-1.6-0.1-2s1.1,1.6,1,2.3L7.4,5.2z"/>
			</g>
		</g>
		<g id="Group_3480" transform="translate(5.228 19.445)">
			
				<linearGradient id="Path_7685_00000092439202375637088960000018036816245692412574_" gradientUnits="userSpaceOnUse" x1="-702.0904" y1="191.3348" x2="-702.8294" y2="188.8978" gradientTransform="matrix(15.1901 0 0 -1.263 10701.9043 249.5444)">
				<stop  offset="0" style="stop-color:#09005D"/>
				<stop  offset="1" style="stop-color:#1A0F91"/>
			</linearGradient>
			<path id="Path_7685" style="fill:url(#Path_7685_00000092439202375637088960000018036816245692412574_);" d="M27.9,13L27.9,13
				l-14,0c-0.3,0-0.6-0.3-0.6-0.6c0-0.3,0.3-0.6,0.6-0.6c0,0,0,0,0,0l13.9,0c0.3,0,0.6,0.3,0.6,0.6C28.5,12.7,28.2,13,27.9,13
				L27.9,13z"/>
			<path id="Path_7686" class="st0" d="M1.4,0.3H13c0.9,0,1.6,0.5,2,1.3L20.4,13H5.9c-0.6,0-1-0.3-1.3-0.9L0.5,1.6
				c-0.2-0.5,0-1,0.5-1.2C1.1,0.3,1.3,0.3,1.4,0.3z"/>
			<path id="Path_7687" class="st1" d="M9.6,6.1c0.3,0.8,0.1,1.5-0.4,1.7S8.1,7.5,7.8,6.7C7.6,5.9,7.7,5.2,8.2,5S9.3,5.4,9.6,6.1z"
				/>
		</g>
	</g>
</g>
</svg>
